<?xml version="1.0" standalone="no"?>
<!DOCTYPE svg PUBLIC "-//W3C//DTD SVG 20010904//EN"
 "http://www.w3.org/TR/2001/REC-SVG-20010904/DTD/svg10.dtd">
<svg version="1.0" xmlns="http://www.w3.org/2000/svg"
 width="444.000000pt" height="562.000000pt" viewBox="0 0 444.000000 562.000000"
 preserveAspectRatio="xMidYMid meet">

<g transform="translate(0.000000,562.000000) scale(0.100000,-0.100000)"
fill="#000000" stroke="none">
<path d="M2310 5609 c-25 -5 -59 -7 -77 -4 -20 4 -44 0 -61 -9 -19 -10 -46
-13 -88 -9 -87 8 -255 -40 -238 -68 3 -6 21 -9 39 -7 19 1 36 0 39 -2 2 -3 7
-43 10 -90 4 -47 9 -105 12 -130 5 -43 4 -46 -31 -64 -38 -21 -45 -53 -10 -48
11 1 58 5 105 9 69 5 88 10 102 27 26 31 22 43 -16 50 -29 6 -35 12 -40 41 -5
27 -2 39 14 55 11 11 24 20 29 20 11 0 71 -107 71 -125 0 -7 -11 -17 -25 -23
-14 -6 -25 -19 -25 -28 0 -14 6 -15 43 -8 23 4 63 8 90 7 41 -1 60 -1 110 -3
6 0 46 -3 88 -6 61 -5 82 -3 102 10 23 16 25 16 30 -3 9 -37 53 -55 129 -53
61 2 73 -1 100 -23 53 -45 174 -30 233 29 14 14 25 30 25 36 0 19 -38 10 -70
-17 -59 -49 -140 -24 -140 44 l0 36 38 -7 c20 -4 63 -11 95 -15 52 -7 59 -5
69 12 10 20 3 78 -13 109 -23 43 -102 58 -175 33 -17 -5 -23 -2 -28 18 -9 37
-65 69 -102 58 -82 -23 -117 -65 -100 -119 4 -12 0 -25 -9 -32 -9 -8 -23 -26
-31 -42 -14 -26 -18 -28 -57 -22 -51 8 -53 10 -37 29 8 10 13 58 15 143 2 70
5 136 7 147 3 18 -3 20 -48 23 -27 2 -63 -2 -78 -8 -24 -9 -26 -13 -16 -25 7
-9 21 -13 31 -10 29 10 40 -2 28 -32 -9 -23 -15 -96 -18 -210 -1 -37 -5 -45
-32 -58 -24 -13 -37 -14 -62 -5 -26 9 -43 30 -95 122 l-63 111 37 38 c21 22
48 39 60 39 25 0 114 47 114 61 0 11 -19 10 -80 -2z m-159 -69 c21 0 17 -7
-38 -62 -34 -34 -65 -60 -68 -57 -3 4 -6 30 -8 60 -2 46 1 54 18 57 11 2 24
11 28 19 8 13 11 12 26 -1 10 -9 28 -16 42 -16z m611 -147 c23 -21 25 -78 2
-69 -9 3 -32 6 -51 6 -34 0 -35 1 -20 18 10 10 17 28 17 40 0 27 26 29 52 5z
m220 -60 c32 -29 22 -43 -29 -43 -62 0 -79 10 -64 39 14 26 66 29 93 4z m-221
-73 c34 -19 17 -70 -23 -70 -32 0 -78 29 -78 50 0 27 63 40 101 20z"/>
<path d="M1311 5430 c-13 -6 -36 -19 -51 -30 -15 -11 -40 -20 -56 -20 -15 0
-48 -14 -74 -30 -42 -27 -48 -36 -58 -83 -7 -28 -16 -116 -22 -195 -9 -144
-13 -162 -32 -162 -14 0 -88 -59 -88 -71 0 -5 6 -9 14 -9 18 0 113 47 144 71
13 10 35 20 50 24 16 3 34 18 44 35 19 34 15 36 -24 16 l-28 -15 0 48 c0 52 9
65 52 76 47 12 65 -53 29 -104 -13 -18 -17 -32 -11 -41 7 -11 30 -3 117 42
175 90 187 96 216 107 33 13 45 37 29 60 -7 9 -21 33 -32 54 -17 30 -26 37
-50 37 -39 0 -50 -37 -26 -87 9 -20 16 -37 14 -38 -13 -11 -110 -55 -122 -55
-10 0 -17 15 -22 45 -8 55 1 68 26 38 41 -51 80 0 42 54 -10 15 -29 49 -40 76
-21 47 -40 57 -71 38 -12 -8 -12 -14 2 -44 21 -43 21 -47 2 -47 -13 0 -65 86
-65 109 0 12 89 53 103 48 5 -1 17 -22 26 -46 22 -59 44 -72 69 -41 19 24 19
24 -9 84 -31 65 -49 75 -98 56z m-159 -278 c-14 -11 -18 -10 -20 3 -2 9 -1 29
3 43 l8 27 13 -30 c11 -26 11 -32 -4 -43z"/>
<path d="M3206 5295 c-22 -13 -45 -33 -50 -44 -6 -10 -23 -29 -38 -40 -15 -12
-28 -31 -30 -43 -2 -15 -13 -24 -34 -30 -43 -11 -71 -67 -54 -108 12 -28 96
-104 137 -123 34 -15 129 10 170 46 18 16 33 33 33 38 0 21 -64 78 -129 113
-63 35 -96 66 -71 66 6 0 10 -4 10 -9 0 -13 72 -39 127 -46 35 -4 58 0 83 13
38 19 43 40 26 110 -6 25 -4 33 9 38 24 9 42 -12 29 -34 -14 -24 -6 -52 15
-52 26 0 61 42 61 73 0 33 -33 57 -80 57 -20 0 -46 -7 -58 -16 -20 -14 -24
-14 -44 0 -31 22 -67 19 -112 -9z m97 -37 c9 -7 18 -29 19 -48 3 -34 2 -35
-31 -33 -48 2 -75 31 -62 66 12 30 45 36 74 15z m-188 -168 c3 -5 12 -10 20
-10 7 0 37 -14 65 -32 38 -24 50 -37 48 -52 -6 -43 -96 -27 -155 27 -25 23
-29 47 -11 65 15 15 25 15 33 2z"/>
<path d="M2165 5002 c-22 -1 -71 -9 -110 -16 -38 -8 -108 -17 -155 -20 -47 -4
-105 -13 -130 -20 -25 -8 -72 -19 -105 -25 -38 -7 -87 -27 -137 -56 -43 -25
-86 -45 -95 -45 -10 0 -47 -16 -83 -35 -36 -19 -92 -48 -125 -65 -33 -17 -78
-41 -100 -55 -22 -13 -62 -36 -90 -51 -27 -15 -75 -43 -105 -63 -30 -20 -69
-43 -85 -51 -34 -17 -311 -290 -368 -362 -21 -26 -43 -62 -49 -80 -6 -18 -26
-51 -43 -73 -81 -101 -183 -357 -209 -521 -9 -56 -32 -148 -52 -205 -35 -102
-36 -108 -39 -279 -3 -195 15 -486 38 -600 9 -41 32 -110 51 -153 20 -43 36
-83 36 -88 0 -5 9 -29 20 -51 11 -23 20 -46 20 -51 0 -12 40 -98 87 -191 20
-37 54 -105 77 -150 58 -115 94 -162 256 -330 193 -202 319 -316 347 -316 5 0
22 -14 39 -31 16 -17 49 -42 74 -57 25 -14 54 -34 66 -44 11 -10 58 -31 105
-47 46 -17 127 -46 179 -65 92 -35 246 -73 459 -115 132 -27 264 -27 542 -1
256 24 379 52 504 114 50 24 105 47 122 51 18 4 35 11 39 16 3 5 20 16 37 24
18 8 39 19 47 24 8 6 53 28 100 50 47 21 117 64 155 95 39 30 114 85 167 121
105 71 256 208 291 265 11 19 46 63 76 97 61 69 99 134 231 398 70 141 95 203
115 285 14 58 30 125 36 150 27 106 30 149 31 405 1 240 -1 281 -20 370 -29
137 -61 272 -73 302 -5 14 -16 58 -24 98 -16 76 -27 106 -75 211 -16 33 -32
73 -36 89 -4 15 -28 55 -53 89 -25 33 -60 83 -76 109 -52 84 -136 197 -146
197 -12 0 -149 118 -225 194 -96 96 -173 158 -231 188 -29 14 -72 39 -95 55
-62 41 -373 193 -395 193 -11 0 -37 8 -59 19 -43 20 -159 50 -244 61 -269 38
-410 49 -515 42z m350 -137 c249 -30 543 -109 590 -159 13 -14 49 -37 80 -51
31 -13 91 -49 133 -78 42 -30 100 -67 127 -82 28 -16 68 -45 90 -65 22 -20 49
-43 61 -51 92 -61 308 -278 354 -356 19 -32 54 -84 77 -115 42 -55 105 -179
143 -283 22 -58 81 -300 104 -430 10 -49 21 -110 27 -135 10 -50 13 -210 6
-425 -4 -123 -9 -159 -46 -297 -40 -155 -54 -189 -168 -408 -95 -182 -116
-216 -192 -310 -42 -52 -84 -106 -92 -120 -9 -14 -34 -45 -56 -69 -36 -41 -40
-43 -61 -30 -20 12 -22 19 -17 61 12 83 -44 228 -86 228 -25 0 -34 -23 -21
-58 19 -49 23 -92 9 -92 -17 0 -148 125 -172 163 -18 28 -18 28 16 63 58 61
61 61 136 2 38 -29 85 -67 107 -85 37 -30 151 -83 181 -83 8 0 19 9 25 21 14
26 -5 50 -70 87 -25 14 -63 42 -85 61 -22 20 -64 51 -92 70 -51 32 -67 61 -43
76 13 8 13 45 1 45 -11 0 -93 -69 -133 -112 -14 -15 -35 -28 -46 -28 -11 0
-33 -3 -49 -6 -25 -5 -30 -2 -45 30 l-17 35 32 26 c34 28 87 93 87 107 0 12
-58 10 -83 -3 -12 -7 -34 -26 -48 -42 l-26 -31 -31 23 c-18 12 -32 26 -32 31
0 4 20 26 45 48 25 22 45 42 45 46 0 16 -67 3 -111 -21 l-49 -26 -35 33 -34
33 75 84 76 83 -31 0 c-41 0 -123 -42 -151 -77 l-22 -28 -39 45 c-22 25 -52
63 -68 85 -28 39 -77 82 -134 119 -28 17 -83 71 -296 291 l-106 110 295 5
c205 3 316 1 365 -7 39 -7 90 -12 114 -12 l44 -1 -7 -32 c-4 -18 -33 -67 -65
-108 -55 -71 -60 -75 -102 -78 -68 -5 -100 -44 -58 -70 74 -46 254 89 326 245
30 66 36 73 62 73 36 0 39 -10 47 -158 8 -132 17 -147 63 -102 36 36 36 36 16
129 -18 85 -11 133 17 129 14 -2 25 -17 34 -48 53 -170 65 -193 96 -188 34 5
61 49 49 80 -5 14 -13 58 -17 97 l-7 71 41 0 c64 0 67 -11 64 -247 -3 -185 -1
-203 15 -211 14 -8 186 -15 312 -14 13 0 40 16 62 38 57 56 45 62 -122 60 -78
0 -146 2 -152 6 -9 5 -11 162 -3 318 1 25 2 25 100 26 l99 1 34 37 c19 20 33
42 30 49 -2 8 -46 14 -134 17 -72 3 -134 8 -138 12 -22 22 -36 295 -17 325 5
8 47 11 143 10 133 -2 136 -1 177 26 23 15 42 32 42 37 0 8 -138 17 -173 11
-4 0 -55 3 -115 8 -104 10 -108 9 -149 -15 l-43 -25 0 -184 0 -185 -45 0 -45
0 6 73 c4 39 15 91 25 115 17 38 17 43 3 49 -22 8 -88 -13 -105 -34 -21 -26
-41 -90 -48 -153 -5 -46 -9 -55 -27 -58 -18 -3 -22 4 -29 50 -4 29 -8 74 -9
100 -2 54 -6 61 -41 61 -43 0 -47 -13 -37 -99 12 -102 8 -114 -33 -114 -27 0
-35 5 -46 33 -17 42 -147 177 -171 177 -23 0 -70 -24 -87 -43 -9 -12 -3 -24
39 -68 27 -30 50 -57 50 -60 0 -4 -24 -18 -52 -32 l-53 -26 -270 9 c-148 5
-295 10 -325 10 l-55 0 90 88 c315 305 376 365 430 426 33 37 68 68 79 69 10
1 27 -10 38 -25 18 -23 19 -32 10 -65 -5 -21 -18 -65 -26 -97 -20 -71 -16 -90
16 -81 39 12 55 34 81 108 33 95 38 129 27 168 -5 18 -8 35 -6 37 8 8 45 -9
81 -38 44 -35 71 -38 80 -10 9 29 -6 44 -81 79 -39 18 -64 36 -64 46 0 24 26
29 68 12 21 -8 58 -18 83 -22 36 -5 49 -3 71 14 20 16 40 21 90 21 58 0 66 3
75 23 17 38 63 87 122 130 79 58 142 118 135 128 -9 15 -93 10 -124 -6 -17 -9
-67 -49 -112 -90 -46 -41 -86 -75 -89 -75 -3 0 -18 19 -33 42 -24 37 -26 45
-15 63 34 53 83 164 88 199 6 40 14 47 66 63 23 7 30 14 30 35 0 14 3 30 8 34
15 15 6 24 -23 24 -18 0 -33 -6 -36 -15 -4 -8 -18 -15 -33 -15 -14 0 -31 -4
-37 -8 -26 -18 -102 -123 -133 -185 -19 -37 -38 -67 -43 -67 -6 0 -34 14 -64
32 -93 56 -94 105 -2 219 28 35 62 81 77 103 25 37 25 39 6 52 -11 8 -26 12
-33 9 -8 -3 -27 -5 -42 -5 -25 0 -36 -10 -74 -67 -24 -38 -67 -97 -96 -133
-77 -95 -79 -103 -41 -140 17 -18 65 -54 106 -81 41 -27 75 -51 75 -54 0 -11
-73 -85 -84 -85 -18 0 -62 51 -73 85 -8 24 -15 30 -39 30 -29 0 -29 -1 -28
-53 2 -46 7 -59 33 -86 32 -33 40 -56 20 -56 -7 0 -40 25 -74 55 -35 30 -70
55 -78 55 -36 0 -24 -25 45 -89 40 -38 70 -72 66 -76 -3 -3 -30 1 -59 9 -60
18 -103 20 -145 7 -16 -5 -55 -17 -86 -26 -36 -9 -58 -21 -58 -30 0 -25 19
-27 86 -10 55 14 75 14 115 5 54 -13 61 -28 25 -50 -13 -8 -71 -60 -129 -115
-58 -55 -115 -109 -126 -120 -12 -11 -86 -84 -164 -162 -78 -79 -145 -143
-149 -143 -7 0 -14 119 -10 165 13 128 15 306 5 395 -7 58 -12 120 -13 138 l0
32 83 0 c81 0 85 1 123 35 37 33 38 36 20 49 -14 12 -40 14 -123 9 l-104 -6 3
34 c3 34 3 34 58 37 48 3 60 8 93 40 57 55 51 66 -30 56 -130 -15 -128 -16
-131 39 -3 42 0 48 21 56 13 5 42 5 68 0 24 -4 52 -8 63 -9 24 0 92 68 79 81
-12 12 -127 16 -175 6 -32 -7 -37 -5 -43 13 -12 37 2 41 150 39 139 -1 146 0
195 27 l50 27 -5 66 c-3 36 -10 109 -16 162 -5 52 -7 103 -3 112 10 28 -24 32
-73 7 l-46 -23 7 -121 c4 -66 8 -123 8 -126 0 -3 0 -17 -1 -31 l-1 -25 -122 2
c-68 1 -127 2 -132 3 -4 0 -6 93 -5 206 3 148 1 205 -7 205 -21 0 -81 -29 -95
-46 -10 -13 -15 -57 -17 -172 l-4 -154 -41 7 c-60 11 -92 7 -140 -15 -75 -34
-70 -43 -83 143 -6 93 -16 173 -22 179 -6 6 -27 1 -61 -17 -50 -25 -52 -27
-45 -58 3 -17 7 -106 8 -197 2 -140 4 -165 18 -168 8 -2 51 13 96 33 44 19 85
35 92 35 6 0 49 -12 96 -27 82 -27 84 -28 84 -60 0 -17 -4 -34 -9 -37 -4 -3
-36 -1 -70 5 l-63 11 -34 -33 c-59 -57 -36 -75 94 -78 l63 -1 -3 -42 -3 -43
-52 0 c-41 0 -57 -5 -78 -25 -31 -29 -49 -59 -41 -67 7 -7 134 -4 159 3 12 4
20 -2 26 -18 13 -36 3 -51 -33 -44 -51 9 -88 -7 -124 -54 -42 -55 -32 -68 39
-52 59 14 116 16 123 4 9 -15 10 -400 1 -564 l-8 -157 -89 75 c-48 42 -109
100 -134 129 -26 30 -59 59 -75 65 -36 16 -93 85 -120 147 -21 50 -74 113 -95
113 -7 0 -36 30 -65 68 -88 112 -120 142 -145 136 -18 -5 -36 9 -93 67 -39 40
-71 79 -71 86 0 7 28 35 63 62 165 132 165 133 113 215 -20 31 -48 66 -63 78
-16 12 -56 51 -90 85 -34 35 -68 63 -76 63 -7 0 -23 -9 -35 -20 l-21 -20 21
-35 c11 -20 18 -38 15 -41 -2 -3 -28 -2 -56 2 -39 5 -51 11 -51 24 0 10 -7 23
-15 30 -15 13 -16 12 -27 -29 -2 -8 -26 -20 -54 -27 -42 -10 -51 -10 -66 3
-15 13 -18 12 -33 -11 -14 -21 -15 -29 -5 -41 10 -12 8 -24 -6 -60 -11 -25
-24 -45 -30 -45 -6 0 -17 -7 -24 -15 -11 -13 -9 -19 8 -36 14 -12 22 -32 22
-53 0 -38 6 -47 26 -39 8 3 14 19 14 38 0 19 3 36 8 38 4 3 34 1 67 -5 42 -6
68 -17 87 -35 l27 -26 -64 -64 c-36 -35 -65 -71 -65 -79 0 -21 37 -17 53 6 7
10 35 38 61 62 l49 42 23 -28 c13 -15 24 -31 24 -36 0 -4 -19 -19 -42 -33 -24
-14 -56 -39 -72 -56 -17 -17 -40 -31 -52 -31 -26 0 -91 65 -154 153 -44 61
-55 67 -76 40 -29 -39 -17 -67 67 -158 78 -84 80 -88 74 -124 -6 -37 11 -71
35 -71 11 0 56 54 82 99 15 27 41 47 100 78 75 40 80 41 97 25 9 -9 53 -48 96
-87 43 -38 90 -80 103 -92 48 -44 132 -158 132 -179 0 -11 10 -29 22 -40 11
-10 35 -49 52 -85 27 -58 45 -78 146 -164 144 -123 250 -226 250 -242 0 -16
-52 -16 -220 -1 -69 6 -183 11 -253 12 -96 1 -130 4 -136 15 -7 11 -35 12
-142 6 -102 -5 -157 -3 -231 9 -54 9 -136 16 -183 16 l-85 0 -2 58 c-3 93 3
173 18 245 22 107 22 107 -35 107 -27 0 -66 -7 -86 -16 -30 -12 -47 -14 -79
-5 -23 5 -71 12 -107 15 l-67 5 -41 -40 c-23 -22 -41 -44 -41 -48 0 -15 235
-22 282 -10 62 17 82 8 73 -33 -14 -63 -18 -66 -110 -73 -46 -4 -110 -4 -140
0 -53 6 -57 5 -85 -25 -17 -18 -30 -36 -30 -41 0 -5 17 -16 37 -25 31 -13 58
-14 147 -9 61 4 120 11 133 16 23 8 23 7 23 -56 0 -35 -5 -67 -11 -71 -20 -12
-168 -18 -282 -10 -64 4 -68 3 -92 -26 -27 -32 -32 -48 -14 -48 6 0 34 -12 63
-27 63 -32 155 -36 261 -11 66 16 71 16 83 0 7 -9 12 -33 10 -52 l-3 -35 -75
-8 c-41 -4 -115 -11 -165 -15 l-89 -7 -23 -40 c-38 -67 -36 -69 75 -60 53 4
135 9 182 9 l85 1 3 -39 c2 -22 1 -50 -3 -63 -5 -23 -10 -24 -73 -24 -37 1
-109 0 -160 -1 -100 -3 -103 -5 -138 -70 -14 -27 -14 -27 36 -41 44 -13 56
-13 101 0 38 11 60 13 90 5 29 -7 53 -6 92 4 29 8 64 14 79 14 20 0 36 11 63
46 40 53 41 59 19 104 -15 28 -15 43 -5 114 6 44 11 102 11 129 l0 47 63 0
c34 0 103 -7 152 -15 50 -8 146 -15 215 -15 82 0 130 -4 138 -12 8 -8 88 -12
259 -14 257 -2 453 -12 453 -23 0 -3 -79 -85 -177 -181 -220 -216 -300 -300
-392 -412 -40 -49 -76 -88 -81 -88 -20 0 -33 83 -21 134 6 27 9 51 6 54 -3 3
-23 -1 -45 -8 -82 -27 -116 -140 -70 -230 25 -49 25 -57 -1 -70 -18 -10 -28
-6 -69 29 -42 36 -52 40 -74 31 -33 -12 -33 -30 0 -61 14 -13 35 -36 46 -52
20 -27 20 -27 -2 -62 -12 -19 -25 -35 -28 -35 -4 0 -45 36 -90 80 -46 43 -93
82 -103 85 -34 11 -75 -5 -137 -53 -66 -52 -192 -200 -192 -226 0 -52 72 -9
110 65 19 35 134 149 152 149 5 0 23 -22 40 -50 17 -27 34 -50 38 -50 4 0 28
-25 54 -56 36 -44 44 -60 35 -70 -6 -8 -17 -14 -24 -14 -14 0 -92 88 -113 126
-14 27 -50 32 -59 8 -8 -20 19 -71 75 -143 48 -62 41 -79 -13 -32 -58 51 -116
53 -123 4 -2 -14 13 -35 49 -67 l52 -47 -24 -26 -24 -26 56 7 56 7 37 -50 c39
-55 50 -60 78 -34 26 23 22 45 -12 78 -17 16 -30 35 -30 42 0 21 34 -1 87 -54
44 -43 45 -44 69 -28 51 33 44 52 -44 117 -43 32 -51 42 -41 54 6 8 17 14 23
14 13 0 156 -173 156 -188 0 -4 -23 -35 -51 -67 -89 -105 -129 -195 -88 -195
7 0 30 12 53 26 30 19 49 43 70 85 15 32 48 83 72 114 57 75 62 91 32 123 -13
15 -29 38 -35 52 -6 14 -35 51 -63 83 -53 58 -53 58 -41 98 6 21 15 39 19 39
12 0 54 -31 105 -77 26 -25 53 -43 59 -41 7 3 21 16 31 30 29 39 15 73 -55
139 -60 55 -68 79 -28 79 10 0 22 -5 26 -11 9 -15 129 -5 176 14 35 15 158
122 158 138 0 17 -42 9 -86 -17 -24 -14 -44 -30 -44 -34 0 -13 -66 -23 -97
-15 l-28 7 56 51 c31 29 72 72 91 97 76 97 524 537 536 526 20 -21 38 -1195
18 -1208 -6 -4 -55 -8 -109 -8 l-99 0 7 29 c6 27 5 28 -32 27 -34 -1 -38 -4
-41 -29 -4 -34 -33 -47 -107 -47 -49 0 -56 -3 -92 -41 -34 -36 -38 -46 -38
-92 0 -49 -1 -52 -24 -49 -32 3 -66 -20 -85 -59 -24 -48 -21 -63 12 -55 15 4
45 9 66 13 l39 6 -6 -33 c-4 -18 -7 -46 -7 -62 0 -25 -3 -28 -26 -26 -21 2
-35 -7 -67 -45 -28 -33 -37 -51 -30 -58 14 -14 275 -14 302 0 24 13 55 67 46
81 -3 6 -28 10 -55 10 -44 0 -50 3 -56 23 -3 13 -4 41 -2 63 2 30 8 40 23 42
11 2 34 18 50 37 38 42 75 55 75 27 0 -21 23 -46 33 -35 4 3 7 19 7 34 0 22 6
30 25 35 28 7 24 24 -6 24 -12 0 -19 7 -19 19 0 21 19 31 61 31 30 0 41 23 17
33 -7 3 3 6 23 6 20 1 58 4 84 8 l47 6 -7 -64 c-11 -104 -10 -102 -66 -95 -34
5 -57 2 -77 -8 -53 -28 -55 -35 -41 -152 7 -58 19 -113 26 -122 12 -15 16 -14
43 16 31 33 37 60 21 90 -4 9 -11 34 -15 55 l-7 38 58 -3 58 -3 3 -42 c3 -37
0 -43 -16 -43 -10 0 -27 -9 -36 -19 -17 -19 -17 -20 3 -30 11 -6 26 -11 34
-11 14 0 27 -20 27 -41 0 -5 -13 -9 -29 -9 -32 0 -56 -22 -47 -45 3 -8 16 -15
28 -15 32 0 44 -10 52 -42 11 -47 56 -29 56 23 0 23 5 28 36 33 29 6 35 11 32
29 -2 18 -9 22 -35 21 -24 -2 -34 3 -39 18 -10 31 12 43 76 42 41 -1 61 3 64
13 11 28 -6 42 -52 45 -46 3 -47 4 -50 39 l-3 36 56 13 c71 17 75 13 75 -97 0
-114 14 -138 54 -94 14 15 16 38 14 147 l-3 129 -40 0 c-141 2 -163 5 -168 24
-8 31 5 120 18 125 17 6 212 -11 227 -20 7 -5 4 -10 -10 -15 -31 -12 -27 -28
8 -36 30 -5 30 -6 9 -17 -29 -14 -30 -30 -2 -34 12 -2 25 -12 28 -23 10 -29
45 -25 45 6 0 21 5 25 28 25 16 0 37 7 48 15 18 13 15 14 -29 15 -34 0 -47 4
-45 13 3 6 14 13 26 15 33 5 26 22 -8 22 -16 0 -30 5 -30 10 0 12 127 14 134
2 3 -5 3 -25 -1 -45 -4 -28 -12 -38 -33 -45 -33 -12 -100 -70 -100 -87 0 -22
32 -26 77 -9 24 9 45 15 47 13 3 -2 6 -27 8 -54 3 -48 2 -50 -23 -47 -30 3
-64 -29 -56 -52 4 -9 26 -18 57 -22 46 -6 51 -9 58 -38 11 -41 51 -44 69 -5
11 23 20 27 79 32 73 7 96 20 92 51 -3 19 -11 21 -69 24 l-67 3 -11 44 c-16
62 -15 63 27 70 63 11 73 16 84 41 17 37 -4 54 -68 54 l-54 0 0 43 c0 23 4 57
9 74 8 26 6 37 -7 52 -15 18 -23 19 -77 10 -32 -6 -80 -9 -105 -7 l-45 3 3 43
c3 34 0 42 -13 42 -25 0 -78 -29 -100 -55 -19 -22 -25 -23 -118 -18 l-99 6 4
428 c3 282 1 454 -7 501 -11 79 -8 268 5 268 5 0 86 -83 180 -185 97 -104 200
-205 237 -231 92 -66 128 -99 180 -167 l46 -60 -39 -35 c-21 -19 -56 -46 -77
-60 -40 -27 -44 -45 -9 -50 26 -4 67 17 121 62 24 20 47 36 52 36 6 0 28 -17
51 -39 l41 -38 -79 -56 c-96 -67 -126 -95 -121 -110 9 -27 41 -16 95 30 31 28
76 62 100 78 l43 28 32 -31 31 -32 -27 -28 c-15 -15 -27 -32 -27 -38 0 -5 -16
-33 -35 -61 -47 -70 -46 -87 1 -80 43 7 62 23 100 83 15 24 31 44 34 44 3 0
19 -14 35 -30 28 -29 29 -32 15 -58 -9 -14 -41 -46 -72 -70 -91 -68 -124 -132
-69 -132 37 0 156 -182 185 -285 14 -46 34 -52 54 -15 9 18 11 50 6 119 -6
100 -19 129 -86 209 -37 43 -36 78 4 119 18 18 36 33 41 33 22 0 227 -188 227
-208 0 -21 -59 -4 -100 29 -35 30 -64 37 -75 19 -9 -14 84 -98 124 -111 19 -6
60 -9 93 -6 50 4 60 3 69 -14 13 -24 6 -35 -34 -55 -53 -27 -144 -92 -220
-156 -40 -33 -79 -63 -87 -66 -8 -3 -35 -18 -60 -32 -25 -14 -65 -34 -90 -44
-25 -10 -52 -23 -60 -30 -8 -7 -24 -16 -35 -19 -39 -11 -131 -53 -196 -90 -60
-34 -77 -38 -200 -52 -74 -8 -232 -20 -352 -27 -226 -12 -286 -8 -412 27 -27
7 -90 21 -140 30 -49 10 -121 28 -160 42 -38 14 -115 41 -170 60 -55 19 -110
40 -122 48 -12 8 -52 31 -90 51 -37 20 -86 53 -108 74 -22 21 -53 42 -68 46
-46 11 -418 404 -485 511 -120 194 -267 508 -317 683 -36 122 -49 263 -49 545
-1 242 1 285 16 315 21 44 44 130 54 195 9 68 33 139 88 268 72 170 134 277
195 338 14 14 71 74 126 134 153 166 184 196 270 256 83 58 238 146 385 219
47 23 92 48 100 55 8 7 40 22 70 33 30 11 79 36 109 56 29 20 65 39 80 43 14
3 35 12 46 19 26 18 45 18 67 -3 23 -20 37 -20 228 9 175 26 281 27 485 3z
m-1267 -656 c43 -48 82 -114 82 -138 0 -21 -115 -136 -128 -127 -5 3 -15 20
-23 38 -12 28 -11 33 6 42 40 24 95 79 95 97 0 28 -25 23 -91 -17 -33 -19 -66
-34 -75 -32 -28 5 -53 51 -56 103 l-3 50 68 3 c37 2 67 7 67 12 0 20 21 9 58
-31z m-238 -10 c0 -11 -4 -19 -8 -19 -13 0 -43 36 -36 42 11 12 44 -5 44 -23z
m-60 -91 c0 -13 -47 -9 -58 5 -6 7 -6 21 0 37 l9 24 24 -29 c13 -17 24 -33 25
-37z m2357 -381 l23 -37 -25 0 c-33 0 -95 26 -95 39 0 12 51 41 64 37 5 -1 20
-19 33 -39z m-1332 -2332 c-16 -7 -34 -11 -39 -8 -13 8 16 23 44 22 24 -1 24
-1 -5 -14z m-95 -10 c-3 -5 -18 -10 -35 -10 -46 0 -40 -29 8 -33 46 -4 51 -30
7 -38 -16 -4 -30 -10 -30 -15 0 -5 -16 -9 -35 -9 -34 0 -35 1 -35 38 0 60 26
82 95 79 17 -1 28 -6 25 -12z"/>
<path d="M2657 3562 c-48 -52 24 -101 74 -51 l21 21 -23 24 c-27 29 -50 31
-72 6z"/>
<path d="M2890 3427 c-21 -11 -25 -20 -25 -57 0 -38 3 -45 21 -48 11 -2 32 7
47 18 33 26 37 74 8 90 -24 12 -21 12 -51 -3z"/>
<path d="M243 1524 c-24 -30 -20 -54 9 -54 14 0 7 -12 -34 -53 -29 -29 -73
-76 -97 -105 l-44 -53 -22 21 c-30 28 -58 27 -50 -2 21 -71 59 -130 127 -200
97 -100 118 -103 178 -26 23 28 44 64 47 80 3 17 12 28 22 28 26 0 111 63 118
88 11 44 -19 104 -88 177 -37 39 -69 80 -73 91 -6 20 -32 33 -62 34 -5 0 -20
-12 -31 -26z m145 -157 c62 -63 55 -117 -14 -117 -24 0 -41 10 -73 45 -22 24
-41 48 -41 52 0 14 54 63 70 63 9 0 35 -19 58 -43z m-168 -77 c0 -5 20 -32 45
-60 25 -28 45 -60 45 -72 0 -54 -67 -75 -120 -38 -26 18 -70 78 -70 94 0 3 16
24 36 46 34 38 64 52 64 30z"/>
<path d="M4078 1238 c-21 -13 -45 -34 -54 -47 -21 -29 -29 -134 -15 -186 14
-51 62 -80 159 -96 66 -11 72 -10 113 12 37 21 45 31 56 74 19 75 17 119 -8
141 -20 18 -21 18 -35 -1 -11 -14 -13 -35 -8 -76 6 -54 5 -58 -20 -74 -22 -15
-31 -15 -76 -4 -35 9 -50 18 -50 30 0 9 32 52 72 94 57 61 70 80 62 93 -20 31
-60 52 -109 58 -41 4 -57 1 -87 -18z m92 -45 c14 -9 27 -18 28 -19 8 -6 -80
-114 -92 -114 -35 0 -35 87 -1 124 28 31 33 31 65 9z"/>
<path d="M533 1225 c-3 -9 3 -25 13 -36 17 -19 16 -21 -46 -84 -34 -35 -75
-85 -89 -112 -26 -48 -26 -48 -74 -45 -44 3 -47 2 -47 -21 0 -13 6 -29 13 -35
19 -16 138 -82 148 -82 17 0 9 35 -11 48 -11 7 -20 17 -20 22 0 5 24 38 53 72
29 35 72 88 94 119 23 31 54 66 70 78 l28 21 -40 35 c-42 37 -82 45 -92 20z"/>
<path d="M737 1084 c-4 -4 -7 -25 -7 -46 0 -34 3 -38 25 -38 32 0 63 44 48 69
-11 17 -54 27 -66 15z"/>
<path d="M3758 1056 c-38 -35 -47 -59 -28 -71 6 -4 22 1 37 10 21 14 27 15 34
4 14 -22 11 -26 -33 -51 -65 -36 -82 -66 -82 -146 -1 -49 4 -75 17 -95 27 -42
92 -79 145 -84 43 -4 52 -1 108 40 34 25 74 47 89 49 36 4 95 82 76 101 -9 9
-18 8 -42 -5 -29 -17 -30 -17 -53 10 -60 68 -152 193 -182 247 -17 31 -46 28
-86 -9z m128 -194 c77 -87 89 -108 76 -137 -24 -53 -91 -45 -157 18 -41 39
-45 48 -45 90 0 37 5 49 26 66 15 12 32 21 38 21 6 0 34 -26 62 -58z"/>
<path d="M622 1013 c-29 -6 -24 -24 11 -41 24 -12 26 -16 15 -35 -6 -12 -35
-49 -65 -82 -50 -55 -56 -59 -93 -56 -35 2 -40 0 -40 -18 0 -15 13 -27 44 -41
23 -12 56 -34 71 -50 29 -31 68 -39 81 -18 4 6 -6 23 -24 39 -18 16 -32 32
-32 35 0 13 65 98 108 141 23 23 42 51 42 62 0 20 -60 72 -82 70 -7 -1 -23 -4
-36 -6z"/>
<path d="M757 913 c-15 -15 -5 -35 23 -44 36 -13 39 -37 10 -102 -25 -57 -39
-161 -27 -206 7 -29 11 -32 35 -26 30 7 75 35 176 112 54 42 72 50 87 43 19
-11 49 -4 49 11 0 5 -12 16 -27 26 -16 9 -39 27 -53 39 -29 26 -75 40 -84 26
-3 -5 3 -21 14 -35 11 -14 20 -29 20 -34 -1 -8 -133 -103 -144 -103 -12 0 -6
77 10 129 14 49 17 52 41 47 28 -8 63 1 63 14 0 19 -68 71 -118 90 -58 22 -65
23 -75 13z"/>
<path d="M3486 730 c-21 -10 -45 -28 -52 -38 -7 -11 -26 -22 -41 -26 -15 -3
-46 -22 -67 -41 -37 -33 -39 -37 -23 -52 15 -16 18 -16 35 0 10 9 24 17 30 17
15 0 52 -59 52 -82 0 -9 15 -37 34 -61 l34 -45 -29 -21 c-16 -12 -29 -25 -29
-30 0 -26 37 -14 110 35 45 30 87 54 94 54 22 0 166 101 166 116 0 19 -28 30
-43 15 -22 -22 -38 -10 -91 73 -41 63 -62 86 -87 95 -43 15 -48 14 -93 -9z
m61 -67 c9 -16 37 -54 61 -86 39 -52 43 -62 33 -83 -6 -13 -17 -24 -26 -24 -8
0 -24 -5 -34 -12 -27 -16 -43 -1 -91 86 -41 73 -43 94 -12 129 22 25 49 21 69
-10z"/>
<path d="M1265 720 c-9 -15 11 -37 40 -44 25 -6 34 -29 16 -40 -5 -3 -12 -18
-15 -32 -4 -15 -23 -59 -42 -98 -19 -39 -34 -78 -34 -87 0 -28 -26 -52 -65
-58 -21 -3 -40 -11 -42 -18 -7 -21 66 -66 118 -73 60 -8 76 0 58 28 -10 16
-10 26 3 53 9 19 27 59 41 91 27 60 56 80 84 57 27 -23 34 -58 23 -122 -13
-80 -36 -112 -81 -112 -28 0 -35 -4 -37 -23 -3 -18 1 -22 25 -22 15 -1 39 -7
53 -15 54 -31 117 -10 75 25 -20 17 -19 22 11 86 18 38 26 74 27 114 2 68 -13
90 -80 120 -51 22 -54 41 -18 94 14 20 25 39 25 41 0 3 -19 14 -42 25 -44 21
-132 27 -143 10z"/>
<path d="M3093 548 c-73 -24 -114 -188 -67 -269 30 -50 57 -61 146 -56 83 4
107 16 134 69 19 37 18 87 -2 95 -25 9 -69 -41 -69 -80 0 -30 -2 -32 -41 -35
-32 -2 -48 2 -69 21 -16 13 -25 28 -22 34 4 6 45 25 92 42 75 29 115 57 115
83 0 14 -63 79 -91 94 -32 16 -79 17 -126 2z m104 -49 c19 -12 33 -28 31 -36
-3 -14 -116 -62 -145 -63 -25 0 -14 57 16 89 34 37 52 38 98 10z"/>
<path d="M2852 519 c-13 -5 -28 -22 -34 -37 -8 -19 -25 -34 -55 -46 -59 -25
-81 -68 -80 -161 0 -47 5 -76 15 -87 13 -15 12 -23 -8 -72 -13 -30 -20 -61
-17 -69 3 -9 26 -16 64 -20 32 -4 83 -9 113 -13 54 -6 56 -5 120 43 64 49 65
50 62 94 -1 24 -9 49 -17 55 -22 17 -107 26 -141 15 -43 -14 -120 -20 -135
-10 -22 13 -7 18 71 25 61 6 78 12 97 32 13 14 23 38 23 54 0 34 -35 107 -55
115 -8 3 -15 12 -15 20 0 11 6 13 23 9 39 -13 49 -11 61 7 9 15 7 22 -13 38
-25 21 -44 23 -79 8z m-4 -139 c28 -27 28 -65 0 -84 -48 -34 -108 -11 -108 41
0 58 65 83 108 43z m96 -206 c26 -10 19 -51 -13 -74 -30 -20 -62 -26 -133 -22
-44 2 -61 33 -34 61 25 25 145 48 180 35z"/>
<path d="M1714 432 c-19 -12 -45 -72 -42 -95 2 -12 10 -23 18 -25 23 -4 60 35
60 63 0 20 5 25 25 25 14 0 25 -4 25 -9 0 -5 11 -12 25 -15 21 -5 25 -12 25
-42 l0 -35 -49 7 c-64 8 -115 -9 -146 -50 -30 -39 -31 -54 -8 -94 33 -57 88
-73 177 -52 33 7 44 5 63 -10 43 -34 80 -35 144 -5 57 28 90 69 74 94 -10 18
-21 13 -58 -24 -19 -19 -42 -35 -51 -35 -44 0 -106 55 -91 80 3 6 50 10 104
10 124 0 137 8 128 76 -5 36 -14 56 -35 75 -35 32 -110 45 -159 27 -23 -8 -36
-9 -41 -2 -20 29 -59 44 -117 44 -33 0 -65 -4 -71 -8z m340 -93 c28 -33 34
-64 12 -72 -7 -3 -40 0 -72 6 -57 12 -59 13 -57 42 5 61 74 75 117 24z m-263
-99 l49 0 -11 -27 c-17 -46 -55 -56 -109 -28 -44 23 -36 73 8 59 8 -2 36 -4
63 -4z"/>
<path d="M2283 381 c-50 -3 -95 -9 -98 -13 -14 -14 5 -38 30 -38 25 0 25 0 23
-77 -2 -43 1 -88 5 -100 7 -18 2 -24 -28 -39 -55 -26 -44 -49 22 -48 96 3 161
23 147 45 -3 5 -18 9 -35 9 l-29 0 0 74 c0 91 11 123 47 137 48 18 69 0 81
-73 23 -135 23 -138 -2 -138 -27 0 -46 -18 -46 -42 0 -15 10 -18 68 -20 87 -2
103 0 118 13 20 16 -1 49 -30 49 -23 0 -24 3 -31 106 -11 162 -24 170 -242
155z"/>
</g>
</svg>
