<?xml version="1.0" standalone="no"?>
<!DOCTYPE svg PUBLIC "-//W3C//DTD SVG 20010904//EN"
        "http://www.w3.org/TR/2001/REC-SVG-20010904/DTD/svg10.dtd">
<svg version="1.0" xmlns="http://www.w3.org/2000/svg"
     width="511.000000pt" height="511.000000pt" viewBox="55 55 400 400"
     preserveAspectRatio="xMidYMid meet">

    <g transform="translate(0.000000,511.000000) scale(0.100000,-0.100000)"
       fill="#000000" stroke="none">
        <path d="M2215 4495 c-113 -24 -340 -87 -365 -101 -14 -8 -57 -25 -96 -38 -40
-13 -103 -43 -140 -68 -38 -25 -101 -63 -140 -86 -112 -65 -287 -222 -391
-352 -129 -161 -261 -382 -313 -525 -34 -91 -95 -338 -110 -440 -11 -77 -10
-413 1 -443 5 -13 13 -58 19 -100 15 -127 39 -218 92 -356 66 -171 111 -264
175 -357 29 -42 53 -80 53 -84 0 -3 6 -13 13 -20 213 -236 316 -339 410 -409
40 -31 77 -56 81 -56 5 0 47 -25 94 -57 47 -31 126 -73 176 -95 50 -21 102
-44 116 -52 51 -28 188 -65 380 -105 84 -17 336 -30 404 -20 34 5 117 13 186
19 116 11 220 32 280 57 14 6 45 17 70 24 25 7 88 35 141 61 54 26 99 48 102
48 21 0 162 77 198 108 24 21 55 47 68 58 127 101 318 301 394 411 55 80 120
201 147 273 7 19 25 62 40 95 39 85 54 136 89 285 22 92 43 344 38 435 -12
179 -28 301 -51 380 -13 44 -29 107 -36 140 -7 33 -19 71 -26 85 -6 14 -29 63
-49 110 -20 47 -57 119 -81 161 -24 42 -44 79 -44 82 0 8 -159 228 -175 242
-6 6 -23 26 -37 46 -31 41 -179 188 -205 203 -26 13 -101 75 -143 116 -20 19
-61 48 -90 63 -30 15 -93 48 -140 72 -47 25 -89 45 -93 45 -5 0 -36 13 -70 28
-100 46 -222 80 -382 107 -127 21 -180 25 -340 24 -112 -1 -215 -7 -250 -14z
m550 -25 c207 -41 346 -78 405 -109 19 -10 46 -22 60 -26 119 -34 397 -218
558 -370 77 -73 163 -172 220 -253 17 -26 37 -48 42 -50 6 -2 10 -8 10 -14 0
-5 11 -24 24 -41 46 -62 157 -276 195 -377 36 -96 94 -326 104 -415 15 -127
14 -445 -1 -550 -17 -120 -61 -278 -105 -375 -13 -30 -41 -94 -62 -143 -21
-48 -52 -109 -69 -135 -16 -26 -35 -54 -41 -63 -53 -85 -101 -140 -230 -267
-195 -190 -252 -234 -395 -303 -36 -18 -101 -49 -145 -70 -146 -71 -321 -122
-480 -141 -55 -6 -192 -11 -305 -12 -164 0 -221 3 -285 18 -177 40 -307 77
-367 105 -96 44 -160 71 -169 71 -5 0 -54 29 -108 65 -55 36 -102 65 -106 65
-3 0 -38 24 -78 54 -148 111 -437 421 -437 469 0 6 -11 22 -24 36 -22 23 -45
61 -99 166 -15 28 -26 53 -77 170 -21 49 -47 134 -75 246 -31 122 -45 264 -45
449 0 181 5 233 36 370 8 36 19 88 25 115 19 93 75 237 123 320 16 28 54 93
84 145 30 52 58 97 61 100 4 3 41 50 84 105 107 140 286 299 417 372 36 20 85
50 110 68 46 32 80 48 185 85 33 12 64 25 70 30 6 5 67 23 135 40 69 17 143
36 165 42 22 5 63 14 90 18 70 12 427 5 500 -10z"/>
        <path d="M2330 4304 c-177 -15 -376 -73 -555 -159 -465 -225 -783 -638 -897
-1165 -19 -91 -22 -134 -22 -330 0 -240 8 -296 68 -505 28 -94 100 -262 145
-334 17 -28 31 -54 31 -57 0 -6 9 -18 106 -149 106 -144 271 -298 434 -404
104 -69 320 -171 425 -201 450 -130 860 -98 1260 97 111 54 259 153 263 176 6
30 -34 19 -101 -28 -85 -59 -256 -148 -347 -179 -196 -69 -353 -96 -554 -96
-368 0 -713 114 -1016 335 -78 57 -293 272 -335 335 -16 25 -32 47 -35 50 -13
13 -63 93 -104 168 -105 193 -165 392 -193 639 -14 127 -15 165 -4 277 22 233
64 391 156 583 104 218 258 414 440 559 82 65 123 94 133 94 5 0 14 6 20 13
11 12 172 96 252 130 55 24 165 56 275 80 86 19 130 22 320 21 192 0 233 -3
320 -22 259 -59 451 -146 666 -304 71 -51 84 -56 92 -34 7 17 -32 53 -118 111
-33 22 -62 42 -65 45 -3 3 -15 10 -27 17 -300 167 -521 231 -823 237 -91 2
-185 2 -210 0z"/>
        <path d="M1816 3755 c-8 -23 1 -35 28 -35 40 0 56 -54 56 -190 0 -119 -9 -167
-32 -174 -45 -14 -51 -17 -42 -26 5 -5 93 -11 194 -13 102 -2 194 -7 206 -11
25 -9 44 26 51 95 5 53 -15 81 -42 59 -8 -7 -15 -18 -15 -24 -1 -37 -80 -86
-142 -89 -56 -3 -82 32 -83 110 0 71 18 87 67 58 18 -10 38 -25 44 -33 16 -21
36 -5 28 21 -4 12 -6 53 -5 90 1 53 -1 68 -11 65 -7 -2 -17 -18 -22 -35 -9
-30 -40 -53 -71 -53 -21 0 -35 33 -35 79 0 50 26 71 91 71 54 0 84 -20 130
-86 16 -24 34 -42 39 -39 12 8 0 137 -14 152 -7 8 -75 14 -212 18 -182 6 -202
5 -208 -10z"/>
        <path d="M2338 3753 c-32 -5 -36 -26 -9 -45 29 -21 41 -82 41 -219 0 -123 -1
-126 -26 -148 -36 -31 -20 -43 55 -44 75 0 90 11 66 47 -13 20 -20 62 -27 169
-5 78 -6 159 -3 181 9 61 -10 72 -97 59z"/>
        <path d="M2555 3599 c-24 -30 -27 -39 -21 -83 6 -58 27 -81 82 -91 55 -9 108
-37 112 -58 2 -11 -10 -30 -30 -47 l-33 -30 32 0 c64 0 97 85 67 170 -15 43
-16 54 -4 90 16 49 10 56 -50 64 -25 3 -63 8 -86 12 -37 5 -43 3 -69 -27z
m132 -51 c26 -36 22 -48 -14 -48 -27 0 -93 36 -93 50 0 14 32 29 60 30 17 0
32 -11 47 -32z"/>
        <path d="M2874 3572 c-47 -45 -72 -109 -55 -140 6 -11 11 -29 11 -40 0 -10 13
-37 29 -59 23 -32 38 -42 68 -46 21 -3 50 -8 65 -12 20 -5 35 -1 58 15 39 28
66 78 50 94 -8 8 -20 1 -45 -27 -44 -49 -92 -60 -124 -26 -23 25 -29 83 -9 95
9 6 81 12 171 14 4 0 7 21 7 47 0 41 -4 50 -42 85 -37 34 -47 38 -93 38 -47 0
-57 -4 -91 -38z m130 -21 c10 -11 16 -30 14 -43 -3 -20 -9 -23 -55 -26 -53 -3
-53 -3 -53 27 0 56 58 82 94 42z"/>
        <path d="M3172 3581 c-28 -38 -30 -106 -3 -138 11 -13 25 -23 33 -23 20 0 117
-37 134 -51 20 -17 18 -26 -17 -60 -24 -24 -29 -33 -18 -39 17 -11 42 3 69 37
19 24 21 36 16 88 -7 70 -9 118 -4 160 3 29 1 30 -47 38 -134 21 -138 21 -163
-12z m138 -51 c24 -34 19 -50 -15 -50 -24 0 -95 36 -95 49 0 16 26 31 56 31
25 0 38 -7 54 -30z"/>
        <path d="M2542 3365 l3 -50 38 -3 c35 -3 37 -1 28 15 -5 10 -23 34 -40 53
l-31 35 2 -50z"/>
        <path d="M3158 3356 c-6 -52 9 -70 49 -59 l32 8 -38 44 -38 45 -5 -38z"/>
        <path d="M1486 3109 c-51 -12 -140 -79 -153 -116 -38 -104 -42 -152 -19 -206
16 -38 103 -122 137 -131 13 -4 34 -12 47 -19 17 -8 32 -8 60 3 66 23 66 55
-1 45 -97 -15 -137 40 -137 185 0 142 31 190 122 190 45 0 49 -2 94 -57 25
-32 50 -59 55 -61 17 -7 30 104 16 136 -12 25 -17 26 -52 10 -21 -10 -32 -8
-64 10 -42 24 -47 24 -105 11z"/>
        <path d="M2147 3073 c-15 -14 -6 -41 18 -57 24 -16 25 -17 27 -189 l3 -172 53
-3 c28 -2 52 1 52 6 0 5 -7 27 -16 48 -13 31 -15 57 -10 124 4 47 7 90 7 95 2
23 -24 131 -33 143 -11 12 -90 17 -101 5z"/>
        <path d="M1868 2943 c-42 -23 -48 -30 -48 -59 0 -29 20 -54 44 -54 13 0 36 34
36 56 0 17 7 25 26 30 30 8 48 -8 58 -48 7 -29 -14 -58 -41 -58 -18 0 -83 -30
-99 -45 -39 -37 -44 -97 -12 -119 30 -21 64 -20 116 4 43 19 44 19 81 0 50
-25 75 -17 97 31 14 32 15 42 4 52 -9 8 -14 9 -17 1 -2 -6 -10 -19 -17 -29
-25 -34 -36 -7 -36 87 0 106 -15 140 -72 163 -52 20 -65 19 -120 -12z m116
-179 c11 -28 -5 -62 -35 -74 -51 -21 -77 20 -43 68 18 26 69 30 78 6z"/>
        <path d="M2355 2949 c-4 -5 0 -18 8 -27 49 -55 64 -188 26 -236 -11 -14 -27
-26 -34 -26 -19 0 -29 -20 -17 -32 31 -31 113 31 137 103 16 49 16 52 -6 121
-18 55 -30 75 -54 90 -34 20 -51 23 -60 7z"/>
        <path d="M2315 2940 c-3 -5 -1 -10 4 -10 6 0 11 5 11 10 0 6 -2 10 -4 10 -3 0
-8 -4 -11 -10z"/>
        <path d="M1590 2860 c-13 -8 -11 -12 8 -30 18 -17 22 -31 22 -85 0 -64 0 -65
28 -66 65 -3 72 5 72 79 0 51 1 54 36 68 58 24 37 39 -62 42 -49 1 -96 -2
-104 -8z"/>
        <path d="M3535 2670 c-7 -11 4 -660 11 -672 3 -4 12 -8 20 -8 12 0 14 51 14
345 0 335 -1 345 -19 345 -11 0 -22 -4 -26 -10z"/>
        <path d="M2525 2150 c-10 -11 -13 -20 -7 -20 21 0 62 20 62 30 0 17 -36 11
-55 -10z"/>
        <path d="M1845 2116 c-35 -35 -36 -112 -1 -145 43 -40 126 -21 126 30 0 29
-19 32 -30 5 -9 -25 -19 -30 -50 -26 -40 4 -55 83 -22 113 30 27 59 21 71 -14
12 -35 31 -30 31 9 0 38 -10 47 -57 50 -34 3 -47 -1 -68 -22z"/>
        <path d="M2071 2063 c-13 -38 -32 -75 -42 -85 -28 -24 -24 -28 26 -28 25 0 45
5 45 10 0 6 -7 10 -16 10 -11 0 -14 5 -10 16 3 9 6 18 6 20 0 2 13 4 29 4 35
0 49 -27 24 -46 -16 -12 -15 -13 12 -14 17 0 40 -3 53 -6 16 -5 22 -2 22 10 0
9 -7 16 -15 16 -9 0 -19 10 -24 23 -5 12 -20 48 -32 80 -31 78 -49 76 -78 -10z
m53 -8 c3 -9 0 -15 -9 -15 -8 0 -15 7 -15 15 0 8 4 15 9 15 5 0 11 -7 15 -15z"/>
        <path d="M2257 2123 c-4 -3 3 -13 14 -21 18 -13 21 -22 17 -70 -4 -38 -10 -57
-23 -64 -24 -14 -2 -28 48 -28 26 0 37 4 37 15 0 8 -7 15 -15 15 -9 0 -15 9
-15 24 0 32 20 44 27 17 10 -38 23 -22 23 29 0 28 -4 50 -10 50 -5 0 -10 -9
-10 -20 0 -12 -7 -20 -16 -20 -10 0 -14 7 -12 23 4 32 55 37 60 6 2 -12 8 -24
14 -26 15 -5 23 28 13 55 -8 20 -15 22 -77 22 -38 0 -72 -3 -75 -7z"/>
        <path d="M2825 2117 c-13 -11 -16 -21 -11 -42 5 -21 2 -33 -15 -51 -45 -48 7
-111 71 -84 23 10 34 10 43 1 16 -16 57 -14 57 4 0 9 -9 15 -24 15 -29 0 -40
13 -31 39 4 14 14 18 38 17 28 -1 32 2 32 24 0 21 -5 26 -31 28 -26 3 -35 -2
-52 -30 -17 -27 -22 -30 -27 -16 -4 10 0 24 9 33 24 25 20 54 -10 65 -31 12
-27 13 -49 -3z m45 -32 c0 -8 -7 -15 -15 -15 -16 0 -20 12 -8 23 11 12 23 8
23 -8z m-4 -114 c-11 -17 -34 -13 -45 7 -16 30 8 47 32 23 11 -10 16 -24 13
-30z"/>
        <path d="M2460 2110 c0 -5 7 -10 15 -10 12 0 15 -14 15 -65 0 -49 -4 -67 -15
-71 -36 -14 -9 -24 65 -24 l80 0 0 41 c0 46 -23 51 -28 6 -2 -18 -9 -27 -22
-27 -33 0 -50 12 -50 35 0 31 20 43 27 16 3 -12 9 -21 13 -21 13 0 17 22 14
69 -3 43 10 47 18 6 5 -32 23 -19 26 20 l3 35 -80 0 c-47 0 -81 -4 -81 -10z
m96 -26 c-3 -9 -6 -20 -6 -25 0 -5 -7 -9 -15 -9 -15 0 -21 31 -8 43 13 14 35
7 29 -9z"/>
        <path d="M1435 1794 c-34 -35 -9 -66 90 -107 6 -3 3 -12 -7 -22 -24 -26 -68
-13 -68 20 0 16 -6 25 -15 25 -11 0 -15 -11 -15 -42 l0 -43 49 -2 c101 -4 128
91 32 112 -40 8 -56 28 -37 44 20 17 56 4 56 -20 0 -10 7 -19 15 -19 10 0 15
11 15 35 l0 35 -49 0 c-32 0 -55 -6 -66 -16z"/>
        <path d="M1622 1802 c-11 -7 -11 -10 2 -15 22 -9 23 -132 1 -141 -30 -11 -14
-26 29 -26 53 0 63 10 35 34 -28 24 -19 40 26 47 56 9 79 46 52 83 -15 20
-123 33 -145 18z m116 -49 c2 -15 -2 -23 -11 -23 -9 0 -22 -3 -31 -6 -13 -5
-16 1 -16 26 0 28 3 31 28 28 19 -2 28 -9 30 -25z"/>
        <path d="M1820 1790 c0 -5 7 -10 15 -10 12 0 15 -14 15 -65 0 -49 -4 -67 -15
-71 -30 -12 -14 -24 29 -24 47 0 69 14 36 23 -17 4 -20 14 -20 66 0 46 4 63
15 67 30 12 14 24 -30 24 -25 0 -45 -4 -45 -10z"/>
        <path d="M1960 1791 c0 -5 7 -11 15 -15 11 -4 15 -21 15 -66 0 -45 -4 -62 -15
-66 -36 -14 -9 -24 66 -24 l80 0 -3 38 c-3 41 -20 47 -28 10 -5 -18 -13 -23
-35 -23 l-30 0 0 64 c0 42 5 66 13 69 28 9 9 22 -33 22 -25 0 -45 -4 -45 -9z"/>
        <path d="M2170 1791 c0 -5 7 -11 15 -15 23 -8 21 -122 -2 -135 -29 -16 -8 -23
69 -25 l73 -1 3 38 c2 27 -1 37 -12 37 -8 0 -16 -10 -18 -22 -2 -18 -10 -23
-33 -23 -30 0 -30 0 -33 63 -2 49 0 64 13 68 30 12 14 24 -30 24 -25 0 -45 -4
-45 -9z"/>
        <path d="M2376 1792 c-3 -5 4 -16 15 -25 14 -13 19 -30 19 -71 0 -47 -3 -54
-22 -60 -47 -12 -2 -27 73 -24 l74 3 3 38 c2 28 0 37 -12 37 -10 0 -16 -9 -16
-25 0 -22 -4 -25 -34 -25 -21 0 -36 6 -40 15 -6 18 2 45 15 45 5 0 9 -7 9 -15
0 -8 7 -15 15 -15 11 0 15 11 15 39 0 44 -18 65 -27 32 -7 -29 -23 -26 -23 4
0 21 5 25 30 25 23 0 31 -5 36 -25 10 -39 26 -30 22 13 l-3 37 -72 3 c-39 2
-74 -1 -77 -6z"/>
        <path d="M2626 1785 c-34 -34 -5 -95 45 -95 9 0 23 -7 30 -16 11 -14 10 -18
-5 -29 -24 -18 -60 -4 -64 24 -6 39 -32 24 -32 -19 l0 -40 60 0 c48 0 61 4 70
19 24 46 6 78 -53 90 -23 5 -32 12 -32 26 0 30 49 28 53 -2 2 -13 10 -23 18
-23 11 0 14 10 12 37 -3 36 -5 38 -44 41 -28 2 -46 -2 -58 -13z"/>
        <path d="M2803 1794 c-15 -6 -18 -70 -4 -78 5 -3 11 8 15 24 7 37 33 40 42 5
10 -39 -5 -115 -22 -115 -8 0 -14 -4 -14 -10 0 -5 20 -10 45 -10 25 0 45 5 45
10 0 6 -4 10 -10 10 -6 0 -10 30 -10 71 0 52 3 70 13 67 6 -3 13 -17 15 -32 2
-15 9 -26 15 -23 14 4 22 56 10 67 -10 10 -124 21 -140 14z"/>
        <path d="M2995 1780 c-6 -10 1 -14 18 -11 4 0 7 -30 7 -68 0 -55 -3 -70 -16
-75 -28 -11 -11 -16 68 -22 l76 -6 4 36 c2 20 1 42 -3 48 -8 12 -9 11 -24 -37
-2 -9 -16 -15 -35 -15 -27 0 -30 3 -30 30 0 34 19 41 27 10 8 -32 23 -12 23
30 0 40 -14 61 -24 35 -8 -22 -26 -18 -26 6 0 17 5 20 33 17 24 -2 33 -8 35
-25 6 -39 23 -25 20 15 l-3 37 -72 2 c-40 2 -75 -2 -78 -7z"/>
        <path d="M3215 1780 c-5 -8 -1 -16 9 -22 22 -12 23 -123 1 -132 -35 -13 -11
-26 49 -26 49 0 69 5 90 21 24 19 27 27 24 72 -2 40 -8 54 -28 68 -32 23 -134
36 -145 19z m132 -49 c16 -21 16 -63 1 -84 -7 -9 -25 -19 -40 -23 l-28 -6 0
64 c0 36 3 68 7 71 10 10 46 -3 60 -22z"/>
    </g>
</svg>