<?xml version="1.0" standalone="no"?>
<!DOCTYPE svg PUBLIC "-//W3C//DTD SVG 20010904//EN"
 "http://www.w3.org/TR/2001/REC-SVG-20010904/DTD/svg10.dtd">
<svg version="1.0" xmlns="http://www.w3.org/2000/svg"
 width="2016.000000pt" height="2112.000000pt" viewBox="0 0 2016.000000 2112.000000"
 preserveAspectRatio="xMidYMid meet">

<g transform="translate(0.000000,2112.000000) scale(0.100000,-0.100000)"
fill="#FFF" stroke="none">
<path d="M9995 18569 c-536 -18 -999 -85 -1560 -225 -878 -220 -1732 -615
-2480 -1148 -410 -292 -595 -447 -926 -776 -255 -254 -343 -349 -521 -565
-394 -477 -689 -934 -970 -1505 -409 -831 -651 -1709 -744 -2695 -25 -261 -30
-931 -10 -1216 48 -685 209 -1452 436 -2082 64 -178 188 -489 243 -607 59
-128 277 -562 312 -620 217 -363 220 -368 453 -710 119 -173 253 -346 441
-565 104 -122 437 -480 474 -510 14 -11 84 -77 158 -146 221 -208 481 -424
704 -584 54 -38 132 -95 174 -126 327 -238 977 -600 1403 -782 699 -299 1472
-506 2183 -587 372 -42 597 -52 1025 -47 409 5 602 17 920 57 992 126 2055
498 2920 1023 671 407 1210 855 1721 1432 271 306 575 719 782 1062 415 686
721 1459 895 2268 95 439 124 643 159 1140 71 1011 -84 2129 -431 3118 -102
290 -195 513 -352 850 -163 349 -419 786 -658 1122 -324 456 -525 694 -906
1076 -255 255 -335 329 -588 542 -231 194 -613 470 -882 637 -389 242 -960
530 -1285 648 -519 190 -881 298 -1240 371 -627 127 -1182 172 -1850 150z
m865 -774 c409 -38 801 -105 1146 -195 146 -38 492 -141 537 -160 12 -5 85
-32 162 -61 531 -195 1081 -485 1575 -828 248 -173 463 -345 482 -387 27 -58
-22 -134 -86 -134 -33 0 -45 9 -283 194 -220 171 -582 409 -823 541 -415 227
-740 369 -1195 523 -363 122 -853 233 -1230 276 -414 48 -442 50 -860 50 -382
0 -427 -2 -650 -27 -392 -45 -534 -70 -965 -166 -218 -49 -694 -205 -881 -289
-24 -11 -100 -44 -169 -73 -110 -46 -356 -170 -580 -292 -368 -200 -841 -543
-1180 -855 -738 -680 -1295 -1487 -1682 -2437 -158 -388 -302 -894 -382 -1347
-55 -307 -105 -852 -105 -1128 0 -263 39 -816 69 -990 5 -30 21 -127 36 -215
52 -325 157 -739 270 -1067 343 -999 906 -1908 1639 -2644 257 -258 410 -396
675 -606 177 -140 500 -363 660 -457 41 -24 102 -59 135 -78 72 -42 445 -243
451 -243 2 0 28 -12 57 -26 447 -220 1147 -451 1657 -548 703 -133 1497 -160
2175 -75 331 41 469 68 785 148 552 141 959 294 1400 525 378 198 498 271 763
460 261 186 248 178 281 172 70 -14 102 -64 82 -126 -9 -27 -38 -54 -148 -135
-151 -110 -471 -318 -582 -378 -39 -22 -114 -63 -166 -92 -445 -251 -1154
-519 -1690 -639 -361 -81 -705 -136 -1060 -168 -181 -16 -813 -16 -1000 0
-793 70 -1423 212 -2095 472 -260 101 -365 147 -604 266 -380 189 -724 397
-1036 629 -522 386 -943 787 -1356 1290 -151 184 -446 599 -540 761 -243 417
-343 616 -522 1039 -199 471 -369 1079 -441 1580 -66 452 -86 712 -86 1105 0
852 134 1604 435 2435 203 561 546 1196 908 1680 226 302 382 481 672 771 495
497 1015 878 1659 1218 276 146 762 346 1066 439 602 186 1066 267 1765 311
133 8 699 -4 855 -19z m-2622 -2234 c45 -18 73 -21 193 -21 77 0 182 5 233 11
71 9 105 9 141 0 75 -19 226 -25 268 -12 30 10 46 10 89 -3 110 -33 124 -60
133 -261 4 -102 14 -190 26 -243 35 -147 6 -218 -75 -179 -27 12 -42 33 -76
102 -43 87 -84 144 -194 268 -104 118 -110 121 -266 129 -74 4 -158 10 -187
14 -38 4 -72 0 -125 -15 -155 -46 -161 -57 -166 -297 -3 -164 -2 -174 22 -227
13 -30 33 -60 44 -66 42 -23 118 -13 199 26 43 20 88 41 100 46 29 13 49 66
58 155 8 81 29 116 77 128 22 5 34 0 58 -24 27 -28 30 -37 30 -94 0 -35 -7
-94 -15 -133 -27 -123 -30 -214 -10 -296 33 -132 19 -229 -31 -229 -25 0 -94
54 -94 75 0 27 -43 65 -96 84 -30 12 -68 31 -84 43 -60 44 -192 40 -240 -7
-24 -25 -25 -31 -28 -176 -3 -138 -1 -157 23 -237 32 -106 88 -222 127 -259
29 -27 32 -28 165 -31 155 -4 189 2 308 58 46 22 95 42 108 45 55 14 183 178
240 306 48 110 92 124 165 55 l47 -45 3 -179 3 -180 -29 -59 c-16 -32 -35 -75
-41 -95 -13 -38 -82 -108 -108 -108 -7 0 -22 9 -33 20 -43 43 -105 50 -425 48
-165 0 -315 2 -333 6 -18 4 -73 2 -122 -4 -81 -10 -95 -10 -137 7 -63 24 -306
25 -368 1 -51 -19 -203 -7 -250 20 -39 23 -46 71 -14 101 22 20 97 41 149 41
81 0 109 43 121 188 5 59 17 155 25 213 14 93 15 146 5 440 -7 184 -17 357
-23 384 -18 87 -77 218 -110 249 -30 28 -33 28 -105 22 -70 -7 -74 -6 -98 20
-59 64 -34 148 55 181 43 16 80 18 332 17 264 -1 287 -3 336 -23z m1769 -37
c16 -12 38 -39 50 -61 21 -37 22 -46 14 -114 -19 -152 -20 -418 -2 -604 6 -71
11 -155 11 -185 -1 -30 -2 -138 -2 -240 0 -163 2 -192 21 -244 12 -34 21 -83
21 -117 0 -74 11 -103 63 -159 24 -25 49 -60 56 -78 13 -30 12 -36 -6 -60 -28
-38 -74 -44 -263 -38 -361 12 -380 17 -380 84 0 44 50 94 120 119 32 11 53 26
61 43 9 18 13 159 17 532 l4 507 -31 119 c-17 65 -31 137 -31 160 0 52 -40
100 -117 144 -59 33 -74 54 -80 110 -4 34 -2 39 22 48 14 5 57 10 94 10 47 0
88 8 137 25 86 31 178 31 221 -1z m893 -536 c30 -5 97 -26 149 -45 98 -36 144
-39 234 -15 52 14 85 3 121 -42 28 -34 31 -44 29 -100 -1 -43 -10 -79 -30
-121 -25 -54 -28 -70 -27 -165 0 -101 2 -109 41 -195 53 -118 70 -226 49 -311
-8 -33 -20 -90 -26 -128 -6 -37 -20 -88 -32 -112 -21 -46 -118 -139 -173 -167
-76 -39 -195 -29 -195 16 1 29 24 56 90 104 102 75 150 139 150 198 -1 35 -6
45 -43 76 -77 65 -92 71 -357 158 -52 17 -133 36 -180 43 -82 11 -86 13 -127
57 -24 25 -59 76 -78 113 -35 67 -36 70 -40 211 l-5 144 32 64 c43 85 167 211
223 226 42 11 104 8 195 -9z m2553 -58 c31 -6 93 -28 139 -50 119 -56 163 -65
217 -45 61 21 99 19 136 -9 49 -38 61 -75 45 -144 -7 -31 -24 -82 -37 -112
-20 -45 -25 -72 -25 -150 -1 -91 1 -99 40 -185 71 -157 72 -169 33 -389 -20
-118 -43 -173 -90 -222 -25 -27 -128 -107 -158 -122 -33 -18 -94 -14 -130 8
-58 35 -43 63 84 159 90 67 111 97 120 169 l5 48 -57 43 c-74 56 -183 106
-265 121 -36 7 -78 21 -95 30 -16 10 -70 23 -120 30 -129 16 -167 45 -246 185
-30 53 -35 72 -42 165 -11 149 -9 178 17 235 33 72 175 220 224 233 50 13 137
14 205 2z m-1144 -15 c57 -4 123 -12 146 -19 63 -19 204 -131 265 -210 81
-104 103 -168 104 -296 1 -89 -2 -110 -20 -140 -35 -60 -56 -66 -184 -52 -129
15 -481 -1 -537 -24 -52 -20 -67 -63 -65 -177 3 -117 19 -158 96 -244 l53 -58
120 -3 c107 -4 124 -2 162 17 59 31 172 145 207 211 30 55 81 100 116 100 11
0 33 -9 49 -21 46 -33 40 -68 -35 -193 -107 -177 -151 -220 -276 -266 -92 -34
-118 -34 -211 -1 -47 17 -123 35 -170 40 -187 21 -234 48 -328 186 -81 118
-112 188 -120 274 -5 46 -17 93 -31 121 -16 31 -24 68 -27 125 l-5 80 65 135
c81 170 113 213 228 311 69 59 105 83 143 94 59 16 103 23 131 19 11 -2 67 -6
124 -9z m-1734 -862 c14 -21 57 -87 96 -147 39 -60 93 -133 121 -162 28 -30
49 -57 46 -59 -3 -3 -69 -7 -146 -9 -105 -2 -146 0 -160 10 -11 7 -29 47 -42
90 -20 68 -22 91 -16 177 5 86 9 101 29 118 32 27 44 24 72 -18z m2542 -65
c17 -18 62 -80 101 -138 38 -58 92 -127 120 -155 28 -27 52 -56 54 -63 2 -10
-34 -13 -162 -14 l-165 -1 -14 39 c-16 47 -24 285 -10 332 6 20 16 32 27 32
10 0 32 -15 49 -32z m-6619 -1127 c32 -16 65 -37 73 -47 24 -29 130 -74 177
-74 48 0 147 31 205 63 l39 22 17 -24 c9 -12 32 -52 50 -87 32 -63 33 -68 26
-147 -4 -45 -11 -102 -17 -127 -5 -25 -13 -90 -18 -145 -9 -118 -27 -165 -66
-165 -42 0 -62 17 -80 72 -22 66 -130 205 -274 351 l-106 107 -151 0 -150 0
-74 -37 c-102 -51 -188 -137 -216 -218 -63 -183 -77 -307 -70 -595 9 -339 8
-333 82 -479 67 -134 112 -188 177 -216 57 -23 200 -30 343 -15 157 16 178 10
169 -54 -10 -73 -86 -123 -236 -158 -105 -24 -138 -19 -258 32 -36 15 -104 40
-153 55 -48 15 -107 40 -130 56 -24 16 -115 100 -203 186 -150 149 -162 164
-207 254 -71 144 -76 167 -84 324 -6 151 -2 171 64 325 17 38 63 215 63 241 0
62 186 249 349 351 206 131 179 120 386 153 92 14 133 19 193 23 12 1 49 -11
80 -27z m2741 -140 c21 -11 52 -36 69 -56 26 -29 32 -44 32 -83 0 -26 6 -67
14 -92 7 -25 17 -79 21 -120 4 -41 13 -86 20 -100 7 -14 15 -44 19 -67 3 -24
14 -58 22 -77 16 -32 16 -36 -4 -78 -14 -30 -22 -73 -27 -143 -3 -55 -13 -139
-21 -188 -19 -116 -19 -323 1 -379 8 -24 19 -68 26 -98 6 -30 33 -96 60 -147
52 -97 59 -132 33 -157 -24 -24 -97 -20 -154 9 -58 29 -74 31 -126 9 -22 -9
-60 -18 -86 -21 -78 -7 -75 -22 -88 482 -15 541 -15 611 -3 705 11 88 -6 250
-32 300 -20 39 -64 66 -120 74 -55 9 -77 34 -83 96 -8 87 38 130 152 140 149
14 234 11 275 -9z m-1141 -471 c31 -12 88 -27 126 -36 37 -8 82 -22 99 -32 42
-24 142 -180 168 -260 26 -85 43 -336 27 -400 -7 -29 -8 -78 -3 -145 5 -56 9
-125 9 -153 1 -30 9 -65 21 -87 16 -31 25 -37 52 -37 37 0 49 17 84 123 25 75
49 107 84 107 34 0 75 -53 75 -97 0 -33 -80 -234 -116 -290 -29 -46 -86 -60
-221 -55 -46 2 -58 7 -105 47 -56 48 -147 95 -182 95 -11 0 -43 -16 -70 -35
-101 -72 -351 -152 -435 -140 -59 9 -71 16 -158 87 -86 71 -98 96 -90 188 19
230 252 430 564 484 87 15 118 32 160 88 30 41 31 111 3 202 -43 138 -157 190
-284 130 -44 -21 -62 -59 -69 -146 -14 -159 -104 -230 -226 -177 -70 30 -81
54 -88 193 l-6 112 39 41 c24 25 78 60 143 93 57 28 121 63 141 76 23 16 61
28 101 33 95 13 95 13 157 -9z m1818 -56 c33 -25 80 -57 106 -70 64 -32 84
-57 99 -118 6 -28 36 -107 65 -176 117 -279 113 -452 -18 -699 -70 -132 -90
-155 -195 -216 -161 -96 -240 -116 -305 -78 -75 44 -76 118 -3 140 22 7 56 15
76 18 62 9 115 52 153 125 61 117 69 156 70 339 1 164 1 167 -32 256 -18 50
-42 121 -53 158 -27 96 -59 154 -114 209 -41 42 -46 52 -43 85 3 32 8 41 38
55 58 29 91 23 156 -28z m-268 -48 c-3 -25 -8 -31 -36 -37 -38 -8 -84 2 -89
18 -2 6 17 27 43 47 45 35 48 35 66 19 12 -11 18 -27 16 -47z m-2277 -308 c22
-16 42 -35 46 -43 20 -53 -47 -110 -138 -118 -65 -6 -106 -24 -144 -64 -26
-27 -27 -31 -32 -188 -8 -262 -9 -289 -11 -310 -1 -14 -19 -29 -57 -48 -49
-24 -62 -26 -137 -21 -46 3 -112 12 -147 21 l-63 16 6 91 c13 184 18 375 12
401 -4 14 -47 66 -97 114 -76 73 -90 92 -84 110 18 59 71 65 543 67 l263 1 40
-29z m7370 -748 c48 -26 46 25 59 -1437 8 -988 8 -1378 0 -1392 -29 -55 -121
-63 -158 -16 -19 23 -20 51 -26 487 -10 823 -21 1857 -21 2091 l0 229 30 24
c32 25 82 31 116 14z m-4093 -2112 c14 -12 16 -62 2 -88 -14 -26 -184 -92
-229 -88 -30 3 -36 7 -39 29 -3 22 6 32 55 64 32 21 80 54 108 72 49 33 72 35
103 11z m-2688 -157 c55 -17 65 -18 77 -5 21 21 60 17 77 -8 13 -18 16 -52 16
-165 0 -157 -2 -163 -68 -163 -42 0 -57 24 -58 90 -1 114 -78 174 -194 149
-65 -14 -110 -53 -141 -121 -20 -45 -23 -69 -23 -153 2 -192 71 -286 213 -288
98 -2 150 47 164 151 3 23 11 49 17 57 16 20 60 19 88 -1 46 -32 17 -174 -50
-246 -36 -37 -94 -65 -168 -78 -82 -15 -139 -7 -218 31 -110 54 -179 169 -189
320 -14 196 58 348 199 419 75 37 162 41 258 11z m822 -28 c17 -21 46 -90 122
-293 96 -257 127 -334 138 -348 8 -9 22 -12 40 -8 63 13 101 -29 78 -88 l-10
-28 -83 8 c-45 4 -124 6 -175 5 -103 -2 -122 5 -122 48 0 36 17 51 60 51 64 0
67 9 36 90 l-28 71 -117 -3 -116 -3 -18 -37 c-10 -20 -21 -53 -24 -72 l-6 -36
50 0 c27 0 58 -6 68 -14 22 -16 25 -74 5 -86 -8 -5 -90 -9 -183 -8 -179 0
-197 5 -197 50 0 35 29 58 71 58 36 0 39 3 62 53 14 28 32 75 40 102 25 85
167 458 183 482 12 19 24 23 63 23 33 0 52 -5 63 -17z m954 -3 l213 0 17 -31
c13 -26 15 -56 12 -156 -3 -109 -5 -126 -22 -139 -11 -8 -30 -11 -45 -8 -47
11 -55 28 -56 110 0 104 -12 114 -142 114 -132 0 -133 -1 -133 -110 l0 -90 55
0 55 0 0 58 c0 66 11 82 55 82 53 0 55 -8 55 -205 0 -191 -3 -205 -46 -205
-35 0 -54 26 -54 76 0 70 -12 84 -70 84 l-50 0 0 -100 c0 -122 11 -140 89
-140 55 0 64 -8 63 -52 -1 -55 -6 -57 -205 -51 -195 6 -217 12 -217 58 0 30
18 44 77 58 47 12 48 13 56 61 4 28 7 142 5 254 -3 229 -4 232 -79 232 -28 0
-42 6 -53 22 -20 29 -20 30 6 63 22 28 22 28 111 21 50 -3 186 -6 303 -6z
m2114 -1 c163 -35 182 -245 29 -331 -26 -16 -37 -28 -33 -38 9 -25 79 -130 86
-130 4 0 10 10 13 23 36 126 83 199 148 232 130 64 267 2 267 -121 0 -105
-120 -177 -207 -125 -81 50 -31 157 57 121 35 -14 50 -7 43 21 -7 27 -40 38
-78 28 -42 -12 -59 -34 -89 -114 -15 -38 -35 -89 -46 -113 -26 -56 -25 -66 10
-96 36 -30 88 -46 149 -46 50 0 81 -21 81 -55 0 -41 -23 -58 -86 -63 -74 -5
-124 8 -198 53 l-59 36 -26 -25 c-77 -73 -231 -80 -325 -15 -70 48 -111 167
-87 256 12 45 87 135 131 158 l27 14 -25 73 c-20 58 -24 83 -18 121 10 63 52
112 115 131 58 18 59 18 121 5z m-1322 -13 l254 -1 20 -25 c18 -22 19 -36 16
-157 -3 -146 -7 -156 -62 -151 -38 4 -44 17 -51 110 -9 113 -9 113 -156 113
l-123 0 -8 -35 c-4 -19 -5 -61 -1 -92 l6 -58 52 0 c60 0 65 6 65 75 0 54 22
79 59 70 14 -4 31 -11 37 -16 15 -12 6 -358 -9 -377 -6 -8 -25 -12 -46 -10
-36 3 -36 3 -39 53 -5 94 -5 95 -67 95 l-55 0 -2 -67 c-2 -97 1 -156 10 -165
4 -4 60 -10 124 -14 102 -6 120 -5 144 11 26 17 27 19 21 96 -4 69 -3 82 15
105 16 20 26 24 47 19 49 -12 51 -18 51 -168 0 -117 -3 -144 -17 -159 -15 -17
-38 -18 -317 -18 -326 0 -348 4 -354 51 -4 38 22 59 72 59 28 0 48 6 57 16 16
20 24 479 9 519 -8 21 -16 25 -51 25 -49 0 -79 22 -79 56 0 35 37 56 85 48 22
-4 154 -8 293 -8z m-4275 -1292 c37 -13 51 -13 62 -4 18 15 72 4 84 -18 5 -10
7 -72 4 -142 -6 -135 -12 -150 -62 -150 -46 0 -55 14 -62 95 -3 46 -12 82 -20
91 -21 20 -117 38 -163 30 -45 -9 -86 -49 -86 -85 0 -14 9 -40 19 -57 22 -36
64 -54 181 -79 160 -34 235 -109 235 -235 0 -58 -4 -72 -28 -104 -42 -54 -66
-75 -122 -103 -69 -36 -175 -36 -261 -1 l-60 25 -10 -21 c-12 -27 -65 -34 -88
-11 -13 14 -16 42 -16 174 0 109 4 161 12 169 7 7 28 12 48 12 50 0 60 -14 60
-85 0 -114 66 -170 191 -163 54 3 73 8 93 27 33 31 45 68 34 109 -11 43 -49
65 -146 86 -169 38 -222 69 -261 149 -26 54 -26 109 0 167 27 60 54 88 114
116 61 29 176 33 248 8z m872 -14 c158 -23 248 -135 217 -271 -17 -72 -50
-111 -123 -148 -59 -29 -68 -31 -181 -31 l-118 0 0 -83 c0 -105 13 -127 75
-127 49 0 75 -19 75 -55 0 -45 -29 -52 -219 -50 -168 1 -174 2 -192 24 -38 47
-12 81 62 81 45 0 49 2 56 28 5 15 8 133 8 263 0 270 0 269 -74 269 -51 0 -71
13 -71 45 0 48 24 54 206 58 93 1 178 3 189 5 11 1 51 -3 90 -8z m545 -16 c39
-4 89 -2 123 6 68 14 106 0 122 -44 8 -24 6 -31 -14 -47 -13 -11 -39 -19 -60
-19 -20 0 -42 -5 -49 -12 -16 -16 -17 -490 -2 -519 8 -14 21 -19 55 -19 49 0
75 -19 75 -55 0 -48 -26 -54 -213 -49 -183 5 -207 12 -207 59 0 32 19 45 65
45 75 0 73 -6 77 276 3 281 3 284 -61 284 -50 0 -74 19 -69 55 3 33 40 58 73
51 11 -3 49 -8 85 -12z m676 -6 c98 2 112 0 128 -17 10 -11 16 -31 14 -48 -3
-26 -6 -28 -53 -31 -27 -2 -55 -8 -62 -14 -10 -8 -13 -72 -13 -269 l0 -259 27
-11 c40 -15 224 -2 243 17 10 10 16 41 18 97 2 45 9 88 14 95 16 19 66 14 88
-8 18 -18 19 -29 13 -152 -4 -101 -10 -137 -22 -151 -14 -17 -33 -18 -321 -11
-326 7 -340 9 -340 59 0 32 19 45 66 45 49 0 74 19 75 58 4 142 -5 479 -13
489 -6 7 -29 13 -53 13 -52 0 -81 26 -71 65 9 34 40 46 101 37 28 -3 100 -5
161 -4z m1000 -29 c9 -10 14 -30 12 -46 -3 -26 -6 -28 -60 -33 -31 -3 -63 -11
-70 -18 -19 -19 -24 -490 -6 -514 11 -13 34 -17 123 -19 61 -1 115 -1 122 0
23 2 35 44 34 112 -1 57 2 72 19 89 26 26 64 26 91 -1 20 -20 20 -27 14 -152
-5 -96 -11 -137 -23 -149 -14 -16 -39 -17 -321 -13 -296 5 -307 6 -323 26 -39
46 -6 89 68 89 29 0 44 5 48 16 3 9 6 122 6 253 0 271 -2 281 -69 281 -53 0
-82 40 -55 78 13 19 24 20 194 19 158 0 182 -2 196 -18z m960 8 c157 -3 154 0
154 -177 0 -144 -2 -150 -47 -164 -17 -5 -29 0 -49 19 -24 24 -26 32 -22 91 4
60 2 66 -25 92 -26 25 -36 27 -125 31 -117 4 -122 0 -122 -106 0 -61 3 -74 19
-83 54 -28 84 -6 91 67 5 55 6 58 39 67 30 9 36 7 53 -14 17 -21 18 -39 16
-199 l-3 -176 -37 -3 c-45 -4 -68 24 -68 83 0 48 -14 65 -51 65 -57 0 -59 -4
-59 -113 0 -136 1 -137 142 -137 141 0 148 5 148 123 0 51 5 88 12 95 18 18
66 14 87 -7 17 -17 20 -34 19 -151 0 -106 -3 -134 -17 -151 -19 -24 9 -23
-340 -15 -307 6 -321 9 -321 62 0 29 14 37 75 44 l50 5 3 264 c2 186 -1 268
-9 277 -6 8 -30 14 -53 14 -49 0 -66 13 -66 51 0 31 15 46 50 51 23 3 190 1
456 -5z m829 -13 c25 -8 43 -10 49 -4 25 25 94 1 97 -33 4 -65 -5 -255 -13
-264 -6 -7 -26 -13 -44 -13 -41 0 -54 24 -54 97 0 40 -5 50 -40 85 l-40 40
-70 -4 c-60 -3 -74 -8 -97 -31 -31 -31 -35 -82 -9 -122 22 -34 43 -43 137 -61
45 -8 105 -24 135 -35 136 -51 184 -204 104 -330 -26 -39 -45 -55 -98 -80 -62
-30 -70 -31 -161 -27 -63 3 -107 11 -129 22 -31 16 -34 16 -57 -2 -27 -21 -67
-19 -87 5 -8 10 -13 62 -14 156 -3 157 6 187 52 187 47 0 64 -17 64 -64 0
-119 65 -186 181 -186 99 0 158 55 143 135 -11 62 -47 80 -201 105 -85 14
-149 50 -193 111 -26 37 -30 50 -30 109 0 60 4 73 33 116 65 97 206 134 342
88z m1038 -36 c17 -20 18 -38 15 -151 -3 -121 -4 -130 -27 -148 -28 -23 -54
-24 -75 -3 -12 12 -16 36 -16 100 0 71 -3 87 -20 104 -30 30 -83 27 -109 -6
-20 -25 -21 -39 -21 -253 0 -260 3 -273 65 -281 22 -3 45 -9 51 -13 21 -13 23
-48 4 -67 -16 -16 -36 -18 -196 -17 l-179 2 -14 29 c-19 41 -4 60 51 66 81 10
78 1 78 280 l0 249 -26 20 c-33 26 -65 27 -95 2 -22 -18 -24 -27 -24 -106 0
-74 -3 -89 -19 -101 -26 -19 -50 -18 -74 4 -18 15 -21 33 -25 143 -4 119 1
154 25 170 5 3 145 4 311 3 300 -3 302 -3 320 -26z m592 3 c232 2 221 3 244
-20 17 -17 19 -33 16 -150 -1 -87 -6 -136 -15 -146 -15 -18 -76 -20 -87 -2 -4
6 -10 48 -13 92 -5 77 -6 80 -40 103 -31 21 -44 23 -122 20 -48 -2 -92 -8 -97
-13 -6 -6 -14 -42 -17 -81 -7 -76 0 -90 47 -98 44 -7 59 10 59 64 0 56 18 80
59 80 49 0 52 -12 49 -211 l-3 -184 -43 -3 c-38 -3 -43 0 -52 23 -6 14 -10 43
-10 64 0 44 -14 61 -51 61 -57 0 -59 -4 -59 -109 0 -139 2 -141 141 -141 148
0 153 5 149 148 -2 63 11 82 56 82 54 0 63 -24 63 -171 0 -121 -1 -128 -24
-154 -20 -20 -32 -25 -53 -21 -15 3 -148 8 -296 11 -171 4 -275 10 -283 17
-17 14 -17 63 2 78 8 6 33 14 55 17 23 3 44 13 49 22 5 9 8 125 7 259 -1 229
-2 244 -20 258 -11 8 -36 14 -56 14 -43 0 -60 14 -60 52 0 43 39 56 137 46 43
-5 164 -8 268 -7z m1040 -40 c84 -38 129 -81 168 -160 59 -117 59 -281 0 -400
-33 -68 -71 -105 -143 -140 l-55 -26 -250 3 c-137 1 -253 6 -256 10 -35 38 -3
92 55 92 65 0 66 4 66 275 0 274 0 275 -70 275 -31 0 -43 5 -55 24 -19 28 -6
72 21 78 10 2 117 1 238 -1 215 -3 223 -4 281 -30z"/>
<path d="M10826 14784 c-79 -19 -131 -50 -152 -90 -32 -59 -22 -68 246 -223
38 -22 57 -26 120 -25 125 1 173 44 133 120 -28 55 -111 155 -162 197 -52 42
-83 46 -185 21z"/>
<path d="M13417 14724 c-3 -4 -27 -10 -52 -15 -71 -13 -112 -37 -130 -74 -30
-65 0 -105 126 -166 35 -17 83 -45 107 -63 42 -30 49 -31 139 -31 91 0 96 1
119 28 41 48 35 67 -57 188 -73 96 -134 139 -199 139 -26 0 -49 -3 -53 -6z"/>
<path d="M12141 14741 c-140 -93 -180 -332 -63 -380 25 -11 53 -10 159 4 161
20 198 30 218 58 21 30 19 102 -5 180 -23 73 -52 105 -135 143 -69 33 -119 31
-174 -5z"/>
<path d="M8040 11490 c-138 -23 -211 -99 -225 -231 -12 -121 41 -186 140 -173
130 17 218 83 251 189 16 49 16 56 -1 119 -27 100 -53 115 -165 96z"/>
<path d="M8682 8519 c-21 -63 -30 -105 -24 -111 5 -5 38 -8 73 -6 l65 3 -34
108 c-19 59 -37 107 -40 107 -4 0 -22 -46 -40 -101z"/>
<path d="M11762 8674 c-13 -9 -22 -26 -22 -42 0 -31 29 -112 40 -112 4 0 24
18 44 40 41 46 46 80 14 110 -26 24 -46 25 -76 4z"/>
<path d="M11665 8325 c-72 -94 -24 -215 84 -215 56 0 116 32 107 57 -12 30
-141 193 -153 193 -7 0 -24 -16 -38 -35z"/>
<path d="M6963 7364 c-38 -9 -44 -27 -41 -130 l3 -99 107 -3 c105 -3 108 -2
138 25 25 22 33 39 37 74 7 58 -7 83 -60 110 -41 21 -137 33 -184 23z"/>
<path d="M13543 7253 c-10 -3 -13 -65 -13 -257 0 -305 -5 -293 115 -283 116
10 178 52 215 144 20 52 9 228 -17 278 -26 48 -78 100 -116 114 -28 11 -161
14 -184 4z"/>
</g>
</svg>
