<?xml version="1.0" standalone="no"?>
<!DOCTYPE svg PUBLIC "-//W3C//DTD SVG 20010904//EN"
 "http://www.w3.org/TR/2001/REC-SVG-20010904/DTD/svg10.dtd">
<svg version="1.0" xmlns="http://www.w3.org/2000/svg"
 width="500.000000pt" height="500.000000pt" viewBox="0 0 500.000000 500.000000"
 preserveAspectRatio="xMidYMid meet">

<g transform="translate(0.000000,500.000000) scale(0.100000,-0.100000)"
fill="#e2a936" stroke="none">
<path d="M2287 3863 c-2 -5 -2 -45 1 -91 l4 -83 54 3 c63 3 73 22 14 26 -35 3
-40 6 -40 28 0 20 5 24 30 24 20 0 30 5 30 15 0 10 -10 15 -29 15 -20 0 -30 6
-34 20 -4 15 0 20 16 20 33 0 67 11 67 21 0 11 -107 12 -113 2z"/>
<path d="M2575 3856 c-19 -14 -17 -15 26 -16 87 0 86 -46 -1 -85 -53 -24 -54
-50 -2 -59 65 -10 102 -7 102 9 0 11 -13 15 -52 15 l-53 0 50 28 c41 22 51 32
53 58 4 37 -11 51 -63 59 -28 5 -46 2 -60 -9z"/>
<path d="M2149 3847 c-27 -21 -41 -57 -35 -92 10 -51 60 -84 112 -71 37 10 28
26 -15 26 -42 0 -56 11 -66 50 -9 37 27 80 66 80 16 0 29 5 29 10 0 14 -72 12
-91 -3z"/>
<path d="M2792 3850 c-33 -14 -56 -74 -43 -112 15 -42 38 -57 88 -58 51 0 83
34 83 87 0 47 -14 69 -51 82 -37 13 -46 13 -77 1z m80 -37 c36 -32 9 -113 -39
-113 -27 0 -53 31 -53 63 0 57 52 86 92 50z"/>
<path d="M2027 3842 c-3 -4 -1 -31 5 -60 5 -30 8 -58 6 -63 -2 -4 -25 18 -51
51 -29 37 -55 60 -67 60 -11 0 -20 -5 -20 -11 0 -32 23 -155 31 -163 17 -19
21 4 10 65 -6 35 -9 64 -7 66 2 3 25 -23 51 -56 30 -40 53 -61 67 -61 19 0 20
4 14 63 -4 34 -10 74 -13 90 -5 26 -17 35 -26 19z"/>
<path d="M2990 3806 c-31 -34 -33 -98 -4 -127 12 -11 39 -23 62 -26 35 -5 44
-2 66 22 37 40 37 105 0 134 -38 30 -94 28 -124 -3z m100 -16 c40 -40 15 -110
-40 -110 -35 0 -50 17 -50 57 0 35 29 73 55 73 8 0 24 -9 35 -20z"/>
<path d="M1826 3738 c8 -40 14 -79 14 -85 0 -7 7 -13 16 -13 14 0 15 7 10 43
-4 23 -10 61 -13 85 -4 31 -10 42 -23 42 -17 0 -17 -5 -4 -72z"/>
<path d="M1690 3782 c-62 -30 -50 -82 22 -91 34 -5 43 -10 43 -26 0 -15 -10
-22 -43 -30 -48 -12 -46 -25 3 -25 38 0 75 32 75 65 0 28 -26 45 -69 45 -16 0
-33 5 -36 10 -10 16 15 40 41 40 15 0 24 6 24 15 0 20 -17 19 -60 -3z"/>
<path d="M3235 3790 c-80 -32 -63 -145 23 -152 l37 -3 -47 -25 c-52 -26 -69
-57 -21 -39 54 20 84 45 103 84 33 68 22 107 -35 131 -19 8 -36 14 -37 13 -2
0 -12 -4 -23 -9z m71 -44 c22 -34 1 -80 -38 -84 -48 -6 -69 52 -35 96 16 20
55 14 73 -12z"/>
<path d="M2360 3533 c-503 -17 -999 -96 -1420 -226 l-75 -23 -3 -132 c-2 -94
-6 -134 -15 -137 -114 -39 -318 -119 -410 -160 -118 -53 -267 -139 -267 -154
0 -5 64 -11 143 -15 241 -11 292 -22 271 -58 -5 -9 -60 -70 -122 -137 -195
-208 -282 -306 -282 -319 0 -7 3 -11 8 -9 4 2 46 27 93 55 261 156 618 294
879 341 l95 17 5 114 5 115 135 27 c347 71 652 106 985 115 405 10 757 -25
1282 -128 l62 -12 3 -116 3 -115 100 -18 c265 -46 647 -193 923 -353 40 -24
62 -32 62 -23 0 8 -92 113 -205 233 -112 121 -204 227 -205 236 0 10 11 20 27
24 37 9 233 25 316 25 37 0 67 4 67 9 0 34 -274 163 -565 266 l-120 43 -3 134
-3 135 -187 51 c-282 77 -512 123 -782 156 -222 27 -606 46 -800 39z m40 -223
c26 -26 25 -46 -4 -75 l-23 -23 23 -13 c46 -24 42 -79 -6 -104 -16 -8 -55 -15
-88 -15 l-59 0 -6 83 c-4 45 -7 101 -7 125 l0 42 75 0 c62 0 79 -4 95 -20z
m238 4 c30 -20 30 -79 1 -110 l-21 -22 31 -46 c17 -24 31 -47 31 -50 0 -3 -13
-6 -29 -6 -23 0 -34 9 -59 50 -17 28 -38 50 -47 50 -11 0 -15 -12 -15 -50 0
-47 -2 -50 -25 -50 l-25 0 0 125 0 125 68 0 c45 0 75 -5 90 -16z m136 -41 l28
-57 30 52 c25 44 34 52 59 52 l30 0 -51 -75 c-42 -62 -50 -82 -50 -120 0 -41
-2 -45 -25 -45 -23 0 -25 4 -25 47 0 35 -9 64 -40 119 -22 40 -40 76 -40 79 0
3 13 5 28 5 24 0 32 -8 56 -57z m-764 25 c30 -19 50 -64 50 -113 0 -86 -41
-128 -124 -128 -77 0 -126 53 -126 136 0 94 118 156 200 105z m1130 -10 c0
-22 -4 -23 -58 -20 -68 4 -91 -13 -99 -77 -8 -56 16 -91 61 -91 31 0 34 3 40
35 6 29 11 35 31 35 27 0 29 -8 19 -72 l-7 -38 -59 0 c-101 0 -137 32 -138
124 0 53 3 61 34 92 32 32 38 34 105 34 67 0 71 -1 71 -22z m124 -49 l-6 -48
35 -6 c60 -12 71 -5 77 45 5 41 7 45 30 42 14 -2 25 -5 26 -5 0 -1 -6 -57 -14
-125 -14 -116 -16 -123 -36 -120 -19 3 -21 9 -20 61 1 53 0 57 -21 57 -12 0
-36 3 -53 6 -30 6 -30 6 -37 -50 -7 -55 -16 -65 -44 -47 -11 7 -12 26 -1 112
15 137 15 137 45 131 24 -4 25 -7 19 -53z m-1520 19 c9 -53 26 -188 26 -204 0
-11 -10 -14 -37 -12 -33 3 -42 10 -89 76 -28 41 -56 78 -61 83 -9 9 -6 -33 11
-148 4 -29 2 -33 -18 -33 -21 0 -23 7 -38 118 -8 64 -13 120 -11 125 2 4 19 7
37 7 29 0 38 -8 91 -85 32 -47 60 -83 62 -81 3 2 0 39 -6 81 -14 101 -14 105
9 105 14 0 21 -9 24 -32z m1793 -6 c10 -6 9 -28 -3 -100 -18 -106 -13 -122 42
-122 30 0 34 4 43 38 8 31 31 148 31 159 0 7 39 3 43 -4 3 -5 -3 -51 -13 -102
-13 -73 -23 -99 -40 -113 -46 -37 -154 -12 -166 38 -6 25 8 146 22 197 6 18
21 22 41 9z m-2080 -122 c34 -58 62 -108 63 -111 0 -4 -10 -9 -22 -13 -17 -4
-28 2 -43 20 -19 23 -25 25 -67 19 -43 -6 -47 -10 -53 -41 -5 -28 -10 -34 -30
-34 -30 0 -29 -11 -5 130 11 63 20 118 20 122 0 7 37 16 60 14 8 -1 42 -48 77
-106z m-217 61 c0 -15 -12 -22 -50 -31 -41 -10 -50 -16 -50 -33 0 -39 13 -48
50 -37 25 7 36 6 42 -3 13 -20 9 -26 -19 -33 -49 -10 -54 -14 -49 -31 18 -66
17 -80 -6 -86 -12 -4 -24 -5 -25 -3 -6 6 -53 206 -53 225 0 13 15 21 63 33 85
22 97 21 97 -1z m2636 -2 c32 -8 44 -16 44 -30 0 -22 -3 -22 -50 -9 -79 23
-96 -23 -25 -64 57 -34 71 -58 55 -96 -20 -49 -84 -61 -162 -31 -19 7 -28 18
-28 32 0 16 4 19 18 14 9 -4 34 -13 55 -18 31 -10 40 -8 55 7 19 19 21 16 -68
84 -37 29 -39 64 -5 97 27 28 46 30 111 14z"/>
<path d="M2280 3267 c0 -43 4 -46 43 -38 24 5 33 13 35 30 4 28 -12 41 -50 41
-25 0 -28 -4 -28 -33z"/>
<path d="M2290 3152 l0 -39 38 6 c33 6 37 9 37 36 0 27 -3 30 -37 33 -38 3
-38 3 -38 -36z"/>
<path d="M2530 3255 c0 -39 3 -45 21 -45 33 0 59 19 59 43 0 31 -18 47 -52 47
-27 0 -28 -2 -28 -45z"/>
<path d="M1910 3273 c-27 -10 -40 -36 -40 -85 0 -26 3 -48 8 -48 4 1 26 29 49
63 30 43 38 64 30 69 -13 9 -25 9 -47 1z"/>
<path d="M1945 3176 c-39 -54 -45 -70 -34 -77 38 -25 99 21 98 75 -1 74 -12
74 -64 2z"/>
<path d="M1357 3168 c-4 -12 -7 -39 -7 -60 0 -32 2 -36 23 -31 49 11 49 11 28
50 -34 64 -38 67 -44 41z"/>
<path d="M1953 2751 c8 -37 -1 -46 -25 -24 -21 19 -24 7 -9 -43 7 -24 4 -42
-9 -72 -10 -22 -23 -41 -29 -43 -7 -3 -7 -9 -1 -19 8 -13 13 -13 37 1 15 9 43
20 61 24 18 3 46 14 63 22 23 11 34 12 42 4 8 -8 5 -18 -15 -36 -15 -14 -32
-25 -38 -25 -5 0 -10 -4 -10 -8 0 -4 -15 -24 -33 -44 -58 -63 -81 -121 -81
-202 0 -88 14 -117 123 -244 95 -112 116 -150 116 -219 0 -92 -62 -141 -138
-109 -73 30 -84 136 -15 144 30 4 68 -30 68 -60 0 -10 5 -18 10 -18 16 0 12
53 -6 78 -52 75 -154 29 -154 -68 0 -41 26 -95 54 -113 82 -54 212 -13 261 84
35 66 25 161 -26 261 -11 21 -22 58 -26 83 -5 38 -3 45 11 45 9 0 16 -8 16
-19 0 -17 11 -20 105 -26 l105 -7 0 -134 c0 -73 -5 -155 -11 -183 -31 -148
-173 -243 -316 -213 -118 25 -313 182 -416 337 l-47 70 41 8 41 9 -40 34 c-86
73 -159 222 -164 330 -1 49 -9 55 -26 22 -60 -117 -56 -254 14 -438 40 -106
52 -114 63 -43 l6 38 65 -85 c35 -47 111 -132 169 -190 91 -90 126 -116 246
-186 276 -161 317 -189 391 -263 l73 -74 78 79 c56 56 109 97 183 140 356 207
350 204 444 298 51 50 125 133 164 184 71 92 78 96 84 42 5 -38 21 -30 46 24
44 93 75 233 70 316 -5 71 -39 180 -58 180 -4 0 -10 -30 -13 -66 -9 -93 -70
-216 -142 -289 l-55 -54 35 -7 c19 -3 35 -9 35 -11 0 -13 -49 -84 -104 -151
-110 -134 -276 -248 -380 -259 -62 -7 -149 21 -196 63 -22 20 -52 61 -67 92
-27 54 -28 66 -31 218 l-4 161 101 7 c90 7 101 10 101 27 0 13 7 19 21 19 19
0 21 -4 15 -39 -3 -21 -20 -71 -37 -111 -44 -104 -48 -163 -17 -232 28 -60 61
-89 125 -108 98 -30 193 37 193 136 0 63 -61 114 -113 95 -44 -17 -81 -97 -49
-108 7 -3 12 4 12 16 0 50 78 82 100 42 26 -50 0 -113 -55 -131 -70 -23 -125
18 -133 100 -6 65 25 129 113 230 36 41 71 82 78 90 8 8 23 39 36 68 18 44 21
64 16 115 -4 34 -11 64 -16 65 -5 2 -9 10 -9 18 0 17 -70 114 -82 114 -4 0 -8
7 -8 15 0 8 -6 15 -13 15 -17 0 -57 42 -57 59 0 8 7 11 18 8 9 -3 40 -13 67
-22 28 -9 63 -23 79 -31 20 -10 32 -11 41 -4 11 9 8 16 -11 35 -26 26 -27 33
-25 110 1 40 -1 46 -9 33 -18 -29 -30 -21 -30 18 l0 36 -18 -22 c-13 -16 -23
-20 -33 -15 -17 11 -50 12 -67 1 -7 -4 -19 -2 -27 4 -12 10 -15 9 -15 -3 0
-22 -20 -32 -31 -16 -6 10 -9 6 -9 -15 0 -21 -4 -27 -15 -22 -11 4 -15 -2 -15
-24 0 -22 -4 -28 -15 -24 -12 5 -14 0 -10 -22 3 -16 7 -49 10 -74 6 -59 13
-103 25 -169 20 -111 10 -125 -46 -64 -25 27 -34 32 -34 19 0 -9 5 -26 11 -38
10 -18 8 -19 -13 -13 l-23 7 23 -24 c20 -22 21 -26 7 -32 -9 -3 -46 -6 -81 -6
l-64 0 0 134 0 134 -50 12 c-39 9 -61 9 -100 0 l-50 -12 0 -134 0 -134 -62 0
c-35 0 -73 3 -86 6 -23 7 -23 7 -2 21 24 17 27 35 4 26 -14 -5 -15 -3 -5 15 6
11 11 29 11 39 0 14 -8 9 -35 -19 -56 -62 -68 -50 -50 52 9 52 25 167 30 213
3 27 8 54 12 60 4 6 0 8 -10 4 -14 -5 -17 0 -17 23 0 22 -4 28 -15 24 -11 -5
-15 1 -15 21 0 23 -2 26 -15 15 -12 -10 -16 -9 -21 4 -4 10 -13 15 -21 12 -8
-4 -20 -3 -26 1 -15 9 -67 10 -67 1 0 -17 -29 -7 -35 12 -10 31 -28 24 -22 -9z"/>
</g>
</svg>
