<?xml version="1.0" standalone="no"?>
<!DOCTYPE svg PUBLIC "-//W3C//DTD SVG 20010904//EN"
        "http://www.w3.org/TR/2001/REC-SVG-20010904/DTD/svg10.dtd">
<svg version="1.0" xmlns="http://www.w3.org/2000/svg"
     width="500.000000pt" height="500.000000pt" viewBox="0 0 500.000000 500.000000"
     preserveAspectRatio="xMidYMid meet">

    <g transform="translate(0.000000,500.000000) scale(0.100000,-0.100000)"
       fill="#e2a936" stroke="none">
        <path d="M2200 4572 c0 -11 -14 -47 -31 -80 -22 -45 -43 -71 -76 -93 -49 -34
-119 -59 -164 -59 -52 0 -137 40 -185 86 -55 54 -77 53 -68 -4 14 -88 -50
-208 -138 -261 -54 -32 -164 -40 -228 -16 -25 9 -55 19 -67 22 -26 6 -27 4
-23 -103 3 -90 -24 -157 -85 -213 -62 -57 -106 -73 -190 -69 -38 2 -77 7 -87
12 -26 12 -34 -45 -11 -80 26 -40 26 -195 0 -243 -49 -89 -170 -158 -260 -147
-66 7 -72 -12 -17 -65 44 -43 74 -99 85 -161 8 -44 -9 -124 -34 -156 -17 -23
-18 -23 -249 -23 l-232 0 0 -414 0 -415 234 0 234 0 23 -47 c45 -93 24 -216
-49 -290 -18 -17 -32 -36 -32 -42 0 -24 30 -8 73 38 50 53 60 85 61 189 0 34
2 62 4 62 11 0 32 -77 32 -115 0 -74 -60 -167 -118 -181 -29 -8 -29 -24 1 -25
66 -2 136 -32 189 -82 48 -46 69 -88 75 -156 6 -55 17 -81 34 -81 15 0 9 83
-10 138 l-18 53 23 -22 c34 -32 54 -81 54 -134 0 -53 -19 -96 -63 -142 -17
-18 -29 -35 -26 -37 2 -2 24 -1 49 4 120 22 249 -54 295 -173 13 -35 16 -64
13 -117 -6 -75 5 -99 23 -53 27 70 2 210 -48 266 -22 24 -2 21 25 -4 79 -72
97 -168 49 -253 -27 -48 -27 -48 -4 -43 122 32 148 35 201 23 64 -15 101 -38
145 -88 37 -42 71 -123 71 -168 0 -16 5 -32 10 -35 14 -8 13 85 -1 140 -8 31
-25 58 -55 87 -24 24 -44 46 -44 50 0 30 80 -26 114 -80 38 -59 41 -110 11
-184 -11 -27 14 -22 59 12 96 73 202 76 304 10 49 -31 65 -49 91 -101 17 -34
31 -73 31 -86 0 -39 36 -29 66 19 56 91 133 139 224 140 32 1 73 -5 92 -12 52
-21 125 -79 145 -117 22 -42 51 -41 72 2 65 127 126 181 226 198 51 9 70 8
113 -6 57 -19 92 -22 92 -7 0 20 -65 42 -134 46 -39 2 -75 4 -81 5 -5 0 4 7
20 14 47 22 124 18 172 -7 42 -23 93 -80 93 -105 0 -26 20 -12 21 15 2 66 21
111 76 178 64 79 186 107 297 69 70 -24 79 -4 12 28 -64 32 -129 35 -200 11
-26 -9 -49 -14 -52 -12 -11 12 79 61 120 65 67 8 108 -3 153 -42 l40 -34 6 73
c7 90 24 132 78 191 54 59 116 86 195 86 33 0 66 -1 73 -3 8 -2 15 2 18 9 6
16 -91 35 -136 27 -46 -9 -121 -41 -144 -61 -31 -29 -18 4 16 37 63 63 133 82
206 56 24 -9 45 -16 48 -16 2 0 3 39 2 87 -1 49 3 112 10 141 7 29 11 67 7 83
-8 40 24 88 83 125 55 35 140 40 184 11 36 -23 35 -5 -2 42 -53 67 -65 101
-65 176 0 53 5 80 22 113 l22 42 235 0 235 0 0 410 0 410 -97 2 c-54 1 -105 2
-113 4 -8 1 -72 2 -141 3 l-125 1 -18 37 c-40 85 -28 188 34 269 16 22 30 48
30 59 0 16 -7 12 -41 -20 -61 -59 -72 -88 -73 -182 -1 -46 -2 -83 -3 -83 -1 0
-10 14 -19 32 -41 79 -6 198 73 248 l44 28 -69 21 c-92 28 -162 83 -192 152
-27 63 -29 146 -5 209 27 75 28 80 13 80 -8 0 -26 -27 -41 -61 -31 -69 -35
-140 -12 -204 20 -56 19 -61 -10 -27 -67 80 -60 195 15 267 17 16 30 31 30 34
0 4 -35 5 -77 3 -62 -3 -87 1 -124 17 -53 24 -124 96 -145 148 -17 39 -21 120
-10 170 10 42 -8 51 -25 11 -29 -71 -4 -213 48 -270 18 -20 6 -24 -17 -5 -90
72 -112 187 -54 273 30 43 26 51 -13 31 -75 -39 -202 -37 -269 4 -18 11 -52
44 -77 74 -41 50 -46 61 -52 125 -8 80 -20 98 -29 43 -13 -77 30 -180 97 -231
9 -7 17 -17 17 -23 0 -31 -79 22 -113 76 -34 54 -43 109 -24 163 8 23 11 42 6
42 -5 0 -31 -15 -58 -33 -102 -70 -211 -72 -305 -6 -41 29 -106 113 -106 137
0 11 -44 52 -56 52 -5 0 -18 -15 -28 -34 -19 -36 -93 -95 -144 -116 -46 -18
-136 -14 -188 10 -48 20 -119 87 -129 120 -8 25 -35 26 -36 3 0 -14 -2 -13 -9
5 -11 27 -20 29 -20 4z m634 -159 c19 -21 55 -50 81 -63 26 -13 42 -26 36 -28
-29 -10 -82 12 -125 49 -49 43 -66 85 -65 154 l1 40 19 -56 c11 -31 35 -74 53
-96z m-496 13 c15 -7 53 -20 85 -27 31 -8 57 -17 57 -21 0 -5 -24 -8 -54 -8
-87 0 -174 56 -194 125 -15 49 -3 48 39 -5 21 -27 51 -56 67 -64z m-512 -103
c16 -4 62 -7 102 -7 39 0 72 -2 72 -4 0 -11 -77 -32 -117 -32 -68 0 -129 33
-164 88 -43 67 -36 71 25 14 30 -28 67 -55 82 -59z m770 -168 c46 -35 78 -105
70 -150 -9 -44 -44 -94 -86 -123 -30 -20 -44 -23 -94 -20 -56 4 -62 7 -102 51
-48 53 -61 100 -43 155 35 112 165 156 255 87z m-1304 -37 c59 -31 140 -35
206 -10 28 11 52 17 52 14 0 -4 -19 -20 -41 -35 -79 -57 -187 -47 -254 23 -34
36 -21 38 37 8z m879 -90 c58 -32 81 -78 87 -170 l5 -78 238 0 239 0 0 66 c0
90 26 145 86 180 72 42 116 34 339 -63 168 -73 327 -183 470 -327 164 -165
272 -328 358 -541 53 -131 64 -175 45 -175 -7 0 -265 0 -573 -1 -308 -1 -567
-1 -576 0 -12 1 -15 8 -12 25 4 18 -2 29 -23 43 -23 15 -48 18 -149 18 -66 0
-133 -4 -148 -8 -44 -12 -31 22 13 37 27 8 36 17 38 38 2 14 9 31 16 37 9 8
12 32 8 86 -3 55 -1 79 9 91 8 10 15 31 16 48 1 17 5 61 8 97 6 49 3 79 -8
115 -9 27 -21 75 -27 106 -6 31 -16 61 -23 66 -18 14 -123 32 -181 32 -82 -1
-97 -15 -116 -106 -9 -44 -23 -107 -30 -142 -12 -52 -12 -70 -1 -110 8 -26 14
-55 15 -65 1 -9 8 -23 14 -29 17 -17 16 -147 0 -152 -7 -3 -40 -12 -73 -22
-103 -30 -154 -106 -103 -154 20 -18 35 -20 166 -20 131 0 143 -1 140 -17 -3
-17 -46 -18 -736 -18 -403 -1 -738 3 -745 7 -21 13 67 242 140 365 24 39 43
74 43 77 0 14 136 182 209 259 70 72 269 237 287 237 3 0 38 19 77 43 40 24
92 51 117 61 239 96 273 103 341 64z m-1020 -225 c-11 -21 -46 -53 -82 -75
-62 -39 -154 -30 -206 18 -22 20 -24 24 -8 19 103 -34 206 -20 280 39 26 20
28 20 16 -1z m1359 -85 c0 -4 10 -5 22 -3 25 5 58 -24 58 -52 0 -10 11 -56 25
-102 14 -46 22 -88 19 -93 -3 -5 -22 -7 -43 -4 -20 3 -53 5 -73 6 l-37 0 -16
75 c-10 41 -14 82 -11 91 3 8 2 13 -3 10 -5 -3 -12 11 -16 31 -4 23 -2 38 5
43 15 9 70 8 70 -2z m-59 -189 c8 -48 9 -92 1 -155 -12 -102 -7 -143 17 -145
14 -1 13 -2 -1 -6 -31 -8 -18 -83 13 -83 14 0 19 7 19 25 0 14 6 25 13 25 7 0
19 9 27 20 8 11 24 20 35 20 18 0 25 15 49 106 16 58 30 103 33 100 3 -2 -3
-33 -13 -68 -10 -34 -19 -93 -22 -130 -3 -53 -7 -66 -18 -61 -9 3 -14 -2 -14
-15 0 -27 17 -37 23 -15 4 14 5 12 6 -5 1 -22 -1 -23 -86 -20 l-88 3 -8 60
c-5 36 -4 107 3 175 9 95 9 128 -4 190 -8 41 -17 89 -20 105 -3 17 1 10 9 -15
9 -25 20 -75 26 -111z m-1591 -128 c0 -19 -48 -77 -87 -105 -35 -24 -53 -29
-100 -30 -33 0 -69 6 -83 14 -24 14 -21 15 50 21 94 9 116 17 165 68 38 40 55
50 55 32z m1505 -70 c3 -5 1 -12 -5 -16 -5 -3 -10 1 -10 9 0 18 6 21 15 7z m6
-257 c6 -7 23 -15 37 -17 26 -4 26 -4 -3 -5 -16 -1 -35 2 -42 6 -10 6 -21 210
-12 237 2 6 5 -39 6 -99 2 -61 8 -115 14 -122z m204 176 c4 -6 -10 -10 -34
-10 -23 0 -41 5 -41 10 0 6 15 10 34 10 19 0 38 -4 41 -10z m-255 -153 c0 -37
22 -58 67 -64 39 -5 60 -24 48 -42 -7 -12 -163 -20 -223 -12 -52 7 -75 23 -66
45 6 16 96 75 130 86 43 12 44 12 44 -13z m233 -12 c2 -11 -115 -19 -150 -10
-13 3 -23 10 -23 16 0 13 169 8 173 -6z m33 -32 c-5 -12 -15 -14 -42 -8 -24 4
-34 3 -29 -4 3 -6 -1 -11 -10 -11 -9 0 -14 4 -10 9 3 5 -9 12 -27 14 -21 2
-12 4 24 5 68 2 88 9 89 31 1 13 2 13 6 -2 3 -10 2 -25 -1 -34z m-89 -85 c-3
-8 -6 -5 -6 6 -1 11 2 17 5 13 3 -3 4 -12 1 -19z m312 3 c39 -11 35 -28 -11
-45 -33 -13 -70 -16 -158 -14 -103 3 -115 5 -118 22 -5 25 8 32 65 35 26 1 49
4 52 7 7 6 143 3 170 -5z m-2129 -31 c0 -11 -7 -20 -15 -20 -13 0 -14 4 -5 20
6 11 13 20 15 20 3 0 5 -9 5 -20z m4074 -116 c14 -5 16 -43 16 -324 0 -281 -2
-319 -16 -324 -20 -8 -4488 -8 -4508 0 -14 5 -16 44 -16 330 l0 324 2254 0
c1240 0 2261 -3 2270 -6z m-709 -771 c-11 -62 -102 -272 -158 -364 -84 -140
-129 -199 -233 -305 -94 -96 -120 -119 -224 -196 -127 -95 -407 -225 -507
-235 -108 -12 -183 70 -183 201 l0 66 -239 0 -238 0 -5 -77 c-6 -89 -24 -128
-77 -164 -58 -40 -131 -33 -271 25 -210 86 -368 189 -530 342 -80 77 -224 252
-242 295 -3 8 -24 44 -45 80 -43 71 -143 314 -143 348 l0 21 1551 0 1551 0 -7
-37z m294 15 c-17 -34 -19 -34 -19 -5 0 18 5 27 15 27 13 0 14 -4 4 -22z
m-1771 -942 c111 -58 128 -200 33 -275 -44 -35 -94 -46 -147 -32 -75 20 -133
110 -119 185 8 38 66 113 99 126 33 14 104 11 134 -4z m-417 -478 c62 -49 79
-77 86 -144 6 -67 -5 -65 -27 5 -16 50 -73 112 -130 141 -22 11 -40 23 -40 25
0 3 15 5 34 5 23 0 48 -10 77 -32z m544 -56 c41 -29 68 -68 79 -114 9 -41 -5
-33 -40 20 -39 60 -78 86 -153 103 -65 14 -78 26 -33 31 45 5 104 -11 147 -40z"/>
        <path d="M2541 3684 c0 -11 3 -14 6 -6 3 7 2 16 -1 19 -3 4 -6 -2 -5 -13z"/>
        <path d="M351 2762 c-21 -7 -10 -37 20 -57 l31 -20 0 -189 1 -190 -32 -15
c-36 -17 -39 -26 -11 -41 24 -13 128 -6 143 9 13 13 -9 41 -33 41 -15 0 -17
10 -16 80 1 68 4 83 23 101 28 28 39 20 82 -63 18 -35 43 -73 54 -86 21 -23
22 -24 3 -37 -10 -8 -24 -16 -29 -18 -6 -2 -8 -11 -4 -20 5 -14 19 -17 69 -17
35 0 69 4 77 9 19 12 6 41 -18 41 -21 0 -79 92 -102 161 -7 19 -22 45 -35 60
-13 14 -24 30 -24 35 0 19 49 76 81 96 25 15 30 23 25 43 -5 21 0 28 34 47 22
13 40 27 40 32 0 7 -160 -1 -169 -10 -2 -1 6 -15 18 -30 l21 -26 -51 -56 c-28
-31 -58 -66 -66 -79 -20 -30 -49 -32 -32 -2 6 12 9 49 7 82 -3 56 -1 62 17 65
27 4 72 39 62 48 -8 8 -166 13 -186 6z"/>
        <path d="M1675 2741 c-3 -5 -21 -7 -40 -4 -33 5 -35 4 -35 -21 0 -21 5 -26 24
-26 14 0 36 -4 50 -10 25 -9 26 -14 26 -80 0 -78 -4 -81 -58 -48 -42 26 -113
26 -147 0 -13 -9 -36 -40 -51 -68 -26 -49 -27 -54 -15 -92 8 -22 24 -52 36
-67 13 -14 29 -35 37 -47 21 -31 97 -36 143 -9 44 26 43 26 47 -1 2 -18 10
-24 39 -26 43 -4 69 19 49 43 -7 8 -19 15 -27 15 -10 0 -13 6 -8 18 4 9 9 99
11 200 l4 183 -24 24 c-26 26 -50 32 -61 16z m-50 -245 c39 -17 55 -42 55 -88
0 -41 -23 -70 -73 -93 -33 -15 -41 -16 -63 -4 -57 30 -67 127 -18 176 27 27
51 29 99 9z"/>
        <path d="M2233 2692 c-3 -8 6 -24 20 -35 33 -29 35 -39 39 -192 l2 -130 -33
-33 c-18 -19 -29 -37 -25 -42 8 -7 81 -14 122 -11 6 1 12 10 12 21 0 11 -5 17
-12 15 -7 -3 -18 -1 -24 3 -17 10 -3 84 16 88 8 2 24 6 36 9 17 5 23 0 33 -24
7 -16 19 -32 27 -35 9 -4 14 -16 12 -33 -3 -25 1 -28 47 -39 31 -7 57 -7 68
-2 26 13 11 28 -28 28 -31 0 -37 5 -56 43 -12 23 -30 55 -41 70 l-20 28 35 42
c26 32 45 45 78 52 34 8 44 15 44 30 0 26 -44 32 -98 14 -28 -9 -44 -23 -57
-50 -15 -28 -27 -38 -52 -42 -46 -7 -58 7 -58 69 0 73 13 104 45 104 29 0 32
16 10 47 -13 19 -24 22 -76 21 -42 -1 -63 -6 -66 -16z"/>
        <path d="M481 2666 c-9 -10 -9 -16 -1 -21 17 -10 37 12 24 25 -8 8 -15 6 -23
-4z"/>
        <path d="M3132 2545 c-32 -52 -32 -67 3 -111 22 -27 28 -29 94 -29 76 0 95
-10 106 -56 4 -17 0 -33 -12 -48 -17 -20 -23 -21 -82 -14 -62 8 -66 10 -85 47
-26 48 -46 58 -46 21 0 -31 36 -82 70 -100 53 -28 176 5 194 51 29 75 -37 134
-150 134 -48 0 -80 27 -70 58 8 23 33 32 93 32 53 0 73 -8 73 -29 0 -20 19
-41 36 -41 16 0 28 74 16 96 -10 18 -16 19 -139 30 l-72 6 -29 -47z"/>
        <path d="M3565 2573 c-11 -10 -28 -31 -38 -46 -16 -24 -17 -33 -7 -57 22 -52
45 -65 123 -66 60 -1 73 -4 89 -24 48 -59 7 -102 -86 -92 -60 7 -63 9 -85 65
-12 32 -36 36 -44 7 -3 -12 6 -33 24 -57 46 -57 61 -65 121 -57 80 10 127 45
128 95 0 58 -63 99 -154 99 -40 0 -65 20 -66 52 0 25 31 38 88 38 47 0 51 -2
71 -35 31 -54 51 -46 51 19 l0 54 -42 6 c-109 17 -153 17 -173 -1z"/>
        <path d="M902 2560 c-18 -11 -35 -27 -39 -36 -15 -40 65 -41 97 -2 l18 23 29
-21 c26 -20 30 -35 18 -70 -2 -6 -37 -15 -79 -19 -59 -5 -80 -12 -100 -30 -31
-28 -34 -73 -8 -104 22 -26 103 -60 122 -51 8 4 30 15 48 25 31 16 35 16 51 1
10 -9 31 -16 47 -16 16 0 46 -3 67 -6 45 -8 114 16 145 49 23 25 33 68 17 73
-10 4 -45 -26 -68 -58 -7 -9 -29 -20 -50 -24 -34 -6 -38 -4 -35 12 2 16 -3 19
-37 19 l-40 0 0 45 1 45 105 5 c103 5 139 16 139 44 0 25 -36 96 -46 92 -6 -3
-15 -1 -20 4 -5 5 -39 11 -76 14 -51 4 -74 1 -101 -13 -32 -17 -35 -16 -68 1
-44 24 -96 23 -137 -2z m393 -52 c10 -15 11 -26 4 -39 -8 -17 -20 -18 -96 -14
-47 3 -87 6 -88 7 -1 2 -5 15 -9 30 -9 37 8 44 98 40 63 -3 78 -7 91 -24z
m-262 -146 c5 -24 6 -46 3 -50 -12 -11 -130 -20 -148 -11 -41 22 -32 73 15 88
97 30 120 25 130 -27z"/>
        <path d="M1938 2564 c-53 -22 -78 -70 -78 -147 0 -81 14 -105 80 -139 63 -33
99 -35 155 -9 48 22 71 46 80 84 6 22 4 27 -12 27 -18 0 -53 -32 -53 -48 0
-12 -35 -30 -71 -37 -26 -5 -42 -1 -69 17 -36 24 -77 84 -65 96 3 4 59 9 124
12 155 7 172 20 131 100 -17 33 -26 40 -70 49 -68 15 -107 13 -152 -5z m190
-57 c7 -15 10 -32 7 -37 -3 -6 -53 -10 -115 -10 -91 0 -109 3 -114 16 -4 9 -5
18 -4 19 2 1 15 10 30 21 21 17 41 20 104 20 76 -1 79 -2 92 -29z"/>
        <path d="M2790 2570 c-66 -12 -107 -53 -75 -76 20 -15 73 0 82 22 14 36 83 -7
83 -52 0 -19 -7 -22 -70 -28 -39 -4 -83 -12 -99 -17 -27 -10 -51 -44 -51 -75
0 -23 29 -74 43 -74 6 0 25 -7 41 -15 24 -13 36 -13 65 -4 20 6 43 18 52 25
13 12 18 12 35 -1 10 -8 29 -15 42 -15 30 0 78 25 86 45 5 14 -1 16 -36 13
l-43 -3 3 90 2 90 -34 33 c-40 38 -77 51 -126 42z m90 -209 c0 -56 -4 -59 -88
-67 -42 -4 -59 -1 -73 12 -45 41 -6 82 89 94 31 4 60 8 65 9 4 0 7 -21 7 -48z"/>
        <path d="M3995 2567 c-67 -31 -103 -115 -82 -192 14 -52 41 -81 97 -106 57
-26 106 -21 169 18 37 23 47 35 49 61 2 24 -1 32 -12 32 -16 0 -76 -56 -76
-70 0 -4 -18 -10 -40 -14 -57 -9 -113 21 -133 71 -8 21 -13 41 -10 46 2 4 53
7 113 7 129 0 160 9 160 46 0 43 -28 91 -58 98 -60 15 -147 16 -177 3z m172
-39 c7 -6 13 -23 13 -39 l0 -29 -110 0 c-96 0 -110 2 -110 17 0 9 9 26 19 37
17 18 34 22 97 23 44 1 84 -3 91 -9z"/>
        <path d="M4308 2563 c-18 -20 -14 -32 17 -49 17 -10 20 -23 23 -99 3 -84 1
-90 -23 -112 -14 -13 -25 -28 -25 -33 0 -16 37 -30 79 -30 72 0 90 20 51 55
-17 15 -20 31 -20 100 0 90 5 101 58 111 39 8 75 -1 97 -23 14 -13 15 -29 10
-102 -5 -59 -12 -90 -22 -98 -25 -19 -8 -43 29 -42 73 2 113 30 67 47 -21 8
-23 15 -25 112 -3 103 -3 103 -37 138 -31 31 -40 34 -92 34 -48 1 -61 -3 -76
-20 -21 -27 -29 -28 -29 -2 0 11 -6 20 -12 20 -7 0 -22 3 -33 6 -13 3 -27 -2
-37 -13z"/>
        <path d="M1710 1808 c-5 -13 -16 -59 -25 -103 -9 -44 -22 -85 -30 -91 -8 -6
-12 -14 -8 -17 10 -11 51 -8 58 3 3 6 1 10 -4 10 -17 0 -13 37 5 44 44 17 80
-8 55 -38 -13 -16 -4 -26 24 -26 31 0 36 9 15 30 -11 11 -21 40 -25 77 -12
107 -43 162 -65 111z m34 -62 c-3 -7 0 -24 5 -38 8 -21 7 -28 -5 -32 -21 -8
-34 1 -34 24 0 30 19 72 30 65 5 -3 7 -11 4 -19z"/>
        <path d="M2653 1804 c-22 -9 -33 -21 -33 -34 0 -25 5 -25 37 -1 28 23 66 15
71 -13 5 -24 -24 -65 -54 -76 -22 -9 -64 -63 -64 -83 0 -4 37 -7 83 -5 65 2
82 6 82 18 0 8 -8 16 -17 18 -12 2 -18 -3 -18 -13 0 -13 -3 -15 -12 -7 -7 5
-24 12 -38 14 l-25 3 29 25 c56 48 76 75 76 101 0 51 -61 78 -117 53z"/>
        <path d="M3038 1804 c-16 -9 -28 -24 -28 -35 0 -24 6 -24 37 0 30 24 66 15 71
-19 4 -26 -33 -70 -59 -70 -9 0 -20 -8 -23 -17 -3 -10 -13 -29 -21 -43 l-14
-25 76 -3 c78 -3 113 9 83 28 -22 14 -30 12 -30 -6 0 -12 -3 -14 -12 -6 -7 6
-26 12 -41 14 l-29 3 40 30 c41 31 72 75 72 104 0 44 -74 71 -122 45z"/>
        <path d="M3229 1815 c-7 -4 -23 -125 -16 -125 2 0 18 5 35 11 44 15 72 -2 72
-45 0 -38 -19 -54 -85 -76 -33 -11 -36 -14 -20 -20 49 -17 145 45 145 95 0 47
-16 63 -70 70 -75 10 -62 56 20 69 58 9 41 25 -25 23 -30 -1 -55 -1 -56 -2z"/>
        <path d="M2842 1788 c-33 -36 -43 -73 -32 -121 10 -48 40 -77 79 -77 32 0 68
31 77 66 9 37 -4 115 -23 136 -23 25 -75 23 -101 -4z m83 -23 c50 -49 21 -155
-41 -155 -30 0 -47 33 -48 91 -1 33 5 53 18 68 25 27 41 27 71 -4z"/>
        <path d="M1844 1729 c-4 -7 1 -16 10 -21 21 -12 22 -81 0 -102 -14 -15 -12
-16 22 -16 30 0 35 3 26 12 -7 7 -12 29 -12 50 0 31 5 41 25 50 39 18 57 -4
52 -64 -5 -47 -4 -48 21 -48 15 0 22 4 16 8 -6 4 -12 30 -12 57 -1 38 -6 54
-23 68 -25 20 -50 22 -68 5 -11 -10 -14 -10 -18 0 -6 15 -29 16 -39 1z"/>
        <path d="M2034 1729 c-3 -5 1 -15 8 -23 17 -17 14 -96 -4 -107 -8 -6 2 -9 27
-9 30 0 36 3 27 12 -17 17 -15 74 4 92 36 37 68 7 62 -59 -3 -44 -3 -45 27
-45 24 1 27 2 13 10 -11 7 -16 24 -16 56 0 27 -7 52 -16 63 -15 16 -52 21 -73
8 -5 -4 -13 -3 -17 0 -11 11 -35 12 -42 2z"/>
        <path d="M2253 1718 c-50 -54 -17 -128 57 -128 105 0 109 133 5 147 -33 4 -44
1 -62 -19z m97 -27 c19 -37 12 -71 -17 -82 -40 -15 -73 5 -73 46 0 17 5 36 12
43 19 19 66 15 78 -7z"/>
    </g>
</svg>