<?xml version="1.0" standalone="no"?>
<!DOCTYPE svg PUBLIC "-//W3C//DTD SVG 20010904//EN"
        "http://www.w3.org/TR/2001/REC-SVG-20010904/DTD/svg10.dtd">
<svg version="1.0" xmlns="http://www.w3.org/2000/svg"
     width="960.000000pt" height="960.000000pt" viewBox="0 0 948.000000 1024.000000"
     preserveAspectRatio="xMidYMid meet">

    <g transform="translate(0.000000,1024.000000) scale(0.100000,-0.100000)"
       fill="#e2a936" stroke="none">
        <path d="M4720 9943 c-1048 -60 -1963 -453 -2745 -1179 -657 -611 -1148 -1489
-1339 -2399 -107 -509 -135 -934 -95 -1470 35 -476 166 -1020 359 -1490 60
-147 261 -549 335 -670 82 -135 249 -385 320 -480 273 -360 648 -723 1020
-987 352 -249 685 -413 1116 -548 462 -145 774 -188 1279 -177 294 7 450 22
675 68 399 81 662 169 1035 346 302 144 644 359 855 537 499 422 849 846 1123
1362 366 691 556 1467 556 2279 -1 955 -241 1852 -712 2650 -153 260 -280 437
-496 687 -372 431 -836 798 -1316 1038 -142 71 -241 113 -454 191 -417 153
-636 198 -1141 234 -201 14 -252 15 -375 8z m750 -392 c332 -46 463 -82 792
-215 556 -224 933 -466 1325 -849 377 -369 677 -790 893 -1256 322 -693 470
-1353 470 -2092 0 -552 -81 -1040 -258 -1559 -277 -807 -803 -1511 -1512
-2021 -175 -126 -457 -287 -675 -384 -408 -182 -627 -249 -1040 -319 -253 -43
-792 -55 -1027 -23 -160 22 -315 52 -393 76 -33 11 -75 23 -94 26 -65 14 -346
112 -496 174 -170 71 -385 180 -524 266 -352 217 -780 606 -1079 979 -83 103
-263 366 -341 499 -173 295 -348 684 -455 1016 -92 281 -180 698 -206 976 -18
194 -24 593 -11 770 46 641 228 1259 528 1805 110 198 290 470 417 630 132
165 477 508 646 644 595 475 1252 757 1995 855 217 29 210 29 565 26 268 -2
352 -6 480 -24z"/>
        <path d="M4720 9179 c-950 -52 -1935 -531 -2580 -1253 -410 -460 -689 -973
-825 -1516 -34 -134 -49 -206 -50 -225 0 -12 72 -11 925 15 349 10 763 21 920
25 765 16 1175 25 1280 30 63 3 237 10 385 16 149 5 367 14 485 19 118 5 409
14 645 20 237 6 531 15 655 20 124 6 416 14 650 20 234 6 522 15 640 20 118 5
308 10 421 10 113 0 208 3 211 6 16 16 -101 376 -193 593 -142 337 -453 807
-717 1086 -430 453 -904 749 -1555 971 -239 82 -505 127 -837 144 -205 10
-263 10 -460 -1z m545 -69 c333 -23 549 -66 820 -164 189 -69 261 -100 465
-202 355 -177 603 -356 885 -639 195 -194 279 -294 426 -505 210 -301 336
-539 453 -858 39 -106 96 -281 96 -294 0 -3 -141 -8 -312 -11 -346 -7 -1080
-31 -1453 -47 -349 -14 -492 -19 -960 -30 -231 -6 -591 -17 -800 -25 -473 -18
-978 -32 -1600 -45 -664 -14 -878 -19 -1185 -30 -146 -5 -374 -12 -508 -16
-232 -6 -242 -6 -242 12 0 35 60 257 106 392 131 388 354 781 642 1131 99 120
336 354 467 460 646 525 1359 816 2145 874 104 8 416 6 555 -3z"/>
        <path d="M4971 8878 c-5 -13 -24 -124 -41 -248 -18 -124 -38 -242 -45 -262
l-13 -38 39 0 c43 0 45 3 24 40 -16 28 -19 97 -6 118 5 8 22 12 42 10 l34 -3
14 -82 14 -83 55 0 c52 0 54 1 48 23 -3 12 -13 65 -21 117 -34 207 -67 386
-75 408 -7 15 -18 22 -35 22 -17 0 -28 -7 -34 -22z m18 -325 c1 -30 -2 -33
-30 -33 -30 0 -31 2 -26 33 3 17 9 55 12 82 4 28 9 57 12 65 6 17 31 -97 32
-147z"/>
        <path d="M5210 8881 c0 -6 5 -13 10 -16 13 -8 13 -153 -1 -330 -8 -107 -15
-147 -29 -171 -23 -37 -18 -44 28 -44 33 0 34 1 26 28 -17 58 -2 406 16 371 4
-8 29 -90 55 -184 61 -222 63 -227 89 -223 19 3 22 12 28 108 22 319 28 381
43 409 20 39 20 37 -16 45 -44 8 -51 0 -32 -38 13 -28 14 -52 8 -140 -4 -59
-11 -104 -16 -100 -5 3 -9 13 -9 23 0 30 -72 255 -84 263 -16 11 -116 10 -116
-1z"/>
        <path d="M4441 8867 c-76 -39 -101 -179 -61 -345 24 -102 64 -185 104 -219 38
-32 89 -27 140 12 42 32 45 56 21 184 -9 45 -13 87 -9 93 5 8 -8 9 -46 5 -29
-4 -54 -8 -56 -10 -2 -2 5 -66 16 -142 14 -94 17 -142 10 -149 -19 -19 -35 14
-46 97 -6 45 -24 162 -39 260 -29 179 -29 204 4 215 18 6 87 -71 101 -112 11
-36 36 -52 26 -18 -3 9 -10 45 -17 80 -12 64 -17 70 -37 50 -10 -10 -17 -10
-32 0 -25 15 -48 15 -79 -1z"/>
        <path d="M5584 8816 c0 -22 -14 -129 -31 -236 -17 -107 -34 -216 -37 -242 l-5
-47 57 -11 c31 -6 69 -13 83 -16 39 -7 93 43 118 110 23 63 51 202 51 257 0
127 -52 209 -132 209 -24 0 -57 4 -73 9 -30 8 -30 8 -31 -33z m146 -28 c0 -34
-67 -469 -76 -492 -7 -17 -29 -21 -38 -8 -3 5 8 85 24 178 16 93 32 203 36
244 4 41 10 85 15 97 12 32 39 19 39 -19z"/>
        <path d="M4215 8823 c-36 -9 -39 -21 -12 -53 15 -17 31 -48 36 -68 22 -82 38
-172 30 -172 -4 0 -11 9 -14 20 -8 27 -140 226 -155 235 -7 4 -39 -1 -71 -10
l-59 -18 20 -22 c25 -26 39 -69 87 -265 28 -115 34 -158 30 -208 l-5 -62 37 6
c51 9 58 20 34 46 -11 13 -26 33 -32 45 -14 28 -84 310 -79 323 2 6 57 -73
123 -174 98 -151 124 -185 143 -185 27 -1 28 -12 -13 169 -58 257 -67 303 -63
347 3 47 -2 54 -37 46z"/>
        <path d="M3813 8706 c-38 -16 -50 -25 -41 -34 14 -14 168 -468 168 -497 0 -33
6 -34 65 -12 54 19 54 20 41 46 -24 47 -167 501 -161 511 9 15 -14 10 -72 -14z"/>
        <path d="M6096 8676 c-39 -40 -66 -120 -66 -190 0 -28 11 -86 25 -129 27 -83
31 -136 15 -168 -28 -51 -68 -1 -77 95 -7 76 -14 75 -37 -3 -21 -71 -21 -95 0
-87 9 4 28 -4 46 -19 59 -49 115 -21 158 79 34 82 36 146 5 273 -30 127 -30
157 1 161 31 4 55 -40 62 -112 l5 -61 18 69 c19 73 17 91 -8 82 -9 -4 -23 4
-35 19 -29 37 -72 34 -112 -9z"/>
        <path d="M3603 8629 c-24 -11 -43 -21 -43 -22 0 -2 23 -55 51 -118 27 -63 56
-127 63 -144 28 -63 96 -244 96 -254 0 -6 4 -11 10 -11 8 0 87 37 99 47 3 2
-3 17 -13 34 -20 33 -159 369 -184 442 -9 26 -21 47 -26 47 -6 -1 -30 -10 -53
-21z"/>
        <path d="M6339 8593 c-28 -71 -38 -103 -31 -103 3 0 25 19 49 42 23 23 45 39
48 36 7 -7 -140 -445 -156 -464 -7 -9 3 -19 37 -38 56 -31 64 -32 64 -5 0 40
157 475 168 465 3 -4 8 -36 12 -74 l6 -67 18 40 c44 98 48 90 -71 145 -58 28
-112 50 -120 50 -7 0 -18 -12 -24 -27z"/>
        <path d="M3457 8564 c-45 -23 -48 -27 -34 -42 9 -9 37 -69 62 -132 26 -63 67
-161 91 -216 24 -56 44 -111 44 -122 0 -12 4 -23 9 -26 7 -5 97 27 108 38 1 1
-25 62 -58 135 -33 72 -58 137 -56 144 2 7 -1 19 -8 27 -6 8 -31 61 -55 118
-24 56 -46 102 -49 102 -3 -1 -28 -12 -54 -26z"/>
        <path d="M3235 8455 c-44 -25 -95 -53 -112 -62 -18 -9 -33 -21 -33 -27 0 -16
54 -116 63 -116 4 0 7 32 7 70 0 39 4 70 8 70 5 0 47 -75 95 -167 48 -93 101
-193 117 -223 16 -30 31 -63 34 -72 5 -16 10 -15 58 9 29 14 54 27 56 28 2 2
-7 14 -20 28 -13 13 -40 60 -62 103 -21 44 -69 136 -107 205 -38 69 -69 131
-69 137 0 16 44 -6 88 -43 16 -14 32 -25 35 -25 3 0 -9 29 -26 65 -17 36 -36
65 -42 65 -5 0 -46 -20 -90 -45z"/>
        <path d="M6628 8396 c-20 -45 -61 -138 -92 -208 -33 -74 -56 -141 -56 -161 0
-65 79 -128 134 -108 38 15 69 65 141 226 37 83 78 161 91 176 31 32 30 35 -6
54 -40 21 -41 20 -34 -23 5 -32 -3 -60 -51 -173 -96 -225 -115 -252 -168 -247
-24 2 -33 8 -35 25 -3 19 108 283 174 415 13 26 24 49 24 52 0 2 -19 15 -43
28 l-44 25 -35 -81z"/>
        <path d="M6880 8158 c-40 -73 -91 -167 -113 -208 -22 -41 -46 -82 -53 -91 -12
-14 -9 -20 25 -47 40 -32 61 -40 61 -23 0 6 25 58 56 116 60 113 85 128 66 41
-5 -25 -7 -46 -3 -46 8 0 91 163 86 168 -2 3 -16 -6 -32 -18 -15 -12 -29 -17
-31 -12 -6 19 78 172 94 172 14 0 16 -10 11 -62 -3 -35 -8 -73 -12 -85 -4 -13
-3 -23 1 -23 13 0 74 105 74 127 -1 16 -108 105 -144 119 -8 3 -38 -40 -86
-128z"/>
        <path d="M2885 8245 c-21 -20 -25 -34 -25 -82 1 -165 190 -403 319 -403 34 0
50 15 22 23 -27 7 -284 383 -298 435 -6 27 0 37 21 29 13 -5 262 -372 296
-436 12 -24 13 -24 26 -6 34 46 0 182 -71 289 -41 63 -133 152 -170 166 -47
18 -94 12 -120 -15z"/>
        <path d="M7085 7943 c-60 -92 -124 -186 -141 -209 l-32 -41 40 -42 c39 -39 58
-45 58 -16 0 17 110 185 121 185 12 0 11 -37 -2 -61 -6 -11 -9 -24 -7 -30 2
-5 27 27 57 71 30 44 52 83 48 86 -3 3 -19 -4 -36 -17 -17 -12 -34 -20 -37
-16 -9 9 97 167 112 167 20 0 18 -47 -5 -113 -11 -32 -16 -57 -11 -57 11 0 90
114 90 129 0 6 -3 11 -7 11 -5 0 -37 27 -72 60 -35 33 -64 60 -65 60 -1 0 -50
-75 -111 -167z"/>
        <path d="M2588 8013 l-36 -36 38 -46 c62 -74 290 -363 299 -379 7 -12 16 -9
50 18 22 18 41 35 41 37 0 2 -31 41 -68 86 -111 133 -250 315 -257 337 -9 29
-25 25 -67 -17z"/>
        <path d="M2466 7885 c-3 -8 -14 -15 -25 -15 -33 0 -51 -11 -66 -41 -21 -40
-18 -76 9 -136 93 -199 325 -354 404 -270 28 30 29 94 2 147 -26 50 -34 52
-16 3 8 -21 17 -50 20 -65 7 -30 -8 -78 -24 -78 -16 0 -375 370 -378 390 -4
24 32 44 66 35 15 -3 44 -18 65 -31 22 -14 41 -23 44 -21 6 6 -76 97 -87 97
-4 0 -10 -7 -14 -15z"/>
        <path d="M2942 7810 c2 -8 16 -54 32 -102 l28 -88 29 23 c15 12 28 26 28 30 1
6 -80 107 -117 147 -2 3 -2 -2 0 -10z"/>
        <path d="M7262 7414 c-12 -8 -22 -19 -22 -24 0 -27 269 -130 412 -160 73 -14
105 -45 113 -108 31 -253 77 -487 101 -512 12 -12 16 -12 31 3 16 15 16 21 0
89 -30 130 -47 241 -47 323 -1 44 -6 103 -11 130 -6 28 -11 64 -12 80 -2 28 0
30 42 35 57 6 90 45 75 87 -18 52 -104 69 -104 21 0 -16 5 -19 24 -14 29 7 50
-15 41 -44 -5 -15 -15 -20 -40 -20 -19 0 -45 -5 -59 -11 -20 -9 -33 -8 -66 5
-22 9 -58 16 -80 16 -78 0 -245 49 -323 94 -52 31 -47 30 -75 10z"/>
        <path d="M1944 7189 c-10 -11 -31 -44 -45 -72 -24 -50 -27 -52 -83 -63 -70
-14 -83 -30 -91 -110 -8 -73 -1 -111 33 -181 l25 -51 -22 -51 c-25 -58 -36
-128 -27 -165 19 -76 174 -74 326 4 187 97 368 313 415 499 38 146 -27 194
-203 150 -50 -12 -101 -19 -114 -16 -12 4 -49 22 -82 42 -67 40 -105 44 -132
14z m332 -125 c10 -41 -1 -115 -26 -168 -71 -148 -311 -313 -401 -276 -31 13
-49 37 -49 64 0 12 11 16 48 16 150 0 353 204 359 360 1 30 2 56 3 58 0 1 13
-4 30 -13 16 -8 33 -27 36 -41z"/>
        <path d="M7878 6243 c-76 -2 -138 -7 -137 -11 0 -4 21 -20 47 -37 33 -21 56
-47 77 -85 47 -87 43 -120 -84 -620 -148 -587 -181 -714 -190 -723 -14 -14
-85 264 -207 808 -80 357 -85 415 -38 507 21 42 81 105 117 125 16 8 26 17 24
20 -8 8 -697 -19 -697 -28 0 -4 10 -9 23 -13 35 -8 88 -66 115 -125 22 -47 24
-63 19 -130 -7 -104 -179 -780 -294 -1153 -9 -31 -20 -20 -36 40 -99 358 -252
996 -263 1090 -6 57 -4 68 25 126 29 59 80 113 135 143 20 11 -582 8 -674 -3
l-45 -6 30 -13 c17 -6 54 -34 83 -60 101 -91 105 -105 336 -1045 36 -146 84
-335 106 -420 23 -85 51 -193 63 -240 l22 -85 90 1 c182 3 324 9 330 15 3 4
24 73 45 155 58 218 220 846 220 852 0 3 4 2 9 -3 5 -6 30 -102 55 -215 26
-113 79 -336 118 -497 l72 -292 85 -7 c46 -3 141 -3 210 2 l125 9 38 150 c21
83 115 456 209 830 94 374 182 706 194 738 32 77 74 133 131 174 l48 33 -200
-2 c-109 -1 -261 -4 -336 -5z"/>
        <path d="M5125 6139 c-71 -3 -212 -7 -312 -8 -168 -1 -228 -10 -169 -25 42
-10 120 -81 149 -134 23 -42 30 -73 37 -150 11 -115 27 -592 36 -1029 l7 -312
-27 -54 c-24 -50 -83 -114 -132 -144 -27 -17 92 -16 391 2 132 8 248 15 259
15 12 0 1 11 -30 33 -53 35 -107 107 -124 165 -11 38 -34 552 -25 561 6 6 -6
22 141 -184 167 -235 284 -422 284 -455 0 -27 -44 -100 -60 -100 -6 0 -10 -4
-10 -8 0 -10 589 -25 614 -16 12 5 -2 19 -56 56 -102 70 -169 138 -242 248
-185 278 -328 502 -323 506 3 3 24 10 47 15 54 12 114 54 178 124 133 145 175
365 108 562 -62 182 -166 283 -339 329 -55 15 -179 16 -402 3z m335 -234 c80
-41 125 -160 118 -313 -3 -84 -8 -105 -34 -157 -21 -40 -45 -70 -73 -90 -58
-41 -149 -43 -232 -4 l-56 26 -6 123 c-4 68 -7 181 -7 251 0 146 -6 136 100
171 62 20 143 17 190 -7z"/>
        <path d="M3970 6100 c-311 -5 -327 -6 -380 -28 -86 -36 -145 -78 -213 -152
-79 -86 -166 -253 -205 -395 -25 -94 -27 -112 -26 -300 1 -183 3 -208 27 -295
46 -170 121 -323 214 -437 24 -29 43 -58 43 -64 0 -23 -63 -110 -108 -149
l-45 -40 314 1 c243 1 326 4 368 16 272 74 486 387 521 764 29 307 -72 635
-258 841 l-36 40 23 44 c13 24 50 68 82 99 33 31 59 58 59 61 0 2 -12 3 -27 2
-16 -1 -174 -5 -353 -8z m-163 -247 c-37 -173 -223 -949 -256 -1072 -7 -25
-16 -40 -21 -35 -13 13 -39 170 -56 349 -18 179 -13 395 11 507 39 185 129
275 279 277 48 1 48 1 43 -26z m302 -330 c26 -110 33 -167 40 -327 9 -189 -1
-400 -24 -488 -30 -120 -88 -198 -175 -237 -41 -19 -120 -28 -132 -16 -3 3 32
157 78 343 45 185 99 411 119 502 40 181 65 270 76 270 4 0 12 -21 18 -47z"/>
        <path d="M2375 6059 c-115 -4 -385 -13 -599 -19 -214 -5 -391 -12 -393 -14 -2
-2 3 -48 11 -102 8 -54 20 -144 27 -199 14 -111 23 -143 34 -110 19 57 29 75
61 108 71 73 166 95 416 96 l77 1 5 -42 c3 -24 17 -162 31 -308 24 -246 45
-444 80 -765 30 -278 31 -305 2 -362 -15 -29 -52 -74 -88 -106 l-61 -56 148 5
c82 3 227 9 322 14 95 6 188 10 207 10 45 0 44 12 0 33 -52 25 -121 93 -145
142 -16 33 -24 76 -31 172 -12 167 -50 582 -89 961 -17 167 -28 306 -26 311 3
4 85 8 183 9 l178 2 60 -29 c67 -32 103 -63 142 -122 14 -22 27 -38 29 -37 1
2 -6 96 -16 208 -11 113 -20 206 -20 208 0 4 -333 -1 -545 -9z"/>
        <path d="M8318 4205 c-3 -3 -414 -8 -914 -10 -1087 -5 -2164 -20 -2474 -34
-124 -5 -466 -15 -760 -21 -294 -5 -632 -15 -750 -20 -118 -5 -291 -12 -385
-15 -93 -3 -320 -13 -503 -21 -322 -14 -631 -27 -989 -40 -94 -4 -177 -10
-183 -14 -14 -8 109 -370 191 -563 99 -231 260 -521 409 -737 369 -533 870
-978 1408 -1249 181 -91 241 -117 442 -194 348 -133 714 -199 1110 -200 557
-2 951 85 1495 328 283 127 617 335 850 529 159 133 436 421 588 613 337 425
601 986 717 1523 31 143 42 130 -113 130 -74 0 -136 -2 -139 -5z m202 -70 c0
-8 -18 -83 -39 -167 -155 -600 -440 -1124 -869 -1602 -275 -306 -562 -536
-922 -741 -418 -238 -827 -383 -1260 -447 -136 -19 -195 -22 -480 -23 -362 0
-414 5 -695 65 -295 64 -569 164 -885 326 -262 134 -461 270 -695 477 -546
480 -937 1065 -1181 1765 -30 84 -54 161 -54 171 0 21 44 26 345 36 88 3 302
12 475 20 173 8 448 19 610 25 162 6 390 15 505 20 116 6 460 15 765 20 559
10 602 11 940 31 102 6 455 12 785 14 330 2 1011 7 1514 10 503 3 917 8 920
10 2 3 53 5 113 5 89 0 108 -3 108 -15z"/>
        <path d="M5554 3930 c-35 -14 -64 -59 -64 -100 0 -45 23 -69 102 -103 43 -19
59 -32 64 -51 8 -33 -17 -73 -50 -82 -34 -8 -82 20 -94 56 -14 40 -32 38 -32
-2 0 -41 10 -57 35 -58 11 0 41 -3 67 -6 43 -5 50 -3 78 24 28 29 36 54 30
107 -3 28 -47 73 -79 80 -15 3 -42 15 -60 26 -41 25 -40 65 1 88 38 21 78 5
100 -39 13 -28 18 -32 23 -18 9 24 2 63 -12 61 -6 -2 -28 4 -47 12 -19 8 -37
15 -38 14 -2 0 -13 -4 -24 -9z"/>
        <path d="M6456 3931 c-19 -7 -19 -8 2 -13 21 -6 22 -10 22 -156 0 -135 -2
-151 -17 -155 -10 -3 25 -5 77 -6 81 -1 101 3 134 22 54 30 79 75 79 142 0
118 -67 176 -203 174 -41 0 -84 -4 -94 -8z m191 -35 c27 -24 28 -27 28 -130 0
-122 -12 -143 -84 -153 l-41 -6 0 157 0 156 34 0 c22 0 45 -9 63 -24z"/>
        <path d="M5315 3921 c-28 -6 -28 -7 -7 -13 22 -6 22 -9 22 -157 0 -128 -2
-151 -15 -151 -8 0 -15 -4 -15 -10 0 -13 90 -13 110 0 13 8 12 10 -2 10 -16 0
-18 14 -18 155 0 148 1 155 20 155 11 0 20 5 20 10 0 11 -68 12 -115 1z"/>
        <path d="M5760 3920 c0 -5 5 -10 10 -10 6 0 10 -58 10 -154 0 -139 -2 -155
-17 -159 -10 -3 14 -5 52 -5 39 0 62 2 53 5 -15 4 -18 16 -18 79 l0 75 63 -3
62 -3 3 -63 c2 -38 -2 -69 -9 -78 -10 -12 -2 -14 50 -14 39 0 60 4 56 10 -3 6
-13 10 -21 10 -11 0 -14 26 -14 150 0 127 2 150 15 150 8 0 15 5 15 10 0 6
-22 10 -48 10 l-49 0 1 -77 1 -78 -63 -3 -62 -3 0 71 c0 40 4 70 10 70 6 0 10
5 10 10 0 6 -25 10 -55 10 -30 0 -55 -4 -55 -10z"/>
        <path d="M6132 3921 c-10 -6 -9 -10 7 -14 20 -5 21 -12 21 -150 0 -141 -1
-145 -22 -153 -15 -5 23 -9 106 -11 72 -2 136 -1 143 1 15 6 18 96 3 96 -5 0
-10 -6 -10 -14 0 -7 -9 -25 -21 -40 -19 -24 -27 -27 -78 -24 l-56 3 -2 35 c-1
19 1 50 4 68 4 26 10 32 29 32 16 0 28 -8 36 -25 17 -38 25 -30 27 31 2 71 -6
84 -30 45 -18 -30 -54 -42 -61 -21 -1 5 -1 37 0 70 l4 60 46 0 c55 0 64 -5 85
-45 l16 -30 1 48 0 47 -117 0 c-65 0 -124 -4 -131 -9z"/>
        <path d="M4990 3904 c0 -3 7 -12 15 -20 12 -12 15 -44 15 -155 0 -135 -1 -140
-22 -149 -28 -11 119 -12 197 -2 l50 7 3 48 c3 52 -13 64 -23 17 -8 -35 -35
-55 -86 -64 -24 -4 -39 -2 -46 6 -5 7 -10 77 -12 155 -3 142 -3 143 21 152 18
8 8 10 -44 10 -38 1 -68 -2 -68 -5z"/>
        <path d="M7841 3891 c-24 -19 -24 -20 -12 -88 13 -74 9 -106 -19 -163 -31 -62
-103 -110 -164 -110 -19 0 -25 -6 -30 -35 -7 -38 7 -75 28 -75 31 0 94 -59
111 -104 17 -45 19 -46 62 -46 51 0 76 -11 121 -53 l32 -31 45 22 c42 20 45
24 34 43 -6 13 -10 52 -7 94 3 58 9 80 31 113 29 44 80 76 140 87 28 5 42 15
53 36 15 29 14 30 -35 82 -50 53 -71 91 -71 128 0 11 -15 33 -32 49 -31 28
-37 30 -90 24 -48 -5 -66 -2 -114 20 -31 14 -57 26 -58 26 0 0 -12 -9 -25 -19z"/>
        <path d="M4700 3891 c-48 -5 -52 -7 -35 -18 18 -11 20 -24 23 -157 3 -128 1
-146 -12 -146 -9 0 -16 -5 -16 -11 0 -15 173 -2 217 17 68 27 78 119 16 146
-16 7 -29 13 -31 14 -2 1 11 15 28 32 33 33 36 48 19 85 -20 45 -65 53 -209
38z m138 -23 c29 -29 5 -118 -31 -118 -7 0 -22 -3 -34 -6 -22 -6 -23 -4 -23
65 l0 71 38 0 c21 0 43 -5 50 -12z m20 -165 c18 -24 15 -77 -6 -103 -13 -16
-30 -23 -58 -24 l-39 -1 -3 72 c-2 62 0 72 15 76 30 9 77 -2 91 -20z"/>
        <path d="M4150 3880 l-135 -5 -3 -39 c-2 -21 1 -43 7 -49 8 -8 11 -6 11 5 0
30 40 68 71 68 l29 0 0 -150 c0 -127 -2 -150 -16 -158 -25 -14 -5 -19 59 -14
57 4 74 15 37 25 -19 5 -20 14 -20 151 0 159 3 166 54 146 16 -6 33 -24 42
-45 18 -45 24 -44 24 3 0 65 -7 68 -160 62z"/>
        <path d="M4441 3848 c-10 -24 -35 -95 -56 -158 -20 -63 -44 -120 -51 -126 -22
-18 -17 -24 21 -24 19 0 35 5 35 10 0 6 -6 10 -14 10 -13 0 -13 6 1 45 l15 45
52 0 c52 0 53 0 64 -37 10 -32 9 -40 -4 -50 -8 -6 -12 -13 -7 -16 13 -8 123 5
123 14 0 5 -7 9 -15 9 -18 0 -38 44 -89 197 -21 62 -42 115 -47 119 -5 3 -17
-14 -28 -38z m38 -165 c1 -9 -13 -13 -39 -13 -22 0 -40 2 -40 4 0 4 27 82 36
106 4 10 13 -3 24 -35 10 -27 19 -56 19 -62z"/>
        <path d="M3793 3861 c-23 -15 -34 -30 -39 -57 -12 -65 7 -86 131 -141 34 -15
41 -23 43 -51 4 -37 -10 -60 -46 -73 -35 -14 -90 13 -103 51 -16 43 -29 37
-29 -13 0 -50 7 -62 27 -45 10 8 20 8 39 -1 61 -27 107 -8 136 55 35 79 1 136
-100 169 -63 20 -81 45 -58 81 33 49 108 40 128 -16 14 -42 28 -37 28 9 0 34
-3 39 -22 39 -13 0 -41 3 -63 7 -31 5 -47 1 -72 -14z"/>
        <path d="M3485 3860 c-44 -3 -73 -7 -64 -8 21 -3 29 -60 29 -203 0 -89 -3
-110 -16 -117 -29 -16 -1 -20 129 -14 l127 5 0 51 c-1 51 -1 51 -14 21 -19
-44 -35 -53 -96 -56 l-55 -3 -3 77 c-3 71 -1 77 17 77 23 0 51 -25 51 -46 0
-8 5 -14 10 -14 11 0 14 113 3 123 -3 4 -11 -3 -17 -16 -7 -13 -23 -23 -39
-25 -26 -3 -27 -2 -28 52 -1 31 -2 62 -3 69 -1 14 63 22 101 12 15 -3 30 -19
38 -38 l14 -32 1 48 0 47 -52 -2 c-29 -1 -89 -5 -133 -8z"/>
        <path d="M1885 3766 c-11 -8 -16 -19 -12 -30 4 -10 -1 -32 -10 -49 -19 -37
-28 -157 -12 -157 12 0 184 87 237 120 34 21 35 40 1 40 -11 0 -30 12 -42 26
-15 17 -36 27 -64 31 -24 3 -48 12 -54 19 -14 17 -20 17 -44 0z"/>
        <path d="M2048 3602 c-21 -10 -38 -20 -38 -23 0 -7 61 -19 98 -19 22 0 22 1 7
30 -18 34 -17 34 -67 12z"/>
        <path d="M1900 3508 c0 -23 33 -68 53 -72 89 -19 260 -46 263 -43 2 2 -6 19
-19 38 -17 25 -32 35 -62 41 -22 3 -84 15 -137 26 -54 10 -98 15 -98 10z"/>
        <path d="M6000 3509 c-465 -8 -825 -19 -1235 -39 -104 -5 -359 -14 -565 -20
-841 -26 -775 -22 -778 -48 -3 -23 -2 -23 50 -18 29 3 172 8 318 11 306 7 922
31 1155 45 88 5 522 14 964 20 471 6 809 14 814 19 5 5 7 17 4 25 -7 18 56 18
-727 5z"/>
        <path d="M5431 3347 c-32 -16 -52 -49 -42 -66 15 -23 44 -5 38 24 -5 30 6 39
39 31 21 -6 24 -12 24 -54 0 -53 -12 -72 -47 -72 -35 0 -27 -18 9 -22 47 -4
66 -46 47 -102 -13 -39 -16 -41 -54 -41 -31 0 -39 4 -36 15 10 38 6 55 -14 55
-33 0 -32 -48 2 -75 48 -38 142 -11 164 47 14 38 -5 88 -41 105 l-30 14 30 23
c49 36 38 99 -21 120 -39 14 -39 14 -68 -2z"/>
        <path d="M1990 3330 c0 -40 32 -57 150 -80 63 -13 125 -25 138 -28 29 -6 29
17 -1 50 -16 18 -42 29 -83 36 -32 6 -92 18 -131 25 -69 14 -73 14 -73 -3z"/>
        <path d="M5194 3340 c-24 -10 -64 -56 -64 -76 0 -7 7 -20 16 -29 12 -12 19
-13 30 -4 20 16 17 37 -6 44 -27 9 -10 40 26 49 39 10 64 -17 64 -69 0 -46
-12 -66 -93 -153 -27 -29 -47 -58 -44 -65 5 -16 179 -10 189 6 11 17 10 67 -1
67 -5 0 -11 -9 -14 -20 -5 -21 -46 -27 -95 -14 -21 6 -18 12 48 80 65 67 71
76 68 110 -5 55 -72 95 -124 74z"/>
        <path d="M4954 3330 c-56 -22 -94 -129 -75 -207 24 -94 77 -131 141 -98 91 47
91 253 1 299 -34 18 -37 18 -67 6z m67 -40 c11 -39 10 -181 -2 -222 -8 -30
-15 -38 -32 -38 -42 0 -47 17 -47 145 0 130 6 148 50 143 16 -2 26 -11 31 -28z"/>
        <path d="M4666 3295 c-29 -27 -34 -66 -10 -85 12 -11 18 -10 32 4 16 16 16 18
-6 35 -23 17 -23 19 -7 35 27 26 77 18 89 -15 17 -51 -1 -96 -70 -168 -35 -38
-64 -76 -64 -86 0 -16 8 -17 92 -11 97 6 108 12 108 59 0 31 -7 34 -25 10 -8
-11 -32 -18 -71 -21 l-59 -4 66 68 c97 101 109 134 64 179 -34 35 -101 35
-139 0z"/>
        <path d="M5770 3243 c-31 -11 -90 -56 -90 -69 0 -18 14 -18 30 0 6 8 30 22 54
31 55 21 109 9 222 -50 94 -50 127 -54 191 -25 52 23 113 71 113 88 0 20 -19
14 -67 -23 -26 -20 -57 -38 -70 -41 -45 -12 -111 3 -165 36 -76 47 -170 70
-218 53z"/>
        <path d="M4345 3191 c-35 -9 -76 -30 -142 -71 -67 -43 -120 -41 -196 6 -68 42
-99 35 -45 -11 90 -76 156 -82 254 -23 77 47 161 78 209 78 18 0 49 -11 69
-25 38 -26 56 -31 56 -17 0 14 -33 40 -73 57 -38 16 -82 18 -132 6z"/>
        <path d="M2080 3163 c0 -5 8 -21 18 -37 16 -27 27 -31 152 -56 74 -15 137 -26
138 -24 6 5 -8 38 -26 61 -13 17 -41 26 -134 42 -128 23 -148 25 -148 14z"/>
        <path d="M7356 3126 c-21 -33 -21 -35 12 -47 23 -8 102 -104 102 -123 0 -4
-36 12 -80 34 -44 22 -80 45 -80 51 0 20 -19 4 -55 -46 l-35 -50 27 -6 c16 -3
79 -32 141 -63 84 -42 130 -73 175 -116 33 -33 63 -57 67 -55 4 2 20 23 36 46
20 30 25 44 16 47 -17 5 -100 71 -140 111 -47 48 -123 157 -137 199 -16 45
-28 50 -49 18z"/>
        <path d="M2303 2968 c-90 -45 -123 -66 -123 -80 0 -20 21 -23 53 -7 18 9 20 9
10 -2 -7 -7 -13 -18 -13 -24 0 -13 42 -35 66 -35 9 0 31 -7 50 -16 28 -14 37
-14 50 -3 8 7 13 21 10 32 -3 11 4 32 16 48 15 20 19 37 15 62 -3 19 -1 39 5
45 11 11 4 42 -9 42 -4 -1 -63 -29 -130 -62z"/>
        <path d="M2160 2995 c0 -8 30 -65 34 -65 13 0 86 49 79 53 -14 8 -113 19 -113
12z"/>
        <path d="M7122 2839 c-40 -44 -72 -83 -72 -87 0 -11 82 -103 87 -98 3 2 -1 15
-8 28 -15 28 -29 98 -20 98 14 0 281 -300 281 -315 0 -25 13 -17 58 35 27 31
38 50 28 50 -14 0 -296 287 -296 302 0 13 33 9 78 -12 23 -10 42 -16 42 -12 0
11 -84 92 -95 92 -6 0 -43 -36 -83 -81z"/>
        <path d="M2715 2619 c-93 -71 -177 -129 -187 -129 -28 0 -31 -20 -7 -46 22
-23 24 -24 36 -8 7 10 13 26 13 35 0 26 58 65 79 52 27 -17 24 -42 -13 -94
l-37 -50 33 -39 c18 -21 36 -36 39 -34 11 6 259 393 259 402 0 9 -33 42 -41
41 -2 0 -80 -58 -174 -130z m25 -39 c-22 -33 -44 -60 -48 -60 -10 0 -32 22
-32 31 0 6 110 89 118 89 1 0 -16 -27 -38 -60z"/>
        <path d="M6965 2679 c-35 -31 -46 -59 -22 -59 7 0 39 -34 72 -77 147 -188 184
-239 185 -250 0 -28 24 -23 61 13 l39 38 -34 36 c-51 54 -172 207 -213 271
-21 32 -41 58 -45 59 -4 0 -23 -14 -43 -31z"/>
        <path d="M6782 2519 c-38 -28 -55 -59 -33 -59 16 0 251 -342 251 -366 0 -9 31
12 79 52 l80 66 -51 75 c-28 40 -53 72 -56 69 -3 -3 3 -25 12 -49 21 -55 26
-122 8 -122 -16 0 -232 323 -232 347 0 25 -10 23 -58 -13z"/>
        <path d="M3123 2471 c-34 -21 -88 -89 -105 -131 -5 -14 -13 -71 -17 -128 -8
-113 -24 -147 -59 -126 -23 15 -27 66 -8 121 9 26 14 48 12 50 -2 2 -22 -22
-45 -54 -38 -54 -39 -58 -21 -65 11 -4 20 -13 20 -21 0 -24 45 -57 77 -57 46
0 110 54 149 125 32 56 34 66 34 156 0 102 9 124 47 117 24 -4 28 -53 10 -106
-19 -55 -9 -53 28 6 39 61 39 62 23 62 -7 1 -22 15 -33 33 -25 40 -66 46 -112
18z"/>
        <path d="M6605 2386 c-18 -13 -18 -16 9 -87 75 -199 116 -323 116 -353 0 -45
8 -49 43 -24 28 20 29 22 12 34 -52 38 -71 108 -33 120 17 5 28 0 50 -27 16
-19 31 -44 34 -56 4 -13 8 -23 11 -23 9 0 93 63 93 70 0 4 -7 13 -16 21 -8 7
-74 86 -146 176 -72 90 -136 163 -143 163 -6 0 -20 -6 -30 -14z m114 -225 c40
-51 41 -56 25 -68 -10 -7 -21 -13 -25 -13 -6 0 -59 132 -59 148 0 8 8 -1 59
-67z"/>
        <path d="M3235 2189 c-59 -100 -116 -190 -126 -200 -11 -11 -19 -21 -19 -23 0
-4 135 -82 161 -94 6 -3 89 121 89 133 0 3 -26 -15 -57 -40 -50 -39 -103 -59
-103 -39 0 14 113 184 122 184 6 0 7 -18 3 -42 l-6 -43 25 29 c30 36 62 104
53 113 -4 3 -16 -2 -27 -12 -39 -36 -32 -4 16 70 61 93 79 98 70 19 -3 -31
-11 -65 -17 -76 -6 -11 -9 -22 -6 -24 3 -4 74 103 85 128 4 8 -132 98 -147 98
-4 0 -57 -82 -116 -181z"/>
        <path d="M6479 2291 l-24 -20 23 -17 c44 -31 169 -325 158 -370 -12 -47 -53
-41 -83 14 -38 67 -143 313 -143 333 0 25 -15 24 -67 -6 l-43 -26 23 -32 c13
-18 43 -77 67 -132 60 -140 86 -191 112 -215 31 -29 79 -26 118 7 31 25 32 29
28 87 -3 48 -17 90 -66 197 -34 75 -62 151 -62 168 0 36 -9 38 -41 12z"/>
        <path d="M3470 2068 c-47 -94 -95 -186 -107 -205 -13 -19 -23 -37 -23 -41 0
-5 36 -26 81 -47 68 -33 82 -37 90 -25 29 45 80 142 77 146 -2 2 -29 -21 -58
-51 -51 -52 -90 -70 -90 -43 0 18 179 349 201 372 18 19 17 20 -19 43 -20 12
-44 22 -52 22 -9 -1 -48 -67 -100 -171z"/>
        <path d="M6135 2116 c-51 -51 -41 -200 22 -325 26 -50 86 -110 125 -124 14 -5
16 -14 13 -39 l-5 -33 16 34 16 35 17 -40 c25 -55 45 -70 76 -56 20 9 25 19
25 46 0 43 -21 100 -27 74 -5 -21 -13 -22 -37 -5 -16 11 -16 15 -1 49 40 97
-9 272 -102 365 -51 52 -99 58 -138 19z m52 -8 c21 -28 143 -367 143 -399 0
-5 -6 -9 -14 -9 -14 0 -65 116 -124 280 -43 119 -48 140 -29 140 8 0 19 -6 24
-12z"/>
        <path d="M3771 2098 c-5 -13 -39 -90 -75 -171 -36 -81 -66 -152 -66 -156 0 -5
-11 -24 -24 -44 -16 -24 -21 -37 -13 -40 7 -3 47 -21 90 -41 l77 -35 35 69
c19 38 35 75 35 81 0 6 -24 -14 -53 -45 -34 -36 -61 -56 -76 -56 -12 0 -21 4
-19 9 26 67 93 201 101 201 6 0 7 -18 4 -45 -4 -25 -3 -45 2 -45 8 0 52 92 66
138 8 27 -6 29 -23 2 -10 -17 -42 -29 -42 -15 0 2 15 39 34 82 46 104 61 103
59 -4 -1 -46 1 -83 3 -83 7 0 64 129 64 143 0 10 -143 77 -163 77 -4 0 -11
-10 -16 -22z"/>
        <path d="M4055 2001 c-36 -15 -96 -92 -134 -170 -32 -68 -36 -84 -36 -158 0
-101 20 -136 79 -141 32 -3 43 2 77 36 21 22 39 48 39 58 0 13 -7 8 -25 -19
-27 -39 -79 -72 -96 -61 -6 4 -9 20 -6 38 7 43 126 370 142 393 13 17 14 17
34 -1 16 -14 21 -33 23 -84 l3 -67 27 68 c22 57 24 67 10 67 -9 0 -25 9 -37
20 -25 23 -72 33 -100 21z"/>
        <path d="M5820 1989 c-122 -31 -140 -40 -131 -58 6 -10 22 -81 36 -158 14 -77
30 -155 35 -174 6 -19 10 -51 10 -71 0 -43 5 -45 76 -27 42 11 54 22 35 33
-11 7 -44 166 -40 191 4 21 8 18 45 -30 14 -19 15 -17 9 20 -14 85 -27 135
-36 135 -5 0 -9 -12 -9 -27 0 -28 -15 -62 -23 -53 -9 11 -39 181 -33 187 12
12 40 -12 76 -66 19 -28 36 -48 37 -44 5 16 -32 147 -42 149 -5 1 -26 -2 -45
-7z"/>
        <path d="M4226 1906 c-23 -78 -20 -83 22 -32 50 60 65 60 47 -1 -8 -27 -34
-118 -57 -203 -23 -85 -48 -162 -55 -171 -12 -15 -10 -18 18 -28 18 -6 44 -11
59 -11 22 0 28 5 27 23 0 12 24 111 53 220 45 164 56 196 66 182 6 -9 15 -36
19 -62 9 -59 24 -45 32 29 l6 56 -94 21 c-52 12 -102 24 -111 27 -13 4 -20 -7
-32 -50z"/>
        <path d="M5490 1917 c-59 -29 -91 -163 -70 -291 13 -81 38 -134 80 -170 42
-35 75 -33 115 7 53 53 70 176 39 292 -20 77 -57 141 -94 160 -35 18 -38 18
-70 2z m40 -14 c0 -5 9 -71 20 -148 11 -77 23 -177 27 -222 5 -73 4 -83 -10
-83 -9 0 -19 10 -21 23 -8 32 -45 346 -47 387 -2 48 -1 50 16 50 8 0 15 -3 15
-7z"/>
        <path d="M4519 1891 c-1 -3 0 -14 1 -24 2 -22 -57 -336 -75 -395 -7 -23 -10
-44 -6 -46 3 -2 27 -7 54 -10 l47 -7 0 38 c0 70 65 398 83 421 5 7 8 14 6 16
-8 7 -109 13 -110 7z"/>
        <path d="M4724 1848 c-129 -154 -96 -511 43 -462 38 13 90 85 110 152 35 121
15 289 -40 327 -37 26 -82 19 -113 -17z m66 -191 c-28 -244 -29 -249 -49 -245
-19 4 -19 13 11 258 21 174 32 218 50 185 6 -9 1 -86 -12 -198z"/>
        <path d="M5143 1872 c-9 -6 -8 -18 4 -52 12 -35 14 -61 8 -115 -8 -79 -6 -81
-57 65 l-33 95 -44 3 c-63 5 -76 -2 -57 -30 13 -18 16 -53 16 -178 -1 -142 -6
-194 -25 -257 -7 -21 -4 -23 29 -23 38 0 47 15 24 38 -16 16 -23 219 -11 277
9 39 10 38 69 -135 50 -149 62 -175 79 -175 19 0 20 8 25 215 4 181 8 220 22
242 9 14 14 28 11 32 -9 8 -46 7 -60 -2z"/>
    </g>
</svg>