<?xml version="1.0" standalone="no"?>
<!DOCTYPE svg PUBLIC "-//W3C//DTD SVG 20010904//EN"
 "http://www.w3.org/TR/2001/REC-SVG-20010904/DTD/svg10.dtd">
<svg version="1.0" xmlns="http://www.w3.org/2000/svg"
 width="1280.000000pt" height="960.000000pt" viewBox="0 0 1280.000000 960.000000"
 preserveAspectRatio="xMidYMid meet">

<g transform="translate(0.000000,960.000000) scale(0.100000,-0.100000)"
fill="#FFF" stroke="none">
<path d="M6430 8708 c-46 -10 -76 -29 -143 -91 l-38 -35 7 -105 c4 -60 3 -106
-2 -110 -5 -3 -36 1 -68 8 -74 17 -86 13 -86 -36 0 -27 -4 -39 -14 -39 -8 0
-17 4 -21 9 -15 26 -76 44 -157 49 -75 4 -93 1 -128 -17 -26 -13 -50 -19 -68
-15 -28 6 -54 -15 -87 -70 -9 -15 -13 -15 -50 4 -53 27 -64 26 -142 -16 -94
-50 -105 -61 -101 -103 4 -44 37 -65 128 -83 l65 -13 6 -45 c3 -25 14 -59 23
-77 13 -25 14 -36 5 -57 -10 -22 -9 -31 14 -63 58 -84 61 -130 12 -168 -34
-25 -36 -30 -33 -78 3 -46 6 -53 30 -61 21 -7 39 -4 86 17 33 15 75 27 94 27
54 0 139 48 163 92 16 29 18 42 9 55 -14 22 -97 38 -123 23 -29 -15 -66 36
-96 134 -29 95 -30 119 -10 180 8 24 12 52 9 61 -5 11 10 32 49 71 47 45 63
54 93 54 48 0 84 -23 116 -75 49 -80 96 -92 151 -41 31 29 36 84 12 126 -21
37 -19 38 33 28 26 -6 58 -12 70 -14 23 -5 23 -7 16 -57 -14 -86 -1 -401 18
-424 7 -8 -9 -13 -59 -18 -85 -8 -96 -13 -107 -59 -13 -49 11 -73 77 -81 60
-7 397 12 429 24 50 19 41 108 -12 121 -14 4 -52 0 -85 -7 -33 -8 -70 -11 -83
-8 l-22 5 2 238 3 237 83 0 c93 0 102 6 102 67 0 44 -21 55 -116 57 -18 1 -41
9 -53 19 -19 16 -20 22 -10 102 12 97 28 120 88 120 50 0 84 -25 131 -98 42
-65 74 -86 115 -76 47 12 58 37 50 110 -10 94 -48 147 -127 176 -32 11 -61 25
-64 29 -7 12 -127 9 -184 -3z"/>
<path d="M7158 8475 c-28 -28 -39 -49 -48 -93 -15 -71 -37 -120 -61 -132 -14
-8 -32 -3 -74 20 -87 47 -115 37 -118 -40 -1 -36 3 -46 28 -67 81 -66 75 -53
75 -152 0 -90 0 -91 -40 -143 -39 -52 -40 -55 -40 -135 l0 -81 50 -60 c67 -79
129 -112 212 -114 45 -1 77 5 111 21 27 11 63 21 80 21 25 0 42 11 84 56 74
80 82 138 23 169 -38 19 -90 19 -140 -1 -44 -18 -60 -39 -60 -77 0 -21 -6 -25
-42 -30 -24 -3 -60 -9 -80 -13 -37 -7 -38 -6 -58 39 -20 45 -20 48 -3 79 9 18
20 60 24 93 9 85 36 176 59 199 18 19 24 19 109 7 78 -11 93 -10 120 3 51 27
67 79 34 108 -10 9 -48 19 -86 23 -51 5 -70 11 -77 26 -13 23 -4 63 23 107 23
39 20 95 -9 157 -25 53 -49 55 -96 10z"/>
<path d="M3955 8381 c-16 -4 -47 -20 -69 -34 -21 -15 -57 -32 -80 -37 -93 -24
-105 -43 -66 -107 15 -26 26 -33 51 -33 40 0 69 -16 69 -39 0 -23 51 -188 80
-261 19 -46 23 -71 21 -161 -2 -96 1 -111 23 -152 35 -67 64 -193 47 -210 -10
-10 -25 2 -76 55 -36 37 -75 89 -89 115 -13 27 -38 61 -54 76 -96 88 -113 107
-118 136 -5 21 -38 66 -100 134 -52 56 -94 108 -94 114 0 7 18 24 40 38 52 33
65 64 45 110 -12 30 -19 35 -47 35 -18 -1 -62 -9 -98 -18 -53 -14 -66 -22 -68
-39 -3 -23 -12 -27 -74 -37 -44 -8 -101 -66 -91 -93 13 -36 25 -43 77 -40 43
1 58 -3 98 -31 26 -18 59 -51 75 -73 15 -23 53 -70 85 -104 31 -35 63 -76 72
-92 16 -32 75 -88 110 -104 11 -6 32 -32 46 -59 24 -46 154 -210 231 -292 31
-32 43 -38 79 -38 33 0 50 7 83 35 22 19 44 35 49 35 11 0 10 28 -3 64 -9 25
-8 39 4 68 l15 37 50 -50 c44 -44 54 -49 98 -51 27 -1 62 -1 78 0 16 2 44 -2
63 -9 42 -13 90 1 124 37 13 14 36 32 52 40 15 8 38 32 52 54 l25 39 57 -21
c32 -11 76 -22 98 -23 22 -2 77 -6 122 -10 l82 -6 93 60 c51 34 114 85 140
115 l47 53 -6 71 c-10 123 -53 133 -128 29 -34 -46 -45 -70 -45 -98 0 -32 -5
-40 -34 -57 -48 -28 -140 -45 -203 -38 -67 8 -129 32 -138 54 -4 9 -15 41 -26
70 l-18 53 42 19 c23 10 62 23 87 29 25 5 99 21 165 36 185 41 236 72 237 142
0 40 -14 71 -61 130 -22 29 -41 61 -41 72 0 11 -8 22 -17 24 -32 9 -278 1
-298 -10 -11 -5 -51 -18 -88 -28 -50 -13 -81 -29 -115 -57 -39 -35 -50 -39
-81 -34 -141 21 -207 26 -226 17 -11 -5 -31 -13 -45 -17 -63 -18 -183 -129
-197 -182 -17 -69 71 -131 137 -97 22 11 40 35 60 76 36 77 45 87 85 95 49 9
103 -12 126 -50 28 -47 24 -59 -29 -80 -26 -10 -69 -33 -97 -51 -27 -19 -76
-41 -107 -50 -56 -16 -58 -18 -97 -88 -37 -68 -38 -75 -31 -127 4 -30 7 -56 6
-57 -1 -1 -17 21 -36 48 -26 39 -36 65 -42 118 -4 38 -19 104 -33 146 -16 49
-24 89 -20 106 4 19 -3 46 -24 91 -28 57 -29 67 -20 105 10 36 8 47 -9 75 -10
18 -22 49 -26 68 -3 19 -19 47 -34 63 -22 23 -24 29 -12 37 8 5 22 10 31 10
28 0 42 27 35 65 -6 28 -33 59 -48 54 -2 -1 -16 -4 -33 -8z m1200 -353 c30
-14 55 -80 39 -106 -16 -26 -102 -51 -179 -52 -46 0 -84 -7 -112 -19 -22 -11
-62 -21 -89 -23 -44 -3 -48 -1 -54 23 -12 41 21 107 57 114 83 16 211 49 233
61 31 17 71 18 105 2z m-471 -392 c20 -40 31 -124 18 -141 -4 -6 -25 -19 -47
-29 -41 -19 -63 -30 -148 -73 -59 -30 -106 -25 -137 14 -35 44 -22 100 32 143
36 28 240 131 253 127 6 -2 18 -20 29 -41z"/>
<path d="M8781 8043 c-35 -23 -50 -44 -88 -123 -24 -52 -46 -96 -47 -97 -8 -8
-77 29 -104 56 -26 27 -38 32 -60 27 -36 -9 -62 -41 -62 -78 0 -39 15 -66 57
-106 30 -28 34 -38 29 -63 -17 -85 -41 -143 -75 -183 -45 -52 -74 -132 -74
-202 0 -42 7 -60 41 -110 46 -67 59 -80 117 -115 34 -20 57 -25 165 -30 134
-7 143 -5 200 44 46 39 59 64 60 108 0 47 -31 69 -97 69 -80 0 -117 -15 -136
-56 -15 -30 -21 -34 -40 -28 -12 4 -41 6 -65 5 -43 -1 -43 -1 -68 54 -29 63
-26 85 17 115 23 17 29 29 29 58 0 42 63 173 92 191 14 9 25 8 46 -2 15 -8 58
-25 95 -37 68 -24 68 -24 104 -5 19 11 42 30 50 42 14 20 13 26 -7 57 -16 27
-30 37 -58 41 -57 10 -81 22 -94 50 -10 23 -7 35 30 106 36 70 42 89 42 144 0
44 -5 68 -16 79 -21 22 -33 20 -83 -11z"/>
<path d="M7850 8024 c-72 -12 -117 -28 -138 -47 -13 -12 -25 -21 -28 -19 -19
11 -42 -4 -63 -41 -87 -156 -125 -269 -115 -341 8 -50 47 -104 133 -181 139
-126 126 -120 275 -119 147 1 242 20 266 54 8 11 27 37 43 57 53 70 28 98 -74
82 -89 -14 -99 -18 -128 -49 -30 -32 -78 -39 -171 -25 -46 7 -62 16 -105 56
-28 27 -61 68 -73 92 -24 48 -29 116 -11 149 10 18 17 20 62 13 29 -3 66 -15
83 -26 34 -21 244 -91 332 -110 29 -7 55 -16 58 -21 9 -14 46 -9 80 13 43 26
53 62 56 207 l3 114 -36 -6 c-31 -5 -40 -1 -69 29 -19 19 -39 35 -45 35 -6 0
-42 15 -80 33 -39 19 -86 37 -105 40 -57 10 -123 15 -150 11z m135 -138 c182
-48 235 -78 235 -136 0 -40 -17 -79 -36 -87 -20 -7 -97 19 -184 63 -36 18 -87
39 -115 46 -27 6 -56 17 -64 23 -8 5 -30 15 -50 20 -51 15 -48 42 9 71 57 29
93 29 205 0z"/>
<path d="M6283 7060 c-128 -27 -214 -134 -216 -268 -1 -81 20 -132 93 -233 48
-66 56 -90 44 -135 -5 -20 -13 -21 -157 -23 -84 -1 -199 4 -257 10 -58 6 -137
12 -176 14 -40 1 -77 6 -83 9 -6 4 -11 22 -11 39 0 18 -7 43 -16 55 -19 28
-54 30 -54 2 0 -15 -7 -20 -25 -20 -13 0 -35 -5 -48 -11 -16 -7 -35 -8 -58 -1
-19 5 -44 6 -55 2 -11 -5 -30 -3 -42 4 -32 17 -171 2 -222 -24 -40 -21 -71
-57 -75 -88 -1 -9 -7 -30 -14 -47 -10 -25 -9 -35 5 -68 21 -46 55 -72 118 -89
40 -10 53 -10 100 6 32 11 59 15 67 10 18 -11 107 -24 189 -28 36 -2 91 -10
123 -19 33 -9 65 -13 72 -11 7 3 31 -4 54 -15 48 -25 71 -27 71 -5 0 12 5 14
18 8 30 -13 116 -13 138 1 17 11 29 11 57 3 30 -9 40 -8 64 8 33 22 118 21
140 -2 8 -8 23 -14 34 -14 15 0 19 -7 19 -34 0 -18 6 -39 14 -45 16 -14 16
-36 -3 -100 -7 -24 -10 -52 -8 -62 6 -21 4 -20 -59 22 -23 15 -65 40 -95 54
-30 15 -67 33 -82 42 -76 40 -177 81 -182 74 -3 -5 25 -28 62 -51 37 -24 75
-50 84 -59 10 -9 74 -45 143 -81 69 -35 127 -71 129 -80 2 -8 0 -26 -3 -40 -6
-21 -8 -22 -15 -8 -4 9 -4 21 -1 26 3 6 -1 15 -8 21 -11 9 -16 9 -22 0 -8 -14
-12 -139 -4 -144 6 -4 4 -375 -3 -524 -2 -47 -8 -76 -15 -79 -13 -4 -17 -44
-5 -55 12 -12 -2 -322 -17 -372 -10 -32 -22 -171 -21 -247 1 -27 -6 -68 -15
-93 -8 -25 -12 -50 -9 -55 3 -5 -1 -28 -9 -51 -9 -27 -12 -49 -6 -59 10 -20 3
-215 -9 -250 -5 -14 -12 -60 -14 -103 -3 -43 -11 -85 -18 -93 -10 -13 -10 -17
0 -24 10 -6 10 -13 -4 -34 -13 -19 -16 -39 -12 -71 2 -25 1 -48 -4 -51 -5 -3
-9 -16 -9 -30 0 -14 -7 -38 -15 -55 l-16 -29 -55 35 c-59 38 -74 42 -74 22 0
-14 89 -77 109 -77 19 0 12 -28 -14 -56 l-25 -27 0 27 c0 44 -27 58 -115 58
-75 0 -79 -1 -81 -24 -2 -32 5 -41 23 -27 12 10 16 10 24 -2 4 -8 6 -21 4 -30
-7 -21 57 -89 83 -89 11 0 22 -7 26 -15 9 -24 -37 -29 -138 -17 -123 16 -257
70 -385 156 -29 20 -55 36 -58 36 -7 0 -125 81 -180 124 -58 46 -68 62 -52 82
14 17 1 39 -73 128 -54 63 -196 259 -223 306 -6 10 -16 24 -22 31 -6 8 -32 57
-58 109 -61 121 -61 121 -90 108 -20 -9 -24 -20 -30 -82 -18 -186 70 -473 203
-666 123 -178 256 -319 418 -443 91 -69 237 -167 250 -167 4 0 31 -12 61 -27
42 -22 53 -32 53 -52 0 -16 19 -42 59 -81 35 -35 60 -69 64 -86 3 -16 1 -139
-5 -274 -5 -135 -7 -303 -4 -375 14 -274 18 -333 27 -422 12 -117 11 -455 -2
-553 -12 -96 -25 -186 -34 -226 -6 -25 -2 -37 14 -53 29 -29 47 -26 83 9 27
27 29 35 24 73 -4 23 -11 166 -16 317 -5 151 -13 329 -19 395 -26 301 -22 918
7 947 5 5 23 -1 43 -15 19 -12 54 -35 79 -49 25 -15 54 -41 65 -58 24 -37 120
-110 147 -110 25 0 23 37 -7 135 -14 44 -25 84 -25 89 0 5 22 -11 48 -36 26
-25 53 -47 59 -49 11 -4 106 -188 118 -229 7 -24 22 -40 38 -40 4 0 7 19 7 43
0 32 -13 68 -52 144 -46 89 -62 109 -125 162 -81 68 -112 81 -137 56 -22 -22
-20 -49 6 -112 12 -29 18 -56 15 -60 -4 -4 -30 18 -57 49 -37 42 -70 66 -133
97 -86 42 -89 45 -72 98 7 22 31 33 78 33 16 0 27 5 27 14 0 46 50 34 162 -37
49 -32 188 -172 211 -213 13 -22 30 -17 62 21 29 35 33 36 109 39 59 3 82 8
91 20 7 9 17 16 23 16 5 0 12 7 16 15 4 11 13 14 31 9 19 -5 30 -1 44 17 17
21 22 22 45 11 15 -7 35 -12 45 -12 10 0 23 -11 29 -25 14 -30 32 -33 32 -4 0
11 5 17 10 14 6 -3 10 -17 10 -30 0 -12 7 -25 15 -29 8 -3 15 -12 15 -21 0 -8
7 -15 15 -15 17 0 18 2 5 54 -10 44 3 88 15 51 4 -11 13 -35 21 -54 14 -31 17
-33 31 -19 14 14 13 22 -7 74 -12 32 -25 61 -30 64 -5 3 -14 26 -21 52 -16 59
-6 73 66 89 77 17 89 5 82 -78 -2 -35 -1 -65 3 -68 7 -4 15 -116 30 -460 10
-226 0 -369 -31 -419 -46 -76 1 -158 75 -130 22 9 40 68 27 93 -14 25 -14 87
0 112 10 20 4 162 -24 559 -16 231 -14 360 7 376 9 6 28 35 43 64 19 36 37 56
53 60 65 18 331 159 405 215 375 280 526 541 550 947 5 99 -4 148 -29 148 -7
0 -35 -42 -61 -92 -113 -222 -197 -348 -324 -488 -59 -65 -72 -85 -67 -104 5
-19 -4 -30 -59 -69 -206 -148 -506 -265 -697 -272 -61 -2 -67 0 -79 22 -15 29
-35 25 -31 -6 3 -18 0 -22 -15 -17 -10 3 -40 10 -67 15 -58 11 -76 30 -76 82
0 26 -6 41 -17 48 -16 9 -17 11 -1 28 9 10 14 24 10 30 -4 7 -7 31 -5 54 2 33
-2 46 -17 56 -15 11 -18 21 -13 46 3 18 9 36 13 40 10 11 1 88 -12 104 -6 8
-4 22 8 41 11 19 14 36 9 48 -12 28 -19 147 -12 194 5 33 -3 52 -19 46 -18 -7
-30 14 -13 24 11 7 11 13 -1 35 -13 24 -13 28 4 37 17 9 17 11 -3 24 -19 14
-19 17 -6 37 9 14 13 38 10 65 -3 32 0 42 11 42 8 0 14 7 14 15 0 8 -8 15 -17
15 -12 0 -14 3 -6 8 17 11 10 101 -11 145 -15 29 -16 40 -6 52 6 8 20 29 29
48 17 33 17 36 -2 61 -10 14 -14 26 -8 26 18 0 33 50 33 104 -1 36 -6 54 -23
69 -21 19 -21 21 -3 34 14 10 15 16 6 25 -7 7 -12 8 -12 3 0 -5 -7 0 -15 12
-9 12 -17 45 -19 74 -3 50 -17 72 -42 62 -10 -3 -13 15 -12 76 0 69 3 83 19
92 23 12 25 39 3 39 -12 0 -14 5 -9 18 4 9 9 49 11 87 3 63 9 177 18 335 2 30
8 66 13 80 6 14 8 49 6 78 -5 50 -16 66 -26 40 -10 -24 -7 69 3 122 12 62 6
90 -18 90 -26 0 -43 64 -25 90 10 15 21 19 35 14 11 -3 23 -2 27 4 9 14 71 26
71 14 0 -18 59 -24 128 -12 49 8 98 8 182 1 63 -6 123 -11 133 -12 9 0 17 -4
17 -10 0 -12 117 -12 125 0 3 6 27 10 53 9 26 0 67 5 91 12 40 11 45 10 82
-17 65 -46 92 -57 138 -56 80 3 151 82 153 171 2 91 -54 152 -146 160 -47 4
-65 0 -118 -26 -65 -31 -72 -31 -178 -8 -14 3 -92 10 -175 15 -82 6 -224 18
-315 26 -91 8 -173 15 -182 15 -11 0 -18 10 -20 28 -5 41 -44 44 -53 3 -7 -35
-16 -38 -40 -15 -31 31 13 108 65 116 16 2 27 12 31 28 l7 25 1 -27 c1 -15 5
-29 10 -32 12 -8 21 18 21 63 0 20 9 62 20 93 19 53 20 105 6 281 -2 29 -20
24 -26 -7 l-5 -28 -33 37 c-59 64 -165 95 -259 75z m-793 -624 c0 -16 -19 -25
-38 -18 -9 3 -10 8 -1 18 15 18 39 18 39 0z m-73 -22 c-3 -3 -12 -4 -19 -1 -8
3 -5 6 6 6 11 1 17 -2 13 -5z m763 -694 c0 -5 -4 -10 -10 -10 -5 0 -10 5 -10
10 0 6 5 10 10 10 6 0 10 -4 10 -10z m-18 -52 c-8 -8 -9 -4 -5 13 4 13 8 18
11 10 2 -7 -1 -18 -6 -23z m295 10 c-3 -8 -6 -5 -6 6 -1 11 2 17 5 13 3 -3 4
-12 1 -19z m-467 -2288 c0 -11 -7 -20 -15 -20 -15 0 -21 21 -8 33 12 13 23 7
23 -13z m-30 -61 c0 -5 -7 -9 -15 -9 -15 0 -20 12 -9 23 8 8 24 -1 24 -14z
m806 -690 c9 -30 9 -39 1 -36 -14 4 -37 68 -30 80 8 13 17 -1 29 -44z"/>
<path d="M7023 5875 c-8 -21 26 -57 51 -53 24 4 33 33 16 53 -16 20 -59 19
-67 0z"/>
<path d="M7151 5811 c-21 -13 -5 -58 27 -75 78 -40 108 -9 45 49 -40 37 -49
40 -72 26z"/>
<path d="M7245 5690 c-8 -13 5 -99 16 -106 5 -3 6 -16 3 -30 -4 -14 -1 -31 6
-39 9 -10 10 -29 5 -58 -4 -23 -8 -55 -9 -72 -1 -16 -8 -54 -15 -82 -11 -46
-16 -52 -34 -48 -17 4 -35 -7 -74 -45 -29 -28 -53 -58 -53 -66 0 -31 -118
-168 -165 -191 -41 -21 -67 -54 -53 -70 14 -17 65 5 124 53 35 29 48 35 54 25
5 -10 19 -12 44 -7 29 6 40 14 53 41 14 29 14 37 3 50 -8 9 -22 14 -31 12 -15
-4 -14 2 8 37 38 58 104 126 124 126 10 0 26 11 37 25 11 14 27 25 36 25 20 0
59 80 54 112 -5 34 -30 28 -43 -11 -6 -19 -16 -36 -22 -38 -17 -6 -23 24 -7
37 8 7 14 24 14 39 0 23 4 27 28 26 35 0 41 33 14 78 -11 17 -23 54 -27 80
-11 70 -68 132 -90 97z"/>
<path d="M6595 5670 c-3 -5 -2 -10 4 -10 5 0 13 5 16 10 3 6 2 10 -4 10 -5 0
-13 -4 -16 -10z"/>
<path d="M6630 5646 c0 -19 89 -86 115 -86 12 0 47 -16 79 -35 62 -37 106 -45
106 -20 0 25 -36 53 -77 61 -21 3 -50 17 -64 31 -26 23 -115 63 -144 63 -8 0
-15 -6 -15 -14z"/>
<path d="M7220 5145 c-17 -21 -8 -50 17 -53 17 -3 24 3 29 23 4 18 2 30 -7 36
-19 12 -25 11 -39 -6z"/>
<path d="M3589 4904 c-6 -7 -19 -36 -29 -64 -15 -41 -16 -57 -8 -81 10 -31 11
-31 63 -24 49 6 54 4 74 -20 16 -21 18 -31 10 -46 -12 -22 -74 -64 -139 -92
-56 -25 -55 -23 -40 -42 20 -24 58 -18 141 21 94 44 125 87 114 157 -10 59
-22 77 -50 77 -13 0 -27 5 -30 10 -3 6 -22 10 -41 10 -32 0 -34 2 -24 20 8 15
21 20 48 20 41 0 82 23 82 46 0 17 3 16 -88 19 -48 1 -76 -3 -83 -11z"/>
<path d="M3851 4900 c-6 -3 -18 -31 -26 -61 -8 -30 -17 -63 -20 -74 -4 -13 2
-31 15 -48 21 -26 23 -27 46 -12 13 8 33 15 44 15 27 0 70 -28 70 -46 0 -23
-50 -61 -119 -90 -72 -30 -85 -42 -69 -61 26 -31 171 6 224 58 30 29 34 39 34
84 0 28 -6 60 -14 70 -7 10 -41 25 -77 35 -73 18 -85 40 -29 52 94 19 105 23
108 47 2 13 -2 27 -9 32 -16 9 -163 9 -178 -1z"/>
<path d="M4407 4874 c-4 -4 -4 -18 -1 -31 8 -29 -32 -155 -63 -202 -48 -71
-24 -107 66 -97 57 7 59 6 65 -19 4 -14 13 -28 21 -32 19 -7 45 14 45 37 0 23
40 31 71 15 16 -9 31 -10 51 -3 43 15 76 3 80 -30 2 -21 8 -27 28 -27 18 0 26
6 28 23 2 12 12 27 23 32 23 13 25 48 4 56 -10 4 -15 20 -15 49 0 45 -19 71
-45 61 -10 -4 -15 -19 -15 -51 0 -41 -2 -45 -24 -45 -33 0 -41 16 -22 45 9 13
21 56 28 95 13 78 7 103 -29 108 -17 3 -21 -4 -26 -51 -3 -29 -19 -82 -35
-118 -43 -91 -45 -93 -71 -80 -16 9 -21 21 -21 49 0 75 -51 87 -69 17 -11 -43
-28 -61 -50 -53 -5 1 -1 27 11 58 26 69 37 148 24 178 -9 21 -44 30 -59 16z"/>
<path d="M4995 4856 c-9 -14 -32 -34 -52 -46 -21 -12 -33 -26 -30 -34 3 -8 -5
-28 -18 -46 -32 -44 -40 -114 -21 -180 22 -73 30 -80 92 -80 96 0 147 72 129
181 -7 38 -11 43 -55 62 l-49 20 30 42 c21 29 30 52 27 71 -4 38 -32 43 -53
10z m16 -216 c42 -23 7 -100 -45 -100 -57 0 -37 97 22 109 2 1 12 -4 23 -9z"/>
<path d="M5203 4820 c-30 -12 -81 -91 -88 -136 -7 -41 16 -159 34 -177 6 -6
38 -13 71 -15 59 -4 61 -4 98 34 35 35 40 46 45 104 4 36 2 81 -3 101 -21 75
-91 115 -157 89z m93 -112 c21 -67 6 -148 -31 -162 -49 -18 -76 0 -89 61 -5
23 0 45 24 92 l31 61 30 -17 c16 -10 32 -25 35 -35z"/>
<path d="M5814 4817 c-3 -8 2 -36 10 -61 17 -50 21 -96 8 -96 -10 0 -62 80
-62 96 0 17 -58 64 -80 64 -9 0 -23 -7 -30 -15 -10 -13 -10 -19 4 -34 14 -15
15 -26 7 -62 -5 -24 -9 -73 -9 -108 -1 -43 -6 -69 -16 -80 -36 -40 -8 -76 51
-66 73 12 83 15 83 30 0 9 -10 20 -22 26 -21 9 -23 17 -23 79 0 39 3 70 6 70
3 0 12 -19 19 -42 34 -117 59 -162 90 -166 12 -2 27 2 31 10 5 7 9 67 9 133 0
87 4 128 15 149 20 37 19 41 -9 59 -38 25 -75 32 -82 14z"/>
<path d="M6791 4759 c-25 -5 -48 -14 -53 -21 -11 -18 -10 -76 2 -99 8 -15 7
-19 -4 -19 -19 0 -32 -95 -18 -131 14 -34 75 -63 135 -62 41 0 53 5 83 34 40
39 44 77 14 126 -13 22 -17 42 -13 66 7 43 -19 94 -53 107 -29 11 -32 11 -93
-1z m87 -77 c4 -43 -20 -53 -54 -21 l-25 24 22 18 c32 26 53 18 57 -21z m-6
-119 c39 -35 11 -80 -44 -69 -33 6 -58 23 -58 37 0 10 59 49 74 49 5 0 18 -7
28 -17z"/>
<path d="M7355 4740 c-3 -11 -4 -24 -1 -29 10 -16 -33 -139 -59 -169 -28 -33
-33 -83 -11 -102 9 -7 39 -10 78 -8 l62 3 6 -30 c9 -50 42 -45 79 11 28 41 30
48 18 63 -8 9 -17 33 -20 54 -7 45 -22 67 -48 67 -13 0 -19 -11 -25 -45 -6
-43 -8 -45 -40 -45 l-34 0 32 63 c48 93 39 187 -18 187 -7 0 -15 -9 -19 -20z"/>
<path d="M7631 4713 c-57 -30 -75 -64 -79 -149 -6 -117 31 -174 113 -174 40 0
81 20 123 59 18 18 22 32 22 84 -1 84 -14 135 -43 164 -32 33 -91 40 -136 16z
m101 -94 c26 -49 23 -92 -8 -128 -32 -38 -65 -40 -93 -5 -38 48 -24 118 31
152 41 27 49 25 70 -19z"/>
<path d="M7884 4719 c-10 -17 -34 -120 -34 -148 0 -35 32 -52 71 -38 21 9 32
6 58 -12 17 -12 31 -30 31 -40 0 -29 -46 -67 -111 -90 -61 -23 -81 -43 -61
-63 15 -15 125 7 173 34 50 28 69 65 69 135 0 63 -11 83 -46 83 -39 0 -96 29
-90 46 3 9 6 18 6 20 0 2 13 4 29 4 16 0 45 7 65 15 29 12 37 21 34 38 -3 21
-8 22 -96 23 -51 1 -95 -3 -98 -7z"/>
<path d="M8165 4701 c-9 -15 -45 -135 -45 -152 0 -9 9 -24 19 -33 15 -14 24
-15 40 -7 32 18 56 13 85 -18 37 -39 25 -56 -73 -107 -86 -44 -98 -67 -36 -72
77 -7 162 33 191 90 16 31 21 91 10 126 -7 22 -57 42 -106 42 -36 0 -50 12
-44 37 6 20 27 27 114 37 14 2 28 4 33 5 12 2 8 28 -8 41 -18 15 -171 24 -180
11z"/>
<path d="M8673 4693 c-17 -6 -16 -33 2 -56 19 -26 13 -183 -10 -227 -14 -27
-15 -37 -4 -61 6 -17 19 -33 28 -38 9 -4 61 -5 115 -2 l100 6 12 55 c12 51 11
57 -9 78 -11 12 -24 22 -28 22 -11 0 -42 -60 -35 -68 13 -12 -16 -28 -44 -24
-34 5 -53 31 -48 68 4 31 21 33 28 2 6 -25 38 -37 44 -16 2 7 12 41 21 75 16
54 20 61 35 53 27 -14 43 11 34 54 -9 53 -35 66 -126 66 -42 0 -80 5 -83 10
-7 11 -13 11 -32 3z m129 -96 c-12 -13 -22 -29 -22 -35 0 -7 -4 -12 -10 -12
-17 0 -11 48 8 59 33 20 47 13 24 -12z"/>
<path d="M4100 4640 c-30 -30 -10 -110 27 -110 30 0 72 34 79 64 12 55 -63 89
-106 46z"/>
<path d="M7032 4528 c-30 -30 0 -108 41 -108 49 0 83 50 59 86 -20 30 -79 43
-100 22z"/>
<path d="M5975 4397 c-11 -7 -39 -24 -63 -39 -24 -16 -51 -28 -62 -28 -10 0
-31 -10 -47 -23 -29 -24 -117 -77 -127 -77 -3 0 -6 12 -6 28 0 15 -5 34 -10
42 -9 13 -13 12 -30 -9 -25 -30 -25 -47 0 -61 24 -13 18 -30 -10 -30 -10 0
-31 -11 -47 -24 -16 -13 -47 -28 -68 -32 -22 -4 -51 -14 -65 -24 -14 -9 -33
-20 -43 -23 -12 -5 -17 -15 -15 -29 7 -50 117 -25 194 45 17 15 63 37 105 50
41 13 109 46 151 73 42 27 101 64 130 82 89 55 93 59 78 77 -15 18 -37 18 -65
2z"/>
<path d="M5287 4019 c-25 -14 -21 -29 8 -29 15 0 25 6 25 14 0 21 -12 26 -33
15z"/>
<path d="M5464 4015 c-4 -8 -14 -15 -23 -15 -23 0 -41 -20 -41 -46 0 -26 28
-40 36 -19 7 18 24 20 24 2 0 -19 20 -36 36 -30 7 2 16 25 20 49 5 37 3 47
-12 59 -24 18 -33 18 -40 0z"/>
</g>
</svg>
