<?xml version="1.0" standalone="no"?>
<!DOCTYPE svg PUBLIC "-//W3C//DTD SVG 20010904//EN"
 "http://www.w3.org/TR/2001/REC-SVG-20010904/DTD/svg10.dtd">
<svg version="1.0" xmlns="http://www.w3.org/2000/svg"
 width="432.000000pt" height="577.000000pt" viewBox="0 0 432.000000 577.000000"
 preserveAspectRatio="xMidYMid meet">

<g transform="translate(0.000000,577.000000) scale(0.100000,-0.100000)"
fill="#FFF" stroke="none">
<path d="M2325 5263 c-65 -14 -122 -42 -131 -62 -3 -9 -9 -54 -13 -101 l-6
-85 -43 3 -43 3 3 -33 c3 -30 7 -34 48 -44 35 -9 44 -15 42 -30 -1 -10 -4 -81
-5 -158 -2 -104 1 -140 10 -143 31 -12 8 -22 -54 -25 l-68 -3 2 -29 c1 -16 4
-31 7 -33 3 -3 80 -6 171 -8 166 -2 167 -2 177 21 19 41 -4 54 -89 54 l-75 0
7 158 c4 86 10 159 12 162 3 3 31 6 63 6 68 2 80 7 80 39 0 31 -15 39 -75 40
-28 1 -56 5 -63 9 -16 10 -15 76 3 118 27 66 111 76 143 17 41 -75 72 -94 111
-70 19 12 27 94 9 112 -7 8 -21 26 -31 41 -11 17 -28 29 -49 32 -65 10 -123
14 -143 9z"/>
<path d="M2776 5099 c-14 -17 -28 -43 -32 -57 -21 -103 -36 -119 -83 -84 -38
28 -62 28 -79 1 -18 -28 -7 -54 34 -80 l35 -21 -6 -67 c-5 -48 -13 -73 -30
-91 -17 -19 -24 -42 -29 -99 l-6 -73 36 -42 c69 -77 113 -89 221 -61 63 17 99
47 113 97 17 58 -10 77 -88 62 -24 -5 -34 -14 -42 -40 -8 -24 -19 -36 -38 -40
-15 -3 -33 -7 -39 -9 -18 -6 -61 36 -68 66 -5 21 -1 29 20 43 22 15 25 22 20
47 -15 69 49 183 91 161 11 -5 36 -12 57 -16 68 -13 113 38 69 77 -10 10 -31
17 -45 17 -26 0 -67 30 -67 50 0 5 9 31 19 58 19 48 18 94 -2 120 -15 20 -33
14 -61 -19z"/>
<path d="M610 4969 c-24 -16 -54 -29 -65 -29 -25 0 -55 -29 -55 -52 0 -18 20
-28 59 -28 34 0 51 -17 51 -49 0 -31 38 -189 51 -213 5 -10 9 -40 9 -66 0 -27
9 -75 20 -107 21 -60 27 -125 12 -125 -5 0 -17 9 -27 20 -10 11 -26 22 -36 25
-11 4 -19 11 -19 16 0 15 -40 69 -92 124 -26 28 -58 69 -70 92 -13 23 -43 68
-67 99 -30 39 -40 59 -31 62 20 7 50 40 50 56 0 8 -7 21 -15 30 -13 13 -20 13
-59 0 -27 -9 -46 -23 -49 -35 -3 -11 -14 -19 -27 -19 -26 0 -77 -29 -84 -47
-11 -29 5 -44 40 -37 32 6 39 2 82 -43 63 -65 109 -117 161 -180 23 -29 49
-53 56 -53 8 0 17 -15 21 -35 4 -25 29 -59 86 -119 44 -47 88 -88 99 -91 51
-17 95 38 84 105 -4 23 -2 41 4 45 17 10 13 36 -12 69 -14 18 -27 53 -31 83
-3 28 -13 68 -21 87 -9 20 -12 47 -9 65 5 21 0 40 -15 64 -14 23 -22 57 -25
102 -4 50 -10 73 -25 89 -27 28 -27 56 -2 56 24 0 37 36 21 55 -16 19 -17 19
-70 -16z"/>
<path d="M1860 4985 c-14 -8 -37 -14 -52 -15 -16 0 -33 -9 -42 -22 -12 -17
-18 -20 -28 -10 -22 22 -85 14 -138 -19 -70 -43 -67 -72 10 -83 67 -10 91 -25
84 -52 -3 -12 2 -36 10 -53 10 -18 14 -41 10 -56 -4 -16 1 -36 15 -58 28 -46
27 -62 -9 -87 -68 -49 -10 -105 66 -65 16 8 39 15 52 15 31 0 98 35 106 55 8
22 8 21 -9 39 -13 12 -21 13 -40 4 -39 -18 -68 4 -90 67 -22 66 -22 124 0 192
8 25 89 83 114 83 21 -1 54 -28 75 -61 37 -58 114 -32 101 34 -9 46 -54 83
-114 96 -67 14 -90 13 -121 -4z"/>
<path d="M1420 4865 c0 -11 -9 -15 -32 -15 -104 3 -216 -34 -256 -85 -23 -28
-38 -31 -66 -10 -62 47 -220 -16 -264 -106 l-20 -39 30 -21 c39 -28 67 -16
103 45 29 50 51 61 99 52 25 -5 37 -15 50 -42 9 -20 16 -37 14 -38 -92 -39
-217 -117 -239 -147 -17 -24 -19 -38 -14 -72 9 -52 30 -93 53 -106 9 -5 49 -9
89 -10 57 -1 80 4 110 21 54 31 73 49 73 69 0 26 16 32 56 19 40 -13 42 -14
104 -24 72 -12 133 14 213 92 59 58 67 70 67 103 0 52 -23 68 -57 43 -29 -22
-36 -32 -57 -86 -18 -45 -59 -68 -131 -74 -71 -6 -100 7 -125 55 -39 78 -32
84 149 131 182 48 213 79 154 157 -16 20 -32 50 -38 67 -7 23 -17 32 -37 34
-20 2 -28 -1 -28 -13z m20 -87 c28 -42 31 -58 12 -64 -9 -3 -30 -13 -47 -22
-18 -10 -56 -17 -96 -17 -49 -1 -77 -8 -104 -23 -44 -27 -42 -27 -55 -1 -10
17 -7 28 14 60 17 26 34 39 49 39 12 1 58 12 102 25 100 30 107 30 125 3z
m-330 -230 c0 -2 9 -27 20 -56 l20 -53 -25 -23 c-13 -13 -51 -39 -83 -59 -56
-35 -59 -36 -98 -22 -32 11 -39 18 -42 42 -4 47 27 83 113 129 73 39 95 49 95
42z"/>
<path d="M3823 4778 c-13 -6 -37 -40 -55 -77 -29 -60 -43 -80 -58 -81 -3 0
-21 14 -39 31 -29 26 -38 29 -58 20 -35 -16 -31 -64 8 -101 30 -27 31 -29 15
-51 -9 -13 -16 -40 -16 -59 0 -28 -8 -43 -31 -66 -60 -56 -75 -134 -39 -202
28 -53 40 -66 82 -85 41 -20 180 -19 200 1 7 7 20 12 30 12 18 0 38 28 38 55
0 26 -46 65 -78 65 -28 0 -82 -38 -82 -59 0 -17 -84 0 -102 21 -24 27 -23 71
2 93 10 9 25 34 31 54 36 111 85 147 147 109 24 -15 42 -18 66 -14 65 12 72
55 14 81 -77 34 -84 56 -38 125 32 48 40 106 18 128 -14 14 -25 14 -55 0z"/>
<path d="M3134 4757 c-30 -17 -74 -54 -74 -61 0 -4 -11 -23 -25 -44 -13 -20
-27 -53 -29 -72 -3 -19 -10 -50 -15 -69 -13 -43 2 -77 66 -152 75 -89 144
-114 271 -95 70 10 82 15 106 43 17 20 26 42 24 55 -3 21 -7 23 -58 20 -42 -2
-61 -9 -81 -28 -37 -35 -115 -34 -158 2 -48 40 -82 106 -84 161 l-2 48 42 -2
c38 -1 101 -26 113 -43 10 -15 225 -81 247 -75 27 6 31 20 35 125 3 78 1 85
-17 88 -11 2 -29 12 -40 22 -11 10 -51 34 -90 54 -61 31 -79 36 -140 36 -38
-1 -79 -6 -91 -13z m170 -72 c26 -14 53 -25 61 -25 24 0 85 -60 85 -84 0 -11
-9 -32 -19 -45 -19 -25 -14 -26 -101 19 -108 55 -137 68 -167 75 -71 15 -19
84 63 85 17 0 52 -11 78 -25z"/>
<path d="M1496 4283 c-4 -5 -51 -8 -104 -8 -97 0 -97 0 -97 -25 0 -18 6 -26
23 -28 l22 -3 -1 -202 c0 -111 -4 -224 -7 -252 l-7 -50 -41 3 c-49 4 -61 -8
-34 -33 17 -16 37 -18 137 -16 65 1 120 5 123 8 8 8 -41 43 -61 43 -34 0 -49
38 -49 131 0 79 2 87 22 96 15 6 35 7 57 1 19 -6 48 -7 64 -4 40 8 57 -8 57
-53 0 -40 14 -61 42 -61 22 0 20 -14 24 152 3 128 2 137 -16 143 -25 8 -40 -1
-40 -25 0 -11 -7 -35 -16 -54 -18 -37 -44 -46 -136 -46 l-48 0 0 96 c0 113 9
135 53 134 18 0 83 3 145 6 100 6 115 5 132 -11 11 -10 20 -30 20 -45 0 -30
23 -56 40 -45 14 9 13 128 -2 143 -13 13 -289 18 -302 5z"/>
<path d="M1855 4013 c-29 -16 -64 -51 -65 -65 0 -4 12 -15 26 -25 31 -20 55
-9 64 28 12 49 95 51 127 3 17 -26 16 -27 -9 -49 -14 -12 -46 -25 -70 -28 -99
-14 -193 -74 -204 -132 -9 -51 2 -72 52 -91 51 -19 151 -15 220 9 38 14 43 14
73 -5 24 -15 35 -18 43 -10 9 9 7 16 -4 29 -23 27 -32 69 -32 163 -1 98 -15
133 -65 167 -41 27 -111 30 -156 6z m165 -202 c0 -30 -5 -42 -25 -55 -14 -9
-23 -21 -20 -25 11 -18 -25 -31 -81 -30 -33 1 -72 0 -87 -1 -38 -3 -44 6 -26
38 21 38 84 77 154 95 85 22 85 22 85 -22z"/>
<path d="M2162 4002 c-7 -5 -14 -22 -15 -38 -2 -26 1 -29 27 -27 l29 2 -7 -67
c-3 -37 -6 -91 -6 -119 0 -49 -2 -53 -24 -53 -29 0 -38 -10 -26 -30 7 -11 35
-16 103 -18 79 -3 95 -1 100 12 6 16 -7 22 -63 28 -22 3 -26 9 -32 53 -4 28
-5 65 -1 84 7 39 49 91 99 122 31 19 37 20 52 7 9 -8 25 -18 35 -21 12 -5 17
-17 17 -45 0 -21 5 -43 11 -49 8 -8 9 -34 4 -82 -7 -69 -7 -70 -33 -65 -15 3
-35 -1 -46 -9 -17 -13 -17 -14 -1 -31 14 -14 32 -16 99 -14 73 3 81 5 81 23 0
14 -8 21 -27 23 -32 4 -32 5 -18 122 6 57 5 83 -6 108 -36 88 -150 118 -219
58 l-28 -25 -28 30 c-27 29 -53 36 -77 21z"/>
<path d="M2750 4002 c-94 -43 -144 -121 -142 -221 0 -45 5 -59 30 -85 16 -17
33 -41 37 -53 7 -26 27 -30 45 -8 9 11 32 15 79 15 100 0 135 13 155 58 18 41
20 55 18 125 -2 40 -8 54 -32 79 -28 28 -30 32 -15 48 12 14 13 19 3 27 -16
13 -157 24 -178 15z m80 -46 c0 -7 -9 -24 -19 -37 -10 -14 -40 -66 -67 -117
-26 -51 -52 -91 -58 -89 -6 2 -17 16 -25 31 -11 24 -11 36 3 85 12 45 25 65
63 99 48 43 103 58 103 28z m72 -63 c24 -22 25 -123 1 -164 -16 -27 -21 -29
-81 -29 -61 0 -63 1 -56 23 4 12 13 31 20 42 8 11 14 25 14 32 0 19 60 113 73
113 6 0 19 -7 29 -17z"/>
<path d="M2002 3616 c-105 -38 -144 -163 -83 -270 17 -28 39 -61 50 -73 13
-14 21 -36 21 -59 0 -36 -1 -36 -35 -32 -19 2 -35 0 -35 -5 0 -7 -272 -2 -398
7 -37 3 -56 16 -24 16 17 0 22 6 22 24 0 28 -20 39 -35 19 -7 -10 -43 -15
-125 -18 -171 -5 -220 -33 -220 -125 0 -76 45 -108 132 -96 46 6 120 10 128 5
3 -1 28 -3 55 -5 69 -4 166 -19 189 -29 14 -6 17 -5 12 4 -6 10 4 11 44 7 29
-3 57 -3 62 1 14 8 193 7 206 -1 11 -7 11 -151 0 -162 -4 -3 -28 5 -55 19
-102 54 -215 108 -210 100 3 -4 23 -17 44 -28 21 -11 47 -28 57 -37 11 -10 29
-21 40 -24 12 -4 32 -14 46 -24 14 -9 37 -20 53 -24 27 -6 37 -31 15 -38 -9
-3 -12 -69 -14 -244 -1 -251 -10 -506 -18 -533 -3 -9 -8 -52 -11 -96 -3 -44
-8 -109 -12 -145 -3 -36 -5 -72 -4 -80 2 -8 -2 -64 -8 -125 -6 -60 -13 -130
-15 -155 -3 -25 -10 -74 -16 -110 -7 -38 -7 -66 -2 -68 12 -4 -9 -82 -23 -81
-25 3 -34 -2 -29 -16 12 -32 -6 -13 -20 20 -13 31 -19 35 -51 35 -35 0 -36 0
-31 -37 2 -27 8 -38 19 -37 9 1 13 -4 10 -12 -3 -9 2 -14 15 -14 20 0 36 -23
25 -34 -11 -11 -104 -6 -126 6 -12 7 -29 13 -37 14 -8 2 -37 13 -65 25 -134
59 -206 96 -265 137 -80 55 -78 54 -62 59 21 8 13 26 -24 63 -20 19 -62 73
-92 120 -30 47 -80 122 -110 168 -30 46 -57 95 -61 110 -4 15 -15 28 -23 30
-13 2 -17 -12 -23 -75 -6 -77 9 -183 36 -258 18 -49 73 -159 85 -170 6 -5 22
-26 35 -45 78 -115 215 -230 392 -329 31 -18 63 -38 70 -44 6 -7 18 -12 26
-12 8 0 19 -9 25 -19 6 -10 30 -36 53 -58 l41 -39 -5 -231 c-3 -187 -2 -229 9
-226 10 3 14 36 15 124 3 149 11 224 25 224 18 0 111 -61 130 -85 22 -28 87
-70 95 -61 3 3 -4 36 -16 72 -12 37 -20 69 -17 71 2 3 24 -10 49 -29 40 -30
84 -98 113 -173 7 -18 8 -18 11 5 4 26 -61 160 -77 160 -5 0 -24 13 -42 28
-46 40 -66 45 -78 22 -8 -14 -7 -26 1 -41 6 -12 15 -35 19 -50 8 -26 7 -28
-10 -19 -10 5 -29 23 -42 38 -13 16 -49 42 -80 58 -32 15 -58 34 -58 42 0 30
21 52 51 52 17 0 28 4 24 9 -3 6 2 14 12 19 30 16 101 -25 182 -105 40 -40 75
-73 78 -73 3 0 13 11 24 24 13 17 32 25 70 29 28 4 59 13 69 22 9 8 24 15 32
15 9 0 19 7 22 16 8 20 65 10 84 -14 11 -15 13 -15 19 6 5 20 8 17 28 -25 l22
-48 -3 43 c-1 27 -9 51 -22 65 -24 27 -32 58 -14 64 6 3 12 -2 12 -9 0 -8 7
-23 15 -34 15 -19 16 -19 13 1 -2 11 -6 22 -9 25 -4 3 -3 15 2 27 9 26 86 43
99 23 17 -27 42 -445 33 -548 -5 -64 -4 -72 11 -72 10 0 15 4 11 9 -3 5 -1 12
4 15 9 6 7 125 -6 326 -10 169 -7 249 11 269 9 9 20 31 26 47 8 23 25 37 73
59 108 51 268 164 352 249 139 142 192 258 202 442 9 163 1 169 -59 49 -62
-124 -127 -224 -191 -292 -30 -32 -47 -58 -44 -67 15 -40 -236 -185 -393 -226
-50 -14 -191 -18 -232 -7 -15 4 -37 22 -49 40 -16 21 -17 27 -6 18 15 -11 17
-11 17 2 0 8 -7 17 -15 21 -17 6 -21 46 -5 46 13 0 13 47 0 55 -9 6 -13 73 -9
173 0 9 -8 89 -17 178 -10 92 -14 169 -9 180 4 10 7 24 6 29 -8 29 -7 55 1 55
5 0 6 5 2 12 -4 7 -9 23 -10 36 -2 13 -5 27 -8 30 -3 3 1 10 10 17 15 10 15
13 0 28 -16 15 -15 18 4 37 20 20 28 75 11 82 -5 2 -11 12 -13 23 -1 11 -7 23
-12 27 -5 3 -12 28 -14 55 -7 64 -5 294 2 301 3 3 6 10 6 16 0 6 -5 4 -10 -4
-12 -18 -12 190 -1 209 4 6 5 29 1 49 -3 20 -1 45 4 56 8 14 8 20 -1 23 -15 6
-17 43 -3 43 6 0 10 7 10 15 0 8 -4 15 -10 15 -11 0 -13 79 -2 96 8 13 62 25
62 14 0 -15 33 -20 48 -8 10 9 48 12 121 11 177 -3 191 -4 185 -14 -8 -13 13
-11 28 4 20 19 127 21 147 3 45 -41 130 -32 160 18 34 54 23 113 -29 153 -23
18 -91 15 -125 -5 -24 -15 -39 -17 -80 -11 -43 7 -413 29 -481 29 -17 0 -24 6
-24 20 0 11 -4 20 -10 20 -5 0 -10 -9 -10 -20 0 -13 -7 -20 -20 -20 -15 0 -20
7 -20 25 0 34 28 75 51 75 12 0 16 5 13 14 -3 8 -1 17 5 21 7 4 11 -4 11 -19
0 -14 5 -26 10 -26 6 0 10 21 10 46 0 25 5 54 11 66 7 13 8 50 3 106 -4 48
-10 79 -13 69 -6 -17 -8 -17 -26 4 -46 51 -134 71 -203 45z"/>
<path d="M1310 3270 c0 -5 19 -10 42 -10 49 0 47 5 -4 14 -24 4 -38 3 -38 -4z"/>
<path d="M2185 3250 c3 -5 8 -10 11 -10 2 0 4 5 4 10 0 6 -5 10 -11 10 -5 0
-7 -4 -4 -10z"/>
<path d="M2530 2825 c0 -8 9 -15 20 -15 13 0 18 5 14 15 -4 8 -12 15 -20 15
-8 0 -14 -7 -14 -15z"/>
<path d="M2604 2779 c-8 -14 4 -25 39 -33 33 -8 34 0 5 25 -27 21 -34 23 -44
8z"/>
<path d="M2668 2715 c-7 -7 15 -109 25 -116 5 -4 4 -15 -2 -27 -14 -25 -14
-62 -1 -62 5 0 12 16 16 37 6 32 8 34 19 19 11 -15 13 -15 19 -1 3 9 -3 23
-14 32 -13 12 -20 30 -20 54 0 33 -29 77 -42 64z"/>
<path d="M2281 2654 c6 -7 38 -23 70 -35 33 -12 62 -26 65 -30 7 -12 44 -11
44 1 0 6 -11 10 -24 10 -13 0 -41 12 -62 27 -45 30 -112 50 -93 27z"/>
<path d="M2730 2506 c0 -9 5 -16 10 -16 6 0 10 4 10 9 0 6 -4 13 -10 16 -5 3
-10 -1 -10 -9z"/>
<path d="M2676 2474 c-9 -23 -7 -54 3 -54 9 0 21 33 21 58 0 17 -17 15 -24 -4z"/>
<path d="M2710 2465 c0 -8 5 -15 10 -15 6 0 10 7 10 15 0 8 -4 15 -10 15 -5 0
-10 -7 -10 -15z"/>
<path d="M2600 2388 c-14 -17 -28 -40 -32 -50 -4 -10 -12 -18 -18 -18 -5 0
-10 -5 -10 -11 0 -7 -16 -32 -36 -55 -21 -27 -30 -44 -22 -44 15 0 78 60 78
74 0 4 20 35 45 67 25 33 45 61 45 64 0 15 -28 0 -50 -27z"/>
<path d="M2650 2345 c0 -9 5 -15 11 -13 6 2 11 8 11 13 0 5 -5 11 -11 13 -6 2
-11 -4 -11 -13z"/>
<path d="M2562 2259 c-23 -28 -23 -29 -3 -29 21 0 54 37 45 52 -8 13 -18 8
-42 -23z"/>
<path d="M325 2153 c-40 -4 -41 -5 -53 -55 -6 -28 -10 -54 -7 -56 2 -3 25 -4
50 -4 41 1 45 -1 45 -22 0 -35 -29 -64 -85 -85 -67 -26 -35 -40 38 -17 44 14
57 24 79 61 l27 44 -20 25 c-15 19 -30 26 -56 26 -28 0 -34 3 -29 16 3 9 6 18
6 20 0 2 9 4 21 4 29 0 59 18 59 35 0 8 -8 14 -17 13 -10 -1 -36 -3 -58 -5z"/>
<path d="M441 2106 c-18 -75 -16 -89 17 -83 15 3 35 9 44 12 13 5 19 0 24 -19
8 -33 -8 -53 -63 -77 -41 -17 -58 -39 -30 -39 74 2 137 45 137 95 0 28 -21 61
-42 65 -36 8 -48 14 -48 25 0 15 35 30 48 21 12 -7 46 19 39 30 -3 5 -30 11
-60 12 l-55 2 -11 -44z"/>
<path d="M816 2106 c-4 -19 -18 -60 -31 -91 -37 -83 -35 -95 20 -95 32 0 45
-4 45 -14 0 -22 28 -27 35 -6 8 24 32 32 56 20 11 -6 35 -8 54 -4 27 5 35 3
35 -9 0 -8 6 -20 14 -26 22 -18 52 43 37 73 -5 11 -11 30 -13 40 -5 30 -28 32
-28 2 0 -18 -8 -30 -25 -38 -35 -16 -39 -6 -17 44 26 56 34 100 23 117 -13 20
-31 4 -31 -29 0 -43 -49 -142 -67 -136 -8 4 -19 6 -24 6 -5 0 -9 14 -9 30 0
39 -27 41 -32 3 -2 -20 -9 -29 -25 -31 -29 -4 -29 13 -2 57 13 22 19 46 17 74
-4 51 -24 59 -32 13z"/>
<path d="M1187 2109 c-34 -38 -77 -116 -77 -142 0 -14 10 -41 23 -61 20 -32
25 -35 57 -30 46 8 70 37 70 84 0 40 -23 70 -54 70 -16 0 -16 3 3 34 36 57 20
90 -22 45z m31 -155 c4 -29 -23 -51 -43 -34 -18 15 -19 32 -3 48 18 18 42 10
46 -14z"/>
<path d="M1758 2102 c-29 -3 -37 -17 -16 -24 15 -5 12 -77 -3 -92 -6 -6 -9 -5
-9 5 0 7 -7 27 -15 43 -8 15 -12 33 -9 38 9 14 -15 28 -48 28 -27 0 -35 -9
-21 -24 11 -11 13 -165 2 -171 -17 -11 2 -25 34 -25 21 0 28 3 19 9 -13 8 -24
131 -12 131 7 0 50 -95 50 -109 0 -6 4 -11 9 -11 5 0 11 -10 15 -22 4 -18 8
-20 18 -10 8 8 13 45 13 102 1 76 5 92 20 104 18 13 18 14 -1 23 -10 5 -31 7
-46 5z"/>
<path d="M3580 2097 c0 -4 4 -15 9 -25 21 -38 30 -108 20 -145 -5 -20 -14 -37
-19 -37 -6 0 -10 -7 -10 -16 0 -12 5 -15 23 -9 12 4 47 8 77 9 70 2 77 7 72
50 -5 41 -32 51 -32 12 0 -20 -6 -25 -35 -28 -36 -4 -44 8 -29 46 6 15 7 15
19 0 19 -26 32 -9 34 44 1 36 -3 51 -14 56 -10 3 -17 -3 -21 -19 -9 -36 -34
-32 -34 5 0 21 5 30 18 31 34 3 47 -3 68 -29 l21 -25 7 34 c9 48 -10 60 -101
56 -40 -1 -73 -5 -73 -10z"/>
<path d="M1327 2089 c-42 -25 -61 -116 -32 -155 8 -10 15 -27 15 -36 0 -14 9
-18 41 -18 31 0 47 6 70 29 16 16 29 39 29 52 0 33 -22 102 -38 122 -17 19
-57 22 -85 6z m75 -53 c20 -29 -13 -126 -42 -126 -24 0 -50 41 -50 80 0 33 5
42 27 54 28 14 52 11 65 -8z"/>
<path d="M2736 2058 c-4 -23 -16 -62 -26 -86 -11 -25 -20 -54 -20 -65 0 -17 5
-19 46 -14 41 4 47 2 56 -19 13 -29 28 -31 28 -4 0 10 8 24 18 29 14 9 15 12
2 20 -8 5 -14 22 -15 38 0 19 -6 29 -18 31 -13 3 -18 -2 -17 -15 4 -33 0 -41
-22 -46 -35 -10 -38 1 -17 58 21 57 22 106 3 112 -7 2 -14 -14 -18 -39z"/>
<path d="M3067 2049 c-8 -27 -13 -58 -10 -69 6 -21 28 -27 38 -10 9 14 48 13
63 -2 7 -7 12 -20 12 -29 0 -23 -56 -69 -85 -69 -25 0 -52 -25 -37 -34 18 -11
112 25 137 52 49 53 23 122 -47 122 -15 0 -30 5 -34 12 -10 16 32 48 63 48 15
0 23 5 21 12 -3 8 -26 13 -56 15 l-51 1 -14 -49z"/>
<path d="M3327 2094 c-4 -4 -21 -7 -39 -8 -27 -1 -33 -6 -40 -35 -16 -61 -9
-76 41 -76 34 0 47 -5 58 -22 14 -21 13 -25 -16 -52 -17 -16 -45 -32 -61 -36
-17 -4 -30 -13 -30 -21 0 -19 8 -18 73 7 58 22 77 46 77 98 0 35 -13 46 -63
55 -32 6 -38 11 -35 29 2 16 13 25 41 31 20 5 36 14 34 20 -4 13 -30 19 -40
10z"/>
<path d="M2359 2069 c-15 -15 -20 -29 -15 -49 3 -18 0 -33 -9 -40 -26 -21 -19
-68 13 -84 37 -19 88 -29 111 -21 30 9 36 64 9 99 -14 20 -17 31 -10 34 18 6
14 47 -6 65 -25 23 -68 21 -93 -4z m81 -20 c0 -19 -21 -49 -34 -49 -20 0 -37
25 -30 44 7 18 64 23 64 5z m-16 -89 c25 -9 35 -33 18 -44 -14 -8 -82 6 -82
17 0 8 27 35 37 37 1 0 13 -4 27 -10z"/>
<path d="M2907 2070 c-48 -38 -54 -132 -11 -175 20 -19 97 -20 113 -1 20 23
24 83 11 131 -19 67 -63 84 -113 45z m81 -45 c16 -35 15 -56 -4 -93 -20 -41
-60 -44 -74 -6 -16 40 -12 82 10 104 27 27 54 25 68 -5z"/>
<path d="M605 1970 c-10 -15 14 -50 34 -50 24 0 45 25 37 45 -6 17 -61 21 -71
5z"/>
<path d="M2532 1914 c5 -27 34 -40 52 -25 28 23 19 41 -20 41 -28 0 -35 -4
-32 -16z"/>
<path d="M1815 1807 c-27 -16 -74 -45 -102 -64 -29 -18 -57 -33 -62 -33 -5 0
-16 -6 -23 -12 -20 -19 -56 -38 -70 -38 -6 0 -31 -9 -55 -21 -34 -17 -41 -24
-33 -35 10 -11 19 -9 53 8 23 12 56 32 73 45 17 13 38 23 46 23 16 0 42 12 88
41 14 9 53 33 87 55 35 21 63 45 63 52 0 17 -8 14 -65 -21z"/>
<path d="M1625 1741 c-3 -5 -1 -12 5 -16 5 -3 10 1 10 9 0 18 -6 21 -15 7z"/>
<path d="M1520 1569 c0 -20 16 -43 23 -32 3 4 -1 17 -9 28 -10 13 -14 15 -14
4z"/>
<path d="M1485 1550 c-3 -5 -1 -10 4 -10 6 0 11 5 11 10 0 6 -2 10 -4 10 -3 0
-8 -4 -11 -10z"/>
<path d="M2297 1258 c-6 -17 21 -70 33 -63 4 3 11 -1 13 -7 3 -7 6 -1 6 13 1
30 -44 79 -52 57z m43 -39 c0 -6 -4 -7 -10 -4 -5 3 -10 11 -10 16 0 6 5 7 10
4 6 -3 10 -11 10 -16z"/>
<path d="M1795 1190 c3 -5 11 -10 16 -10 6 0 7 5 4 10 -3 6 -11 10 -16 10 -6
0 -7 -4 -4 -10z"/>
<path d="M1610 710 c0 -5 5 -10 10 -10 6 0 10 5 10 10 0 6 -4 10 -10 10 -5 0
-10 -4 -10 -10z"/>
<path d="M1800 700 c0 -5 5 -10 10 -10 6 0 10 5 10 10 0 6 -4 10 -10 10 -5 0
-10 -4 -10 -10z"/>
<path d="M2406 673 c6 -4 14 -15 17 -23 5 -11 6 -9 4 4 -1 11 -9 21 -17 23
-10 3 -11 2 -4 -4z"/>
<path d="M1650 225 c0 -14 4 -25 9 -25 4 0 6 11 3 25 -2 14 -6 25 -8 25 -2 0
-4 -11 -4 -25z"/>
</g>
</svg>
